M48
METRIC,TZ
T1C0.400
T2C0.750
T3C0.800
T4C1.000
T5C1.100
%
G90
G05
T1
X194691Y-120650
X196596Y-86995
X196596Y-90805
X196596Y-101600
X196596Y-104140
X196596Y-120650
X199136Y-86995
X199136Y-112395
X201676Y-97790
X202946Y-85090
X202946Y-100330
X205980Y-82550
X209296Y-80010
X211836Y-77470
X211836Y-86995
X216916Y-132080
X218186Y-78740
X218376Y-60960
X218821Y-71755
X220726Y-120650
X221996Y-78740
X223266Y-123190
X225806Y-125730
X225806Y-125730
X228346Y-127000
X229616Y-132080
X233426Y-81280
X234696Y-133350
T2
X203962Y-49530
X205232Y-49530
X206502Y-49530
T3
X180594Y-86995
X180594Y-94615
X181102Y-111760
X181102Y-119380
X183642Y-59055
X183642Y-61595
X183642Y-64135
X183642Y-66675
X183642Y-69215
X183642Y-71755
X183642Y-74295
X183642Y-76835
X183896Y-81915
X183896Y-84455
X183896Y-86995
X183896Y-89535
X183896Y-92075
X183896Y-94615
X183896Y-97155
X183896Y-102235
X183896Y-104775
X183896Y-107315
X183896Y-109855
X183896Y-112395
X183896Y-114935
X183896Y-117475
X183896Y-121920
X183896Y-124460
X183896Y-127000
X183896Y-129540
X183896Y-132080
X183896Y-134620
X183896Y-137160
X185166Y-56388
X190166Y-56388
X190286Y-99568
X191262Y-59055
X191262Y-61595
X191262Y-64135
X191262Y-66675
X191262Y-69215
X191262Y-71755
X191262Y-74295
X191262Y-76835
X191516Y-81915
X191516Y-84455
X191516Y-86995
X191516Y-89535
X191516Y-92075
X191516Y-94615
X191516Y-97155
X191516Y-102235
X191516Y-104775
X191516Y-107315
X191516Y-109855
X191516Y-112395
X191516Y-114935
X191516Y-117475
X191516Y-121920
X191516Y-124460
X191516Y-127000
X191516Y-129540
X191516Y-132080
X191516Y-134620
X191516Y-137160
X195286Y-99568
X196850Y-133176
X196850Y-138176
X197866Y-53340
X197866Y-68580
X197866Y-93980
X197866Y-109220
X197866Y-114300
X197866Y-129540
X197876Y-73640
X197876Y-88880
X200406Y-53340
X200406Y-68580
X200406Y-93980
X200406Y-109220
X200406Y-114300
X200406Y-129540
X200416Y-73640
X200416Y-88880
X202946Y-53340
X202946Y-68580
X202946Y-93980
X202946Y-109220
X202946Y-114300
X202946Y-129540
X202956Y-73640
X202956Y-88880
X205486Y-53340
X205486Y-68580
X205486Y-93980
X205486Y-109220
X205486Y-114300
X205486Y-129540
X205496Y-73640
X205496Y-88880
X208026Y-53340
X208026Y-68580
X208026Y-93980
X208026Y-109220
X208026Y-114300
X208026Y-129540
X208036Y-73640
X208036Y-88880
X210566Y-53340
X210566Y-68580
X210566Y-93980
X210566Y-109220
X210566Y-114300
X210566Y-129540
X210576Y-73640
X210576Y-88880
X213106Y-53340
X213106Y-68580
X213106Y-93980
X213106Y-109220
X213106Y-114300
X213106Y-129540
X213116Y-73640
X213116Y-88880
X215646Y-53340
X215646Y-68580
X215646Y-93980
X215646Y-109220
X215646Y-114300
X215646Y-129540
X215656Y-73640
X215656Y-88880
X218186Y-53340
X218186Y-68580
X218186Y-93980
X218186Y-109220
X218186Y-114300
X218186Y-129540
X218196Y-73640
X218196Y-88880
X220726Y-53340
X220726Y-68580
X220726Y-93980
X220726Y-109220
X220726Y-114300
X220726Y-129540
X220736Y-73640
X220736Y-88880
X223266Y-53340
X223266Y-68580
X223266Y-93980
X223266Y-109220
X223266Y-114300
X223266Y-129540
X223276Y-73640
X223276Y-88880
X225806Y-53340
X225806Y-68580
X225806Y-93980
X225806Y-109220
X225806Y-114300
X225806Y-129540
X225816Y-73640
X225816Y-88880
X228306Y-48768
X228346Y-53340
X228346Y-68580
X228346Y-93980
X228346Y-109220
X228346Y-114300
X228346Y-129540
X228356Y-73640
X228356Y-88880
X230886Y-53340
X230886Y-68580
X230886Y-93980
X230886Y-109220
X230886Y-114300
X230886Y-129540
X230896Y-73640
X230896Y-88880
X233306Y-48768
T4
X172593Y-123825
X172593Y-137795
X174498Y-127000
X174498Y-129540
X174498Y-132080
X174498Y-134620
X177038Y-127000
X177038Y-129540
X177038Y-132080
X177038Y-134620
X178943Y-123825
X178943Y-137795
X235966Y-53340
X235966Y-55880
X235966Y-58420
X235966Y-60960
X235966Y-63500
X235966Y-66040
X235966Y-68580
X235966Y-71120
X235966Y-73660
X235966Y-76200
X235966Y-78740
X235966Y-81280
X235966Y-83820
X235966Y-86360
X235966Y-88900
X235966Y-91440
X235966Y-93980
X235966Y-96520
X235966Y-99060
X235966Y-101600
X235966Y-104140
X235966Y-106680
X235966Y-109220
X235966Y-111760
X235966Y-114300
X235966Y-116840
X235966Y-119380
X235966Y-121920
X235966Y-124460
X235966Y-127000
X235966Y-129540
X235966Y-132080
X238506Y-53340
X238506Y-55880
X238506Y-58420
X238506Y-60960
X238506Y-63500
X238506Y-66040
X238506Y-68580
X238506Y-71120
X238506Y-73660
X238506Y-76200
X238506Y-78740
X238506Y-81280
X238506Y-83820
X238506Y-86360
X238506Y-88900
X238506Y-91440
X238506Y-93980
X238506Y-96520
X238506Y-99060
X238506Y-101600
X238506Y-104140
X238506Y-106680
X238506Y-109220
X238506Y-111760
X238506Y-114300
X238506Y-116840
X238506Y-119380
X238506Y-121920
X238506Y-124460
X238506Y-127000
X238506Y-129540
X238506Y-132080
T5
X191856Y-47498
X191856Y-50038
X191856Y-52578
M30
