%TF.GenerationSoftware,KiCad,Pcbnew,8.0.3+1*%
%TF.CreationDate,2024-07-14T18:41:45+02:00*%
%TF.ProjectId,QL_GST_Rom_board,514c5f47-5354-45f5-926f-6d5f626f6172,rev?*%
%TF.SameCoordinates,Original*%
%TF.FileFunction,Copper,L2,Bot*%
%TF.FilePolarity,Positive*%
%FSLAX46Y46*%
G04 Gerber Fmt 4.6, Leading zero omitted, Abs format (unit mm)*
G04 Created by KiCad (PCBNEW 8.0.3+1) date 2024-07-14 18:41:45*
%MOMM*%
%LPD*%
G01*
G04 APERTURE LIST*
G04 Aperture macros list*
%AMRoundRect*
0 Rectangle with rounded corners*
0 $1 Rounding radius*
0 $2 $3 $4 $5 $6 $7 $8 $9 X,Y pos of 4 corners*
0 Add a 4 corners polygon primitive as box body*
4,1,4,$2,$3,$4,$5,$6,$7,$8,$9,$2,$3,0*
0 Add four circle primitives for the rounded corners*
1,1,$1+$1,$2,$3*
1,1,$1+$1,$4,$5*
1,1,$1+$1,$6,$7*
1,1,$1+$1,$8,$9*
0 Add four rect primitives between the rounded corners*
20,1,$1+$1,$2,$3,$4,$5,0*
20,1,$1+$1,$4,$5,$6,$7,0*
20,1,$1+$1,$6,$7,$8,$9,0*
20,1,$1+$1,$8,$9,$2,$3,0*%
G04 Aperture macros list end*
%TA.AperFunction,NonConductor*%
%ADD10C,0.200000*%
%TD*%
%ADD11C,0.300000*%
%TA.AperFunction,NonConductor*%
%ADD12C,0.300000*%
%TD*%
%TA.AperFunction,ComponentPad*%
%ADD13R,1.600000X1.600000*%
%TD*%
%TA.AperFunction,ComponentPad*%
%ADD14C,1.600000*%
%TD*%
%TA.AperFunction,ComponentPad*%
%ADD15O,1.700000X1.700000*%
%TD*%
%TA.AperFunction,ComponentPad*%
%ADD16R,1.700000X1.700000*%
%TD*%
%TA.AperFunction,ComponentPad*%
%ADD17O,1.600000X1.600000*%
%TD*%
%TA.AperFunction,ComponentPad*%
%ADD18R,2.400000X1.600000*%
%TD*%
%TA.AperFunction,ComponentPad*%
%ADD19O,2.400000X1.600000*%
%TD*%
%TA.AperFunction,ComponentPad*%
%ADD20RoundRect,0.249999X0.525001X-0.525001X0.525001X0.525001X-0.525001X0.525001X-0.525001X-0.525001X0*%
%TD*%
%TA.AperFunction,ComponentPad*%
%ADD21C,1.550000*%
%TD*%
%TA.AperFunction,ComponentPad*%
%ADD22R,2.000000X1.905000*%
%TD*%
%TA.AperFunction,ComponentPad*%
%ADD23O,2.000000X1.905000*%
%TD*%
%TA.AperFunction,ComponentPad*%
%ADD24R,1.050000X1.500000*%
%TD*%
%TA.AperFunction,ComponentPad*%
%ADD25O,1.050000X1.500000*%
%TD*%
%TA.AperFunction,ViaPad*%
%ADD26C,0.800000*%
%TD*%
%TA.AperFunction,Conductor*%
%ADD27C,0.250000*%
%TD*%
%TA.AperFunction,Conductor*%
%ADD28C,0.635000*%
%TD*%
%ADD29C,0.350000*%
G04 APERTURE END LIST*
D10*
X173990000Y-61976000D02*
X175514000Y-59436000D01*
X173990000Y-57404000D02*
X175514000Y-57404000D01*
X178562000Y-61976000D02*
X176530000Y-61976000D01*
X174498000Y-59436000D02*
X173990000Y-60452000D01*
X176530000Y-57404000D02*
X178562000Y-57404000D01*
X177038000Y-59436000D02*
X178562000Y-61976000D01*
X173990000Y-58420000D02*
X174498000Y-59436000D01*
X175514000Y-59436000D02*
X173990000Y-57404000D01*
X175514000Y-61976000D02*
X173990000Y-61976000D01*
X178562000Y-57404000D02*
X177038000Y-59436000D01*
D11*
D12*
X226826939Y-137565234D02*
X226445987Y-137565234D01*
X226445987Y-137565234D02*
X226255510Y-137481901D01*
X226255510Y-137481901D02*
X226160272Y-137398567D01*
X226160272Y-137398567D02*
X225969796Y-137148567D01*
X225969796Y-137148567D02*
X225874558Y-136815234D01*
X225874558Y-136815234D02*
X225874558Y-136148567D01*
X225874558Y-136148567D02*
X225969796Y-135981901D01*
X225969796Y-135981901D02*
X226065034Y-135898567D01*
X226065034Y-135898567D02*
X226255510Y-135815234D01*
X226255510Y-135815234D02*
X226636463Y-135815234D01*
X226636463Y-135815234D02*
X226826939Y-135898567D01*
X226826939Y-135898567D02*
X226922177Y-135981901D01*
X226922177Y-135981901D02*
X227017415Y-136148567D01*
X227017415Y-136148567D02*
X227017415Y-136565234D01*
X227017415Y-136565234D02*
X226922177Y-136731901D01*
X226922177Y-136731901D02*
X226826939Y-136815234D01*
X226826939Y-136815234D02*
X226636463Y-136898567D01*
X226636463Y-136898567D02*
X226255510Y-136898567D01*
X226255510Y-136898567D02*
X226065034Y-136815234D01*
X226065034Y-136815234D02*
X225969796Y-136731901D01*
X225969796Y-136731901D02*
X225874558Y-136565234D01*
X224922177Y-137565234D02*
X224541225Y-137565234D01*
X224541225Y-137565234D02*
X224350748Y-137481901D01*
X224350748Y-137481901D02*
X224255510Y-137398567D01*
X224255510Y-137398567D02*
X224065034Y-137148567D01*
X224065034Y-137148567D02*
X223969796Y-136815234D01*
X223969796Y-136815234D02*
X223969796Y-136148567D01*
X223969796Y-136148567D02*
X224065034Y-135981901D01*
X224065034Y-135981901D02*
X224160272Y-135898567D01*
X224160272Y-135898567D02*
X224350748Y-135815234D01*
X224350748Y-135815234D02*
X224731701Y-135815234D01*
X224731701Y-135815234D02*
X224922177Y-135898567D01*
X224922177Y-135898567D02*
X225017415Y-135981901D01*
X225017415Y-135981901D02*
X225112653Y-136148567D01*
X225112653Y-136148567D02*
X225112653Y-136565234D01*
X225112653Y-136565234D02*
X225017415Y-136731901D01*
X225017415Y-136731901D02*
X224922177Y-136815234D01*
X224922177Y-136815234D02*
X224731701Y-136898567D01*
X224731701Y-136898567D02*
X224350748Y-136898567D01*
X224350748Y-136898567D02*
X224160272Y-136815234D01*
X224160272Y-136815234D02*
X224065034Y-136731901D01*
X224065034Y-136731901D02*
X223969796Y-136565234D01*
X223017415Y-137565234D02*
X222636463Y-137565234D01*
X222636463Y-137565234D02*
X222445986Y-137481901D01*
X222445986Y-137481901D02*
X222350748Y-137398567D01*
X222350748Y-137398567D02*
X222160272Y-137148567D01*
X222160272Y-137148567D02*
X222065034Y-136815234D01*
X222065034Y-136815234D02*
X222065034Y-136148567D01*
X222065034Y-136148567D02*
X222160272Y-135981901D01*
X222160272Y-135981901D02*
X222255510Y-135898567D01*
X222255510Y-135898567D02*
X222445986Y-135815234D01*
X222445986Y-135815234D02*
X222826939Y-135815234D01*
X222826939Y-135815234D02*
X223017415Y-135898567D01*
X223017415Y-135898567D02*
X223112653Y-135981901D01*
X223112653Y-135981901D02*
X223207891Y-136148567D01*
X223207891Y-136148567D02*
X223207891Y-136565234D01*
X223207891Y-136565234D02*
X223112653Y-136731901D01*
X223112653Y-136731901D02*
X223017415Y-136815234D01*
X223017415Y-136815234D02*
X222826939Y-136898567D01*
X222826939Y-136898567D02*
X222445986Y-136898567D01*
X222445986Y-136898567D02*
X222255510Y-136815234D01*
X222255510Y-136815234D02*
X222160272Y-136731901D01*
X222160272Y-136731901D02*
X222065034Y-136565234D01*
X221303129Y-135981901D02*
X221207891Y-135898567D01*
X221207891Y-135898567D02*
X221017415Y-135815234D01*
X221017415Y-135815234D02*
X220541224Y-135815234D01*
X220541224Y-135815234D02*
X220350748Y-135898567D01*
X220350748Y-135898567D02*
X220255510Y-135981901D01*
X220255510Y-135981901D02*
X220160272Y-136148567D01*
X220160272Y-136148567D02*
X220160272Y-136315234D01*
X220160272Y-136315234D02*
X220255510Y-136565234D01*
X220255510Y-136565234D02*
X221398367Y-137565234D01*
X221398367Y-137565234D02*
X220160272Y-137565234D01*
X219303129Y-136898567D02*
X217779320Y-136898567D01*
X215969796Y-136398567D02*
X215969796Y-137565234D01*
X216445987Y-135731901D02*
X216922177Y-136981901D01*
X216922177Y-136981901D02*
X215684082Y-136981901D01*
X213493606Y-135731901D02*
X215207891Y-137981901D01*
X211779320Y-137565234D02*
X212922177Y-137565234D01*
X212350749Y-137565234D02*
X212350749Y-135815234D01*
X212350749Y-135815234D02*
X212541225Y-136065234D01*
X212541225Y-136065234D02*
X212731701Y-136231901D01*
X212731701Y-136231901D02*
X212922177Y-136315234D01*
D13*
%TO.P,C2,1*%
%TO.N,+9V*%
X233306000Y-48768000D03*
D14*
%TO.P,C2,2*%
%TO.N,GND*%
X228306000Y-48768000D03*
%TD*%
D15*
%TO.P,SW1,0*%
%TO.N,N/C*%
X172593000Y-123825000D03*
X172593000Y-137795000D03*
X178943000Y-123825000D03*
X178943000Y-137795000D03*
D16*
%TO.P,SW1,1,1*%
%TO.N,VCC*%
X177038000Y-127000000D03*
D15*
%TO.P,SW1,2,2*%
%TO.N,Net-(U8B-Q)*%
X177038000Y-129540000D03*
%TO.P,SW1,3,3*%
%TO.N,Net-(U8A-D)*%
X177038000Y-132080000D03*
%TO.P,SW1,4,4*%
%TO.N,GND*%
X177038000Y-134620000D03*
%TO.P,SW1,5,5*%
%TO.N,VCC*%
X174498000Y-127000000D03*
%TO.P,SW1,6,6*%
%TO.N,unconnected-(SW1-Pad6)*%
X174498000Y-129540000D03*
%TO.P,SW1,7,7*%
%TO.N,unconnected-(SW1-Pad7)*%
X174498000Y-132080000D03*
%TO.P,SW1,8,8*%
%TO.N,GND*%
X174498000Y-134620000D03*
%TD*%
D14*
%TO.P,R1,1*%
%TO.N,VCC*%
X180594000Y-86995000D03*
D17*
%TO.P,R1,2*%
%TO.N,/ROM_OE*%
X180594000Y-94615000D03*
%TD*%
D13*
%TO.P,U3,1,VPP*%
%TO.N,VCC*%
X197866000Y-109220000D03*
D17*
%TO.P,U3,2,A12*%
%TO.N,/A12*%
X200406000Y-109220000D03*
%TO.P,U3,3,A7*%
%TO.N,/A7*%
X202946000Y-109220000D03*
%TO.P,U3,4,A6*%
%TO.N,/A6*%
X205486000Y-109220000D03*
%TO.P,U3,5,A5*%
%TO.N,/A5*%
X208026000Y-109220000D03*
%TO.P,U3,6,A4*%
%TO.N,/A4*%
X210566000Y-109220000D03*
%TO.P,U3,7,A3*%
%TO.N,/A3*%
X213106000Y-109220000D03*
%TO.P,U3,8,A2*%
%TO.N,/A2*%
X215646000Y-109220000D03*
%TO.P,U3,9,A1*%
%TO.N,/A1*%
X218186000Y-109220000D03*
%TO.P,U3,10,A0*%
%TO.N,/A0*%
X220726000Y-109220000D03*
%TO.P,U3,11,D0*%
%TO.N,/D0*%
X223266000Y-109220000D03*
%TO.P,U3,12,D1*%
%TO.N,/D1*%
X225806000Y-109220000D03*
%TO.P,U3,13,D2*%
%TO.N,/D2*%
X228346000Y-109220000D03*
%TO.P,U3,14,GND*%
%TO.N,GND*%
X230886000Y-109220000D03*
%TO.P,U3,15,D3*%
%TO.N,/D3*%
X230886000Y-93980000D03*
%TO.P,U3,16,D4*%
%TO.N,/D4*%
X228346000Y-93980000D03*
%TO.P,U3,17,D5*%
%TO.N,/D5*%
X225806000Y-93980000D03*
%TO.P,U3,18,D6*%
%TO.N,/D6*%
X223266000Y-93980000D03*
%TO.P,U3,19,D7*%
%TO.N,/D7*%
X220726000Y-93980000D03*
%TO.P,U3,20,~{CE}*%
%TO.N,/ROM_CE3*%
X218186000Y-93980000D03*
%TO.P,U3,21,A10*%
%TO.N,/A10*%
X215646000Y-93980000D03*
%TO.P,U3,22,~{OE}*%
%TO.N,/ROM_OE*%
X213106000Y-93980000D03*
%TO.P,U3,23,A11*%
%TO.N,/A11*%
X210566000Y-93980000D03*
%TO.P,U3,24,A9*%
%TO.N,/A9*%
X208026000Y-93980000D03*
%TO.P,U3,25,A8*%
%TO.N,/A8*%
X205486000Y-93980000D03*
%TO.P,U3,26,A13*%
%TO.N,/A13*%
X202946000Y-93980000D03*
%TO.P,U3,27,~{PGM}*%
%TO.N,VCC*%
X200406000Y-93980000D03*
%TO.P,U3,28,VCC*%
X197866000Y-93980000D03*
%TD*%
D13*
%TO.P,U1,1,VPP*%
%TO.N,VCC*%
X197866000Y-68580000D03*
D17*
%TO.P,U1,2,A12*%
%TO.N,/A12*%
X200406000Y-68580000D03*
%TO.P,U1,3,A7*%
%TO.N,/A7*%
X202946000Y-68580000D03*
%TO.P,U1,4,A6*%
%TO.N,/A6*%
X205486000Y-68580000D03*
%TO.P,U1,5,A5*%
%TO.N,/A5*%
X208026000Y-68580000D03*
%TO.P,U1,6,A4*%
%TO.N,/A4*%
X210566000Y-68580000D03*
%TO.P,U1,7,A3*%
%TO.N,/A3*%
X213106000Y-68580000D03*
%TO.P,U1,8,A2*%
%TO.N,/A2*%
X215646000Y-68580000D03*
%TO.P,U1,9,A1*%
%TO.N,/A1*%
X218186000Y-68580000D03*
%TO.P,U1,10,A0*%
%TO.N,/A0*%
X220726000Y-68580000D03*
%TO.P,U1,11,D0*%
%TO.N,/D0*%
X223266000Y-68580000D03*
%TO.P,U1,12,D1*%
%TO.N,/D1*%
X225806000Y-68580000D03*
%TO.P,U1,13,D2*%
%TO.N,/D2*%
X228346000Y-68580000D03*
%TO.P,U1,14,GND*%
%TO.N,GND*%
X230886000Y-68580000D03*
%TO.P,U1,15,D3*%
%TO.N,/D3*%
X230886000Y-53340000D03*
%TO.P,U1,16,D4*%
%TO.N,/D4*%
X228346000Y-53340000D03*
%TO.P,U1,17,D5*%
%TO.N,/D5*%
X225806000Y-53340000D03*
%TO.P,U1,18,D6*%
%TO.N,/D6*%
X223266000Y-53340000D03*
%TO.P,U1,19,D7*%
%TO.N,/D7*%
X220726000Y-53340000D03*
%TO.P,U1,20,~{CE}*%
%TO.N,/ROM_CE1*%
X218186000Y-53340000D03*
%TO.P,U1,21,A10*%
%TO.N,/A10*%
X215646000Y-53340000D03*
%TO.P,U1,22,~{OE}*%
%TO.N,/ROM_OE*%
X213106000Y-53340000D03*
%TO.P,U1,23,A11*%
%TO.N,/A11*%
X210566000Y-53340000D03*
%TO.P,U1,24,A9*%
%TO.N,/A9*%
X208026000Y-53340000D03*
%TO.P,U1,25,A8*%
%TO.N,/A8*%
X205486000Y-53340000D03*
%TO.P,U1,26,A13*%
%TO.N,/A13*%
X202946000Y-53340000D03*
%TO.P,U1,27,~{PGM}*%
%TO.N,VCC*%
X200406000Y-53340000D03*
%TO.P,U1,28,VCC*%
X197866000Y-53340000D03*
%TD*%
D14*
%TO.P,R2,1*%
%TO.N,VCC*%
X181102000Y-119380000D03*
D17*
%TO.P,R2,2*%
%TO.N,Net-(R2-Pad2)*%
X181102000Y-111760000D03*
%TD*%
D13*
%TO.P,U2,1,VPP*%
%TO.N,VCC*%
X197876000Y-88880000D03*
D17*
%TO.P,U2,2,A12*%
%TO.N,/A12*%
X200416000Y-88880000D03*
%TO.P,U2,3,A7*%
%TO.N,/A7*%
X202956000Y-88880000D03*
%TO.P,U2,4,A6*%
%TO.N,/A6*%
X205496000Y-88880000D03*
%TO.P,U2,5,A5*%
%TO.N,/A5*%
X208036000Y-88880000D03*
%TO.P,U2,6,A4*%
%TO.N,/A4*%
X210576000Y-88880000D03*
%TO.P,U2,7,A3*%
%TO.N,/A3*%
X213116000Y-88880000D03*
%TO.P,U2,8,A2*%
%TO.N,/A2*%
X215656000Y-88880000D03*
%TO.P,U2,9,A1*%
%TO.N,/A1*%
X218196000Y-88880000D03*
%TO.P,U2,10,A0*%
%TO.N,/A0*%
X220736000Y-88880000D03*
%TO.P,U2,11,D0*%
%TO.N,/D0*%
X223276000Y-88880000D03*
%TO.P,U2,12,D1*%
%TO.N,/D1*%
X225816000Y-88880000D03*
%TO.P,U2,13,D2*%
%TO.N,/D2*%
X228356000Y-88880000D03*
%TO.P,U2,14,GND*%
%TO.N,GND*%
X230896000Y-88880000D03*
%TO.P,U2,15,D3*%
%TO.N,/D3*%
X230896000Y-73640000D03*
%TO.P,U2,16,D4*%
%TO.N,/D4*%
X228356000Y-73640000D03*
%TO.P,U2,17,D5*%
%TO.N,/D5*%
X225816000Y-73640000D03*
%TO.P,U2,18,D6*%
%TO.N,/D6*%
X223276000Y-73640000D03*
%TO.P,U2,19,D7*%
%TO.N,/D7*%
X220736000Y-73640000D03*
%TO.P,U2,20,~{CE}*%
%TO.N,/ROM_CE2*%
X218196000Y-73640000D03*
%TO.P,U2,21,A10*%
%TO.N,/A10*%
X215656000Y-73640000D03*
%TO.P,U2,22,~{OE}*%
%TO.N,/ROM_OE*%
X213116000Y-73640000D03*
%TO.P,U2,23,A11*%
%TO.N,/A11*%
X210576000Y-73640000D03*
%TO.P,U2,24,A9*%
%TO.N,/A9*%
X208036000Y-73640000D03*
%TO.P,U2,25,A8*%
%TO.N,/A8*%
X205496000Y-73640000D03*
%TO.P,U2,26,A13*%
%TO.N,/A13*%
X202956000Y-73640000D03*
%TO.P,U2,27,~{PGM}*%
%TO.N,VCC*%
X200416000Y-73640000D03*
%TO.P,U2,28,VCC*%
X197876000Y-73640000D03*
%TD*%
D18*
%TO.P,U7,1*%
%TO.N,/A16*%
X183896000Y-102235000D03*
D19*
%TO.P,U7,2*%
X183896000Y-104775000D03*
%TO.P,U7,3*%
%TO.N,Net-(R2-Pad2)*%
X183896000Y-107315000D03*
%TO.P,U7,4*%
%TO.N,/RW*%
X183896000Y-109855000D03*
%TO.P,U7,5*%
%TO.N,Net-(U8A-Q)*%
X183896000Y-112395000D03*
%TO.P,U7,6*%
%TO.N,Net-(Q1-B)*%
X183896000Y-114935000D03*
%TO.P,U7,7,GND*%
%TO.N,GND*%
X183896000Y-117475000D03*
%TO.P,U7,8*%
%TO.N,Net-(U6-Pad10)*%
X191516000Y-117475000D03*
%TO.P,U7,9*%
%TO.N,/AS*%
X191516000Y-114935000D03*
%TO.P,U7,10*%
%TO.N,/DS*%
X191516000Y-112395000D03*
%TO.P,U7,11*%
%TO.N,/A19*%
X191516000Y-109855000D03*
%TO.P,U7,12*%
%TO.N,Net-(U6-Pad9)*%
X191516000Y-107315000D03*
%TO.P,U7,13*%
%TO.N,/A17*%
X191516000Y-104775000D03*
%TO.P,U7,14,VCC*%
%TO.N,VCC*%
X191516000Y-102235000D03*
%TD*%
D20*
%TO.P,J1,a1,GND*%
%TO.N,GND*%
X238506000Y-132080000D03*
D21*
%TO.P,J1,a2,D3*%
%TO.N,/D3*%
X238506000Y-129540000D03*
%TO.P,J1,a3,D4*%
%TO.N,/D4*%
X238506000Y-127000000D03*
%TO.P,J1,a4,D5*%
%TO.N,/D5*%
X238506000Y-124460000D03*
%TO.P,J1,a5,D6*%
%TO.N,/D6*%
X238506000Y-121920000D03*
%TO.P,J1,a6,D7*%
%TO.N,/D7*%
X238506000Y-119380000D03*
%TO.P,J1,a7,A19*%
%TO.N,/A19*%
X238506000Y-116840000D03*
%TO.P,J1,a8,A18*%
%TO.N,/A18*%
X238506000Y-114300000D03*
%TO.P,J1,a9,A17*%
%TO.N,/A17*%
X238506000Y-111760000D03*
%TO.P,J1,a10,A16*%
%TO.N,/A16*%
X238506000Y-109220000D03*
%TO.P,J1,a11,CLKCPU*%
%TO.N,/CLKCPU*%
X238506000Y-106680000D03*
%TO.P,J1,a12,RED*%
%TO.N,unconnected-(J1-RED-Pada12)*%
X238506000Y-104140000D03*
%TO.P,J1,a13,A14*%
%TO.N,/A14*%
X238506000Y-101600000D03*
%TO.P,J1,a14,A13*%
%TO.N,/A13*%
X238506000Y-99060000D03*
%TO.P,J1,a15,A12*%
%TO.N,/A12*%
X238506000Y-96520000D03*
%TO.P,J1,a16,A11*%
%TO.N,/A11*%
X238506000Y-93980000D03*
%TO.P,J1,a17,A10*%
%TO.N,/A10*%
X238506000Y-91440000D03*
%TO.P,J1,a18,A9*%
%TO.N,/A9*%
X238506000Y-88900000D03*
%TO.P,J1,a19,A8*%
%TO.N,/A8*%
X238506000Y-86360000D03*
%TO.P,J1,a20,A7*%
%TO.N,/A7*%
X238506000Y-83820000D03*
%TO.P,J1,a21,A6*%
%TO.N,/A6*%
X238506000Y-81280000D03*
%TO.P,J1,a22,A5*%
%TO.N,/A5*%
X238506000Y-78740000D03*
%TO.P,J1,a23,A4*%
%TO.N,/A4*%
X238506000Y-76200000D03*
%TO.P,J1,a24,A3*%
%TO.N,/A3*%
X238506000Y-73660000D03*
%TO.P,J1,a25,~{DBG}*%
%TO.N,unconnected-(J1-~{DBG}-Pada25)*%
X238506000Y-71120000D03*
%TO.P,J1,a26,SP2*%
%TO.N,/O_SP2*%
X238506000Y-68580000D03*
%TO.P,J1,a27,~{DSMC}*%
%TO.N,/DSMC*%
X238506000Y-66040000D03*
%TO.P,J1,a28,SP1*%
%TO.N,/O_SP1*%
X238506000Y-63500000D03*
%TO.P,J1,a29,SP0*%
%TO.N,/O_SP0*%
X238506000Y-60960000D03*
%TO.P,J1,a30,+12V*%
%TO.N,unconnected-(J1-+12V-Pada30)*%
X238506000Y-58420000D03*
%TO.P,J1,a31,-12V*%
%TO.N,unconnected-(J1--12V-Pada31)*%
X238506000Y-55880000D03*
%TO.P,J1,a32,Vin*%
%TO.N,+9V*%
X238506000Y-53340000D03*
%TO.P,J1,b1,GND*%
%TO.N,GND*%
X235966000Y-132080000D03*
%TO.P,J1,b2,D2*%
%TO.N,/D2*%
X235966000Y-129540000D03*
%TO.P,J1,b3,D1*%
%TO.N,/D1*%
X235966000Y-127000000D03*
%TO.P,J1,b4,D0*%
%TO.N,/D0*%
X235966000Y-124460000D03*
%TO.P,J1,b5,~{AS}*%
%TO.N,/AS*%
X235966000Y-121920000D03*
%TO.P,J1,b6,~{DS}*%
%TO.N,/DS*%
X235966000Y-119380000D03*
%TO.P,J1,b7,~{DRW}*%
%TO.N,/RW*%
X235966000Y-116840000D03*
%TO.P,J1,b8,~{DTACK}*%
%TO.N,/DTACKL*%
X235966000Y-114300000D03*
%TO.P,J1,b9,~{BG}*%
%TO.N,unconnected-(J1-~{BG}-Padb9)*%
X235966000Y-111760000D03*
%TO.P,J1,b10,~{BR}*%
%TO.N,unconnected-(J1-~{BR}-Padb10)*%
X235966000Y-109220000D03*
%TO.P,J1,b11,A15*%
%TO.N,/A15*%
X235966000Y-106680000D03*
%TO.P,J1,b12,~{RESETCPU}*%
%TO.N,/RESET*%
X235966000Y-104140000D03*
%TO.P,J1,b13,~{CSYNC}*%
%TO.N,unconnected-(J1-~{CSYNC}-Padb13)*%
X235966000Y-101600000D03*
%TO.P,J1,b14,E*%
%TO.N,/E*%
X235966000Y-99060000D03*
%TO.P,J1,b15,VSYNCH*%
%TO.N,unconnected-(J1-VSYNCH-Padb15)*%
X235966000Y-96520000D03*
%TO.P,J1,b16,~{VPA}*%
%TO.N,/VPA*%
X235966000Y-93980000D03*
%TO.P,J1,b17,GREEN*%
%TO.N,unconnected-(J1-GREEN-Padb17)*%
X235966000Y-91440000D03*
%TO.P,J1,b18,BLUE*%
%TO.N,unconnected-(J1-BLUE-Padb18)*%
X235966000Y-88900000D03*
%TO.P,J1,b19,FC2*%
%TO.N,unconnected-(J1-FC2-Padb19)*%
X235966000Y-86360000D03*
%TO.P,J1,b20,FC1*%
%TO.N,unconnected-(J1-FC1-Padb20)*%
X235966000Y-83820000D03*
%TO.P,J1,b21,FC0*%
%TO.N,unconnected-(J1-FC0-Padb21)*%
X235966000Y-81280000D03*
%TO.P,J1,b22,A0*%
%TO.N,/A0*%
X235966000Y-78740000D03*
%TO.P,J1,b23,ROMOEH*%
%TO.N,unconnected-(J1-ROMOEH-Padb23)*%
X235966000Y-76200000D03*
%TO.P,J1,b24,A1*%
%TO.N,/A1*%
X235966000Y-73660000D03*
%TO.P,J1,b25,A2*%
%TO.N,/A2*%
X235966000Y-71120000D03*
%TO.P,J1,b26,SP3*%
%TO.N,/O_SP3*%
X235966000Y-68580000D03*
%TO.P,J1,b27,~{IPLO}*%
%TO.N,unconnected-(J1-~{IPLO}-Padb27)*%
X235966000Y-66040000D03*
%TO.P,J1,b28,~{BERR}*%
%TO.N,unconnected-(J1-~{BERR}-Padb28)*%
X235966000Y-63500000D03*
%TO.P,J1,b29,~{IPL1}*%
%TO.N,unconnected-(J1-~{IPL1}-Padb29)*%
X235966000Y-60960000D03*
%TO.P,J1,b30,~{EXTINT}*%
%TO.N,unconnected-(J1-~{EXTINT}-Padb30)*%
X235966000Y-58420000D03*
%TO.P,J1,b31,Vin*%
%TO.N,+9V*%
X235966000Y-55880000D03*
%TO.P,J1,b32,Vin*%
X235966000Y-53340000D03*
%TD*%
D22*
%TO.P,U9,1,IN*%
%TO.N,+9V*%
X191856000Y-52578000D03*
D23*
%TO.P,U9,2,GND*%
%TO.N,GND*%
X191856000Y-50038000D03*
%TO.P,U9,3,OUT*%
%TO.N,VCC*%
X191856000Y-47498000D03*
%TD*%
D18*
%TO.P,U6,1*%
%TO.N,VCC*%
X183896000Y-81915000D03*
D19*
%TO.P,U6,2*%
%TO.N,unconnected-(U6-Pad2)*%
X183896000Y-84455000D03*
%TO.P,U6,3*%
%TO.N,Net-(Q1-B)*%
X183896000Y-86995000D03*
%TO.P,U6,4*%
X183896000Y-89535000D03*
%TO.P,U6,5*%
X183896000Y-92075000D03*
%TO.P,U6,6*%
%TO.N,/ROM_OE*%
X183896000Y-94615000D03*
%TO.P,U6,7,GND*%
%TO.N,GND*%
X183896000Y-97155000D03*
%TO.P,U6,8*%
%TO.N,Net-(R2-Pad2)*%
X191516000Y-97155000D03*
%TO.P,U6,9*%
%TO.N,Net-(U6-Pad9)*%
X191516000Y-94615000D03*
%TO.P,U6,10*%
%TO.N,Net-(U6-Pad10)*%
X191516000Y-92075000D03*
%TO.P,U6,11*%
%TO.N,/A18*%
X191516000Y-89535000D03*
%TO.P,U6,12*%
%TO.N,/DTACKL*%
X191516000Y-86995000D03*
%TO.P,U6,13*%
%TO.N,unconnected-(U6-Pad13)*%
X191516000Y-84455000D03*
%TO.P,U6,14,VCC*%
%TO.N,VCC*%
X191516000Y-81915000D03*
%TD*%
D13*
%TO.P,U4,1,VPP*%
%TO.N,VCC*%
X197866000Y-129540000D03*
D17*
%TO.P,U4,2,A12*%
%TO.N,/A12*%
X200406000Y-129540000D03*
%TO.P,U4,3,A7*%
%TO.N,/A7*%
X202946000Y-129540000D03*
%TO.P,U4,4,A6*%
%TO.N,/A6*%
X205486000Y-129540000D03*
%TO.P,U4,5,A5*%
%TO.N,/A5*%
X208026000Y-129540000D03*
%TO.P,U4,6,A4*%
%TO.N,/A4*%
X210566000Y-129540000D03*
%TO.P,U4,7,A3*%
%TO.N,/A3*%
X213106000Y-129540000D03*
%TO.P,U4,8,A2*%
%TO.N,/A2*%
X215646000Y-129540000D03*
%TO.P,U4,9,A1*%
%TO.N,/A1*%
X218186000Y-129540000D03*
%TO.P,U4,10,A0*%
%TO.N,/A0*%
X220726000Y-129540000D03*
%TO.P,U4,11,D0*%
%TO.N,/D0*%
X223266000Y-129540000D03*
%TO.P,U4,12,D1*%
%TO.N,/D1*%
X225806000Y-129540000D03*
%TO.P,U4,13,D2*%
%TO.N,/D2*%
X228346000Y-129540000D03*
%TO.P,U4,14,GND*%
%TO.N,GND*%
X230886000Y-129540000D03*
%TO.P,U4,15,D3*%
%TO.N,/D3*%
X230886000Y-114300000D03*
%TO.P,U4,16,D4*%
%TO.N,/D4*%
X228346000Y-114300000D03*
%TO.P,U4,17,D5*%
%TO.N,/D5*%
X225806000Y-114300000D03*
%TO.P,U4,18,D6*%
%TO.N,/D6*%
X223266000Y-114300000D03*
%TO.P,U4,19,D7*%
%TO.N,/D7*%
X220726000Y-114300000D03*
%TO.P,U4,20,~{CE}*%
%TO.N,/ROM_CE4*%
X218186000Y-114300000D03*
%TO.P,U4,21,A10*%
%TO.N,/A10*%
X215646000Y-114300000D03*
%TO.P,U4,22,~{OE}*%
%TO.N,/ROM_OE*%
X213106000Y-114300000D03*
%TO.P,U4,23,A11*%
%TO.N,/A11*%
X210566000Y-114300000D03*
%TO.P,U4,24,A9*%
%TO.N,/A9*%
X208026000Y-114300000D03*
%TO.P,U4,25,A8*%
%TO.N,/A8*%
X205486000Y-114300000D03*
%TO.P,U4,26,A13*%
%TO.N,/A13*%
X202946000Y-114300000D03*
%TO.P,U4,27,~{PGM}*%
%TO.N,VCC*%
X200406000Y-114300000D03*
%TO.P,U4,28,VCC*%
X197866000Y-114300000D03*
%TD*%
D24*
%TO.P,Q1,1,E*%
%TO.N,/DSMC*%
X206502000Y-49530000D03*
D25*
%TO.P,Q1,2,B*%
%TO.N,Net-(Q1-B)*%
X205232000Y-49530000D03*
%TO.P,Q1,3,C*%
%TO.N,VCC*%
X203962000Y-49530000D03*
%TD*%
D14*
%TO.P,C3,1*%
%TO.N,VCC*%
X195286000Y-99568000D03*
%TO.P,C3,2*%
%TO.N,GND*%
X190286000Y-99568000D03*
%TD*%
D18*
%TO.P,U8,1,~{R}*%
%TO.N,VCC*%
X183896000Y-121920000D03*
D19*
%TO.P,U8,2,D*%
%TO.N,Net-(U8A-D)*%
X183896000Y-124460000D03*
%TO.P,U8,3,C*%
%TO.N,/A14*%
X183896000Y-127000000D03*
%TO.P,U8,4,~{S}*%
%TO.N,VCC*%
X183896000Y-129540000D03*
%TO.P,U8,5,Q*%
%TO.N,Net-(U8A-Q)*%
X183896000Y-132080000D03*
%TO.P,U8,6,~{Q}*%
%TO.N,unconnected-(U8A-~{Q}-Pad6)*%
X183896000Y-134620000D03*
%TO.P,U8,7,GND*%
%TO.N,GND*%
X183896000Y-137160000D03*
%TO.P,U8,8,~{Q}*%
%TO.N,Net-(U8B-D)*%
X191516000Y-137160000D03*
%TO.P,U8,9,Q*%
%TO.N,Net-(U8B-Q)*%
X191516000Y-134620000D03*
%TO.P,U8,10,~{S}*%
%TO.N,VCC*%
X191516000Y-132080000D03*
%TO.P,U8,11,C*%
%TO.N,/RESET*%
X191516000Y-129540000D03*
%TO.P,U8,12,D*%
%TO.N,Net-(U8B-D)*%
X191516000Y-127000000D03*
%TO.P,U8,13,~{R}*%
%TO.N,VCC*%
X191516000Y-124460000D03*
%TO.P,U8,14,VCC*%
X191516000Y-121920000D03*
%TD*%
D14*
%TO.P,C1,1*%
%TO.N,VCC*%
X196850000Y-133176000D03*
%TO.P,C1,2*%
%TO.N,GND*%
X196850000Y-138176000D03*
%TD*%
D18*
%TO.P,U5,1,E*%
%TO.N,VCC*%
X183642000Y-59055000D03*
D19*
%TO.P,U5,2,A0*%
%TO.N,unconnected-(U5A-A0-Pad2)*%
X183642000Y-61595000D03*
%TO.P,U5,3,A1*%
%TO.N,unconnected-(U5A-A1-Pad3)*%
X183642000Y-64135000D03*
%TO.P,U5,4,O0*%
%TO.N,unconnected-(U5A-O0-Pad4)*%
X183642000Y-66675000D03*
%TO.P,U5,5,O1*%
%TO.N,unconnected-(U5A-O1-Pad5)*%
X183642000Y-69215000D03*
%TO.P,U5,6,O2*%
%TO.N,unconnected-(U5A-O2-Pad6)*%
X183642000Y-71755000D03*
%TO.P,U5,7,O3*%
%TO.N,unconnected-(U5A-O3-Pad7)*%
X183642000Y-74295000D03*
%TO.P,U5,8,GND*%
%TO.N,GND*%
X183642000Y-76835000D03*
%TO.P,U5,9,O3*%
%TO.N,/ROM_CE4*%
X191262000Y-76835000D03*
%TO.P,U5,10,O2*%
%TO.N,/ROM_CE3*%
X191262000Y-74295000D03*
%TO.P,U5,11,O1*%
%TO.N,/ROM_CE2*%
X191262000Y-71755000D03*
%TO.P,U5,12,O0*%
%TO.N,/ROM_CE1*%
X191262000Y-69215000D03*
%TO.P,U5,13,A1*%
%TO.N,/A15*%
X191262000Y-66675000D03*
%TO.P,U5,14,A0*%
%TO.N,/A14*%
X191262000Y-64135000D03*
%TO.P,U5,15,E*%
%TO.N,GND*%
X191262000Y-61595000D03*
%TO.P,U5,16,VCC*%
%TO.N,VCC*%
X191262000Y-59055000D03*
%TD*%
D14*
%TO.P,C4,1*%
%TO.N,VCC*%
X190166000Y-56388000D03*
%TO.P,C4,2*%
%TO.N,GND*%
X185166000Y-56388000D03*
%TD*%
D26*
%TO.N,/A4*%
X211836000Y-77470000D03*
%TO.N,/A5*%
X209296000Y-80010000D03*
%TO.N,/A6*%
X205979888Y-82550000D03*
%TO.N,/A7*%
X202946000Y-85090000D03*
%TO.N,/A12*%
X201676000Y-97790000D03*
%TO.N,/A13*%
X202946000Y-100330000D03*
%TO.N,/A14*%
X196596000Y-101600000D03*
X194691000Y-120650000D03*
%TO.N,/D7*%
X220726000Y-120650000D03*
%TO.N,/D6*%
X223266000Y-123190000D03*
%TO.N,/D5*%
X225806000Y-125730000D03*
X225806000Y-125730000D03*
%TO.N,/D4*%
X228346000Y-127000000D03*
%TO.N,/D3*%
X229616000Y-132080000D03*
%TO.N,/A1*%
X218821000Y-71755000D03*
%TO.N,/A0*%
X221996000Y-78740000D03*
%TO.N,/RESET*%
X196596000Y-120650000D03*
X196596000Y-104140000D03*
%TO.N,/ROM_CE2*%
X218376500Y-60960000D03*
%TO.N,/ROM_CE3*%
X218186000Y-78740000D03*
%TO.N,/ROM_OE*%
X211836000Y-86995000D03*
X196596000Y-90805000D03*
%TO.N,/ROM_CE4*%
X216916000Y-132080000D03*
X234696000Y-133350000D03*
X233426000Y-81280000D03*
%TO.N,/DTACKL*%
X196596000Y-86995000D03*
X199136000Y-112395000D03*
X199136000Y-86995000D03*
%TD*%
D27*
%TO.N,/DTACKL*%
X191516000Y-86995000D02*
X196596000Y-86995000D01*
%TO.N,/ROM_OE*%
X180721000Y-90805000D02*
X180594000Y-90932000D01*
X196596000Y-90805000D02*
X180721000Y-90805000D01*
X180594000Y-90932000D02*
X180594000Y-94432000D01*
D28*
%TO.N,+9V*%
X230901500Y-51172500D02*
X216653500Y-51172500D01*
X238506000Y-53340000D02*
X237236000Y-53340000D01*
X235966000Y-53340000D02*
X235966000Y-55880000D01*
X212217000Y-46736000D02*
X200406000Y-46736000D01*
X237236000Y-48768000D02*
X233306000Y-48768000D01*
X216653500Y-51172500D02*
X212217000Y-46736000D01*
X237236000Y-53340000D02*
X237236000Y-48768000D01*
X200406000Y-46736000D02*
X194564000Y-52578000D01*
X233306000Y-48768000D02*
X230901500Y-51172500D01*
X194564000Y-52578000D02*
X191856000Y-52578000D01*
X237236000Y-53340000D02*
X235966000Y-53340000D01*
%TO.N,GND*%
X169926000Y-53340000D02*
X181356000Y-53340000D01*
X220726000Y-44450000D02*
X243586000Y-44450000D01*
X218313000Y-44450000D02*
X218306000Y-48768000D01*
X195326000Y-48260000D02*
X193548000Y-50038000D01*
X183642000Y-140970000D02*
X175514000Y-140970000D01*
X233426000Y-109220000D02*
X230886000Y-109220000D01*
X195326000Y-44450000D02*
X220726000Y-44450000D01*
X233426000Y-88900000D02*
X233406000Y-88880000D01*
D27*
X230896000Y-86995000D02*
X232791000Y-75565000D01*
D28*
X193548000Y-50038000D02*
X191856000Y-50038000D01*
X174371000Y-111125000D02*
X169926000Y-111125000D01*
X177292000Y-114046000D02*
X174371000Y-111125000D01*
X191262000Y-61468000D02*
X187706000Y-61468000D01*
X195326000Y-48260000D02*
X195326000Y-44450000D01*
X233426000Y-129540000D02*
X233426000Y-109220000D01*
X175514000Y-134620000D02*
X174498000Y-134620000D01*
X183642000Y-97028000D02*
X169926000Y-97028000D01*
X233426000Y-129540000D02*
X230886000Y-129540000D01*
X196850000Y-140970000D02*
X183642000Y-140970000D01*
X183642000Y-76708000D02*
X169926000Y-76708000D01*
X169926000Y-76708000D02*
X169926000Y-53340000D01*
X243586000Y-140970000D02*
X233426000Y-140970000D01*
X243586000Y-132080000D02*
X243586000Y-140970000D01*
X169926000Y-140970000D02*
X169926000Y-117348000D01*
X177038000Y-134620000D02*
X175514000Y-134620000D01*
X169926000Y-117348000D02*
X169926000Y-111125000D01*
D27*
X232791000Y-75565000D02*
X232791000Y-68580000D01*
D28*
X183896000Y-50800000D02*
X185166000Y-52070000D01*
X183896000Y-44450000D02*
X183896000Y-50800000D01*
X169926000Y-97028000D02*
X169926000Y-76708000D01*
X235966000Y-132080000D02*
X242062000Y-132080000D01*
X183896000Y-137160000D02*
X183896000Y-140970000D01*
X169926000Y-111125000D02*
X169926000Y-97028000D01*
X177292000Y-117348000D02*
X177292000Y-114046000D01*
X196850000Y-138176000D02*
X196850000Y-140970000D01*
D27*
X230896000Y-88880000D02*
X230896000Y-86995000D01*
D28*
X233406000Y-88880000D02*
X230896000Y-88880000D01*
X185166000Y-52070000D02*
X185166000Y-56388000D01*
X243586000Y-44450000D02*
X243586000Y-132080000D01*
X233426000Y-140970000D02*
X233426000Y-129540000D01*
X175514000Y-134620000D02*
X175514000Y-140970000D01*
X175514000Y-140970000D02*
X169926000Y-140970000D01*
X233426000Y-140970000D02*
X196850000Y-140970000D01*
X181356000Y-53340000D02*
X183896000Y-50800000D01*
X233426000Y-109220000D02*
X233426000Y-88900000D01*
D27*
X232791000Y-68580000D02*
X230886000Y-68580000D01*
D28*
X187706000Y-76708000D02*
X183642000Y-76708000D01*
X183642000Y-117348000D02*
X177292000Y-117348000D01*
X195326000Y-44450000D02*
X183896000Y-44450000D01*
X187706000Y-61468000D02*
X187706000Y-76708000D01*
%TO.N,VCC*%
X191516000Y-81915000D02*
X197749000Y-81915000D01*
X181102000Y-124460000D02*
X178562000Y-127000000D01*
X197866000Y-68580000D02*
X197866000Y-69850000D01*
X190166000Y-56388000D02*
X197866000Y-56388000D01*
X197866000Y-114300000D02*
X200406000Y-114300000D01*
X183896000Y-81915000D02*
X181991000Y-81915000D01*
X180594000Y-83312000D02*
X180594000Y-86995000D01*
X197866000Y-99568000D02*
X197866000Y-109220000D01*
X197866000Y-132160000D02*
X196850000Y-133176000D01*
X186944000Y-121920000D02*
X186944000Y-130810000D01*
X190166000Y-56388000D02*
X190166000Y-57832000D01*
X191262000Y-121920000D02*
X186944000Y-121920000D01*
X197876000Y-69860000D02*
X197876000Y-73640000D01*
D27*
X203962000Y-49530000D02*
X202438000Y-49530000D01*
D28*
X197866000Y-69850000D02*
X197876000Y-69860000D01*
X191262000Y-102108000D02*
X192746000Y-102108000D01*
X197866000Y-114300000D02*
X197866000Y-121920000D01*
X197866000Y-53340000D02*
X200406000Y-53340000D01*
X190500000Y-47498000D02*
X191856000Y-47498000D01*
X197866000Y-129540000D02*
X197866000Y-132160000D01*
X191262000Y-121920000D02*
X197866000Y-121920000D01*
X191262000Y-58928000D02*
X183642000Y-58928000D01*
X190166000Y-56388000D02*
X190166000Y-47832000D01*
X186944000Y-130810000D02*
X191262000Y-132080000D01*
X181102000Y-121920000D02*
X181102000Y-119380000D01*
X197749000Y-81915000D02*
X197876000Y-81788000D01*
X195286000Y-99568000D02*
X197866000Y-99568000D01*
X197876000Y-88880000D02*
X197876000Y-93970000D01*
X191516000Y-81915000D02*
X183896000Y-81915000D01*
X197876000Y-73640000D02*
X197876000Y-81788000D01*
X197866000Y-53340000D02*
X197866000Y-56388000D01*
X183642000Y-121920000D02*
X181102000Y-121920000D01*
X191856000Y-47498000D02*
X191348000Y-46990000D01*
D27*
X202438000Y-49530000D02*
X200406000Y-51562000D01*
D28*
X197876000Y-81788000D02*
X197876000Y-88880000D01*
X197866000Y-93980000D02*
X197866000Y-99568000D01*
X178562000Y-127000000D02*
X177038000Y-127000000D01*
X197866000Y-121920000D02*
X197866000Y-129540000D01*
X190166000Y-57832000D02*
X191262000Y-58928000D01*
X181991000Y-81915000D02*
X180594000Y-83312000D01*
X197866000Y-109220000D02*
X197866000Y-114300000D01*
X192746000Y-102108000D02*
X195286000Y-99568000D01*
X181102000Y-121920000D02*
X181102000Y-124460000D01*
X197866000Y-56388000D02*
X197866000Y-68580000D01*
X186944000Y-121920000D02*
X183642000Y-121920000D01*
X197876000Y-73640000D02*
X200416000Y-73640000D01*
X190166000Y-47832000D02*
X190500000Y-47498000D01*
D27*
X200406000Y-51562000D02*
X200406000Y-53340000D01*
%TO.N,/DSMC*%
X233426000Y-64770000D02*
X233426000Y-52070000D01*
X237236000Y-64770000D02*
X233426000Y-64770000D01*
X233171000Y-51815000D02*
X209041000Y-51815000D01*
X238506000Y-66040000D02*
X237236000Y-64770000D01*
X209041000Y-51815000D02*
X206756000Y-49530000D01*
X233426000Y-52070000D02*
X233171000Y-51815000D01*
%TO.N,/A3*%
X213116000Y-88880000D02*
X213116000Y-87005000D01*
X214376000Y-115824000D02*
X214376000Y-113030000D01*
X214376000Y-95758000D02*
X214376000Y-92710000D01*
X213106000Y-129540000D02*
X213106000Y-128016000D01*
X213106000Y-86995000D02*
X214376000Y-75565000D01*
X213106000Y-69850000D02*
X213106000Y-68580000D01*
X213106000Y-128016000D02*
X214376000Y-115824000D01*
X213106000Y-109220000D02*
X213106000Y-107442000D01*
X213106000Y-110744000D02*
X213106000Y-109220000D01*
X213106000Y-107442000D02*
X214376000Y-95758000D01*
X213106000Y-90424000D02*
X213116000Y-88880000D01*
X214376000Y-113030000D02*
X213106000Y-110744000D01*
X214376000Y-92710000D02*
X213106000Y-90424000D01*
X213116000Y-87005000D02*
X213106000Y-86995000D01*
X214376000Y-75565000D02*
X214376000Y-72390000D01*
X214376000Y-72390000D02*
X213106000Y-69850000D01*
%TO.N,/A4*%
X211836000Y-77470000D02*
X211836000Y-72390000D01*
X210566000Y-69850000D02*
X210566000Y-68580000D01*
X210566000Y-107442000D02*
X211836000Y-95758000D01*
X210566000Y-90424000D02*
X210576000Y-88880000D01*
X210576000Y-87005000D02*
X210566000Y-86995000D01*
X211836000Y-115824000D02*
X211836000Y-113030000D01*
X210566000Y-110744000D02*
X210566000Y-109220000D01*
X210566000Y-129540000D02*
X210566000Y-128016000D01*
X210566000Y-86995000D02*
X211836000Y-77470000D01*
X211836000Y-92456000D02*
X210566000Y-90424000D01*
X211836000Y-95758000D02*
X211836000Y-92456000D01*
X211836000Y-113030000D02*
X210566000Y-110744000D01*
X210576000Y-88880000D02*
X210576000Y-87005000D01*
X211836000Y-72390000D02*
X210566000Y-69850000D01*
X210566000Y-128016000D02*
X211836000Y-115824000D01*
X210566000Y-109220000D02*
X210566000Y-107442000D01*
%TO.N,/A5*%
X208026000Y-69850000D02*
X209295442Y-72390000D01*
X208026000Y-129540000D02*
X208026000Y-128016000D01*
X208026000Y-68580000D02*
X208026000Y-69850000D01*
X208026000Y-86995000D02*
X208036000Y-87005000D01*
X208026000Y-109220000D02*
X208026000Y-107442000D01*
X209296000Y-115824000D02*
X209296000Y-112885000D01*
X209296000Y-92710000D02*
X208026000Y-90424000D01*
X209296000Y-112885000D02*
X208026000Y-110744000D01*
X209296000Y-80010000D02*
X208026000Y-86995000D01*
X208026000Y-107442000D02*
X209296000Y-95758000D01*
X209295442Y-72390000D02*
X209296000Y-80010000D01*
X209296000Y-95758000D02*
X209296000Y-92710000D01*
X208026000Y-128016000D02*
X209296000Y-115824000D01*
X208036000Y-90424000D02*
X208036000Y-88880000D01*
X208026000Y-110744000D02*
X208026000Y-109220000D01*
X208036000Y-87005000D02*
X208036000Y-88880000D01*
%TO.N,/A6*%
X205496000Y-87005000D02*
X205496000Y-88880000D01*
X206756000Y-75565000D02*
X206756000Y-72390000D01*
X206756000Y-113030000D02*
X205486000Y-110744000D01*
X205486000Y-86995000D02*
X205496000Y-87005000D01*
X205979888Y-82550000D02*
X205486000Y-86995000D01*
X205979888Y-82550000D02*
X206756000Y-75565000D01*
X205486000Y-109220000D02*
X205486000Y-107442000D01*
X205486000Y-90424000D02*
X205496000Y-88880000D01*
X206756000Y-72390000D02*
X205486000Y-69850000D01*
X205486000Y-107442000D02*
X206756000Y-95758000D01*
X206756000Y-115824000D02*
X206756000Y-113030000D01*
X206756000Y-95758000D02*
X206756000Y-92456000D01*
X205232000Y-128016000D02*
X206756000Y-115824000D01*
X205486000Y-110744000D02*
X205486000Y-109220000D01*
X205486000Y-129540000D02*
X205232000Y-128016000D01*
X206756000Y-92456000D02*
X205486000Y-90424000D01*
X205486000Y-69850000D02*
X205486000Y-68580000D01*
%TO.N,/A7*%
X202946000Y-110744000D02*
X202946000Y-109220000D01*
X202946000Y-69850000D02*
X204216000Y-72390000D01*
X202956000Y-90424000D02*
X204216000Y-92710000D01*
X202956000Y-85100000D02*
X202956000Y-88880000D01*
X204216000Y-100330000D02*
X202946000Y-107442000D01*
X202946000Y-129540000D02*
X202946000Y-128016000D01*
X204216000Y-92710000D02*
X204216000Y-100330000D01*
X204216000Y-72390000D02*
X204216000Y-76200000D01*
X204216000Y-76200000D02*
X202946000Y-85090000D01*
X202946000Y-85090000D02*
X202956000Y-85100000D01*
X202956000Y-88880000D02*
X202956000Y-90424000D01*
X204216000Y-115824000D02*
X204216000Y-113030000D01*
X202946000Y-68580000D02*
X202946000Y-69850000D01*
X202946000Y-107442000D02*
X202946000Y-109220000D01*
X202946000Y-128016000D02*
X204216000Y-115824000D01*
X202946000Y-85090000D02*
X202956000Y-88880000D01*
X204216000Y-113030000D02*
X202946000Y-110744000D01*
%TO.N,/A8*%
X204216000Y-90424000D02*
X204216000Y-86995000D01*
X205486000Y-72390000D02*
X205496000Y-73640000D01*
X205486000Y-95758000D02*
X205486000Y-93980000D01*
X205496000Y-75565000D02*
X205496000Y-73640000D01*
X205486000Y-114300000D02*
X205486000Y-112776000D01*
X204216000Y-107442000D02*
X205486000Y-95758000D01*
X205486000Y-93980000D02*
X205486000Y-92710000D01*
X205486000Y-53340000D02*
X205486000Y-55118000D01*
X204216000Y-66802000D02*
X204216000Y-69850000D01*
X204216000Y-86995000D02*
X205496000Y-75565000D01*
X205486000Y-92710000D02*
X204216000Y-90424000D01*
X205486000Y-112776000D02*
X204216000Y-110744000D01*
X204216000Y-110744000D02*
X204216000Y-107442000D01*
X205486000Y-55118000D02*
X204216000Y-66802000D01*
X204216000Y-69850000D02*
X205486000Y-72390000D01*
%TO.N,/A9*%
X206756000Y-90424000D02*
X206756000Y-86995000D01*
X208026000Y-114300000D02*
X208026000Y-112776000D01*
X208026000Y-72390000D02*
X208036000Y-73640000D01*
X208026000Y-53340000D02*
X208026000Y-55118000D01*
X206756000Y-110744000D02*
X206756000Y-107442000D01*
X208026000Y-95758000D02*
X208026000Y-93980000D01*
X208026000Y-92555000D02*
X206756000Y-90424000D01*
X206756000Y-66802000D02*
X206756000Y-69850000D01*
X208026000Y-75565000D02*
X208036000Y-73640000D01*
X208026000Y-112776000D02*
X206756000Y-110744000D01*
X208026000Y-93980000D02*
X208026000Y-92555000D01*
X208026000Y-55118000D02*
X206756000Y-66802000D01*
X206756000Y-69850000D02*
X208026000Y-72390000D01*
X206756000Y-107442000D02*
X208026000Y-95758000D01*
X206756000Y-86995000D02*
X208026000Y-75565000D01*
%TO.N,/A10*%
X215646000Y-53340000D02*
X215646000Y-55118000D01*
X214376000Y-107442000D02*
X215646000Y-95758000D01*
X214376000Y-110744000D02*
X214376000Y-107442000D01*
X215656000Y-73640000D02*
X215646000Y-75565000D01*
X215646000Y-72390000D02*
X215656000Y-73640000D01*
X215646000Y-95758000D02*
X215646000Y-93980000D01*
X215646000Y-114300000D02*
X215646000Y-112776000D01*
X215646000Y-75565000D02*
X214376000Y-86995000D01*
X215646000Y-92710000D02*
X215646000Y-93980000D01*
X214376000Y-66802000D02*
X214376000Y-69850000D01*
X214376000Y-86995000D02*
X214376000Y-90424000D01*
X215646000Y-112776000D02*
X214376000Y-110744000D01*
X215646000Y-55118000D02*
X214376000Y-66802000D01*
X214376000Y-69850000D02*
X215646000Y-72390000D01*
X214376000Y-90424000D02*
X215646000Y-92710000D01*
%TO.N,/A11*%
X209296000Y-66802000D02*
X209296000Y-69850000D01*
X209296000Y-69850000D02*
X210576000Y-72400000D01*
X210576000Y-73640000D02*
X210576000Y-75565000D01*
X210566000Y-114300000D02*
X210566000Y-112776000D01*
X209296000Y-110744000D02*
X209296000Y-107442000D01*
X210576000Y-75565000D02*
X209296000Y-86995000D01*
X209296000Y-90424000D02*
X210566000Y-92710000D01*
X210566000Y-112776000D02*
X209296000Y-110744000D01*
X210566000Y-92710000D02*
X210566000Y-93980000D01*
X210566000Y-55118000D02*
X209296000Y-66802000D01*
X210566000Y-53340000D02*
X210566000Y-55118000D01*
X209296000Y-86995000D02*
X209296000Y-90424000D01*
X210576000Y-72400000D02*
X210576000Y-73640000D01*
X210566000Y-95758000D02*
X210566000Y-93980000D01*
X209296000Y-107442000D02*
X210566000Y-95758000D01*
%TO.N,/A12*%
X200406000Y-109220000D02*
X200406000Y-110744000D01*
X201676000Y-72390000D02*
X200406000Y-69850000D01*
X200406000Y-127762000D02*
X200406000Y-129540000D01*
X200416000Y-87630000D02*
X201676000Y-74930000D01*
X200406000Y-107696000D02*
X200406000Y-109220000D01*
X201676000Y-97790000D02*
X201676000Y-92710000D01*
X200416000Y-90434000D02*
X200416000Y-88880000D01*
X200406000Y-69850000D02*
X200406000Y-68580000D01*
X201676000Y-92710000D02*
X200416000Y-90434000D01*
X200406000Y-110744000D02*
X201676000Y-113030000D01*
X201676000Y-113030000D02*
X201676000Y-115824000D01*
X201676000Y-97790000D02*
X200406000Y-107696000D01*
X200416000Y-88880000D02*
X200416000Y-87630000D01*
X201676000Y-115824000D02*
X200406000Y-127762000D01*
X201676000Y-74930000D02*
X201676000Y-72390000D01*
%TO.N,/A13*%
X202946000Y-93980000D02*
X202946000Y-91440000D01*
X201676000Y-107442000D02*
X202946000Y-100330000D01*
X202956000Y-72400000D02*
X202956000Y-73640000D01*
X201676000Y-66802000D02*
X201676000Y-69850000D01*
X202946000Y-114300000D02*
X202946000Y-112776000D01*
X201676000Y-110744000D02*
X201676000Y-107442000D01*
X202946000Y-55118000D02*
X201676000Y-66802000D01*
X202946000Y-93980000D02*
X202946000Y-100330000D01*
X201676000Y-69850000D02*
X202956000Y-72400000D01*
X202946000Y-74930000D02*
X202956000Y-73640000D01*
X201676000Y-90170000D02*
X201676000Y-87630000D01*
X202946000Y-53340000D02*
X202946000Y-55118000D01*
X202946000Y-91440000D02*
X201676000Y-90170000D01*
X201676000Y-87630000D02*
X202946000Y-74930000D01*
X202946000Y-112776000D02*
X201676000Y-110744000D01*
%TO.N,/A14*%
X194691000Y-103505000D02*
X194691000Y-120650000D01*
X196596000Y-101600000D02*
X194691000Y-103505000D01*
%TO.N,/D7*%
X219456000Y-110490000D02*
X220726000Y-113030000D01*
X219456000Y-66802000D02*
X219456000Y-69850000D01*
X220726000Y-114300000D02*
X220726000Y-120650000D01*
X220726000Y-113030000D02*
X220726000Y-114300000D01*
X219456000Y-90424000D02*
X220726000Y-92710000D01*
X219456000Y-86995000D02*
X219456000Y-90424000D01*
X219456000Y-69850000D02*
X220736000Y-72400000D01*
X220726000Y-92710000D02*
X220726000Y-93980000D01*
X220726000Y-95504000D02*
X219456000Y-107696000D01*
X220736000Y-73640000D02*
X220726000Y-75565000D01*
X219456000Y-107696000D02*
X219456000Y-110490000D01*
X220726000Y-53340000D02*
X220726000Y-55118000D01*
X220726000Y-93980000D02*
X220726000Y-95504000D01*
X220736000Y-72400000D02*
X220736000Y-73640000D01*
X220726000Y-75565000D02*
X219456000Y-86995000D01*
X220726000Y-55118000D02*
X219456000Y-66802000D01*
%TO.N,/D6*%
X223266000Y-95758000D02*
X223266000Y-93980000D01*
X223266000Y-113030000D02*
X221996000Y-110490000D01*
X223266000Y-53340000D02*
X223266000Y-55118000D01*
X221996000Y-66802000D02*
X221996000Y-69850000D01*
X223276000Y-75565000D02*
X223276000Y-73640000D01*
X221996000Y-86995000D02*
X223276000Y-75565000D01*
X223266000Y-93980000D02*
X223266000Y-92710000D01*
X223266000Y-114300000D02*
X223266000Y-113030000D01*
X221996000Y-110490000D02*
X221996000Y-107442000D01*
X221996000Y-90170000D02*
X221996000Y-86995000D01*
X221996000Y-69850000D02*
X223276000Y-72400000D01*
X223266000Y-92710000D02*
X221996000Y-90170000D01*
X223276000Y-72400000D02*
X223276000Y-73640000D01*
X221996000Y-107442000D02*
X223266000Y-95758000D01*
X223266000Y-114300000D02*
X223266000Y-123190000D01*
X223266000Y-55118000D02*
X221996000Y-66802000D01*
%TO.N,/D5*%
X225806000Y-113030000D02*
X225806000Y-114300000D01*
X225806000Y-93980000D02*
X225806000Y-95758000D01*
X225806000Y-55372000D02*
X224536000Y-66802000D01*
X225806000Y-92710000D02*
X225806000Y-93980000D01*
X224536000Y-66802000D02*
X224536000Y-69850000D01*
X224536000Y-110490000D02*
X225806000Y-113030000D01*
X224536000Y-69850000D02*
X225816000Y-72400000D01*
X224536000Y-90170000D02*
X225806000Y-92710000D01*
X225816000Y-73640000D02*
X225813764Y-75565000D01*
X225806000Y-95758000D02*
X224536000Y-107696000D01*
X224536000Y-86995000D02*
X224536000Y-90170000D01*
X224536000Y-107696000D02*
X224536000Y-110490000D01*
X225813764Y-75565000D02*
X224536000Y-86995000D01*
X225806000Y-114300000D02*
X225806000Y-125730000D01*
X225816000Y-72400000D02*
X225816000Y-73640000D01*
X225806000Y-53340000D02*
X225806000Y-55372000D01*
%TO.N,/D4*%
X228346000Y-55118000D02*
X227076000Y-66802000D01*
X227076000Y-69850000D02*
X228356000Y-72400000D01*
X227076000Y-66802000D02*
X227076000Y-69850000D01*
X227076000Y-86995000D02*
X227076000Y-90170000D01*
X227076000Y-90170000D02*
X228346000Y-92710000D01*
X227076000Y-107696000D02*
X227221000Y-110490000D01*
X228353764Y-75565000D02*
X227076000Y-86995000D01*
X228346000Y-113030000D02*
X228346000Y-114300000D01*
X228346000Y-92710000D02*
X228346000Y-93980000D01*
X228356000Y-72400000D02*
X228356000Y-73640000D01*
X227221000Y-110490000D02*
X228346000Y-113030000D01*
X228346000Y-93980000D02*
X228346000Y-95758000D01*
X228346000Y-95758000D02*
X227076000Y-107696000D01*
X228346000Y-114300000D02*
X228346000Y-127000000D01*
X228356000Y-73640000D02*
X228353764Y-75565000D01*
X228346000Y-53340000D02*
X228346000Y-55118000D01*
%TO.N,/D3*%
X230886000Y-114300000D02*
X230886000Y-127000000D01*
X229616000Y-128270000D02*
X229616000Y-132080000D01*
X229761000Y-107696000D02*
X230886000Y-95758000D01*
X229616000Y-86995000D02*
X229616000Y-90170000D01*
X230886000Y-92710000D02*
X230886000Y-93980000D01*
X230886000Y-127000000D02*
X229616000Y-128270000D01*
X230886000Y-53340000D02*
X231013000Y-54991000D01*
X229616000Y-90170000D02*
X230886000Y-92710000D01*
X230886000Y-114300000D02*
X230886000Y-113030000D01*
X230886000Y-113030000D02*
X229761000Y-110490000D01*
X229761000Y-110490000D02*
X229761000Y-107696000D01*
X230893764Y-75565000D02*
X229616000Y-86995000D01*
X230896000Y-72400000D02*
X230896000Y-73640000D01*
X229616000Y-69850000D02*
X230896000Y-72400000D01*
X231013000Y-54991000D02*
X229616000Y-66548000D01*
X230886000Y-95758000D02*
X230886000Y-93980000D01*
X229616000Y-66548000D02*
X229616000Y-69850000D01*
X230896000Y-73640000D02*
X230893764Y-75565000D01*
%TO.N,/A2*%
X215646000Y-69850000D02*
X215646000Y-68580000D01*
X215646000Y-128016000D02*
X216916000Y-115824000D01*
X215646000Y-86995000D02*
X216916000Y-75565000D01*
X216916000Y-115824000D02*
X216916000Y-113030000D01*
X215646000Y-110744000D02*
X215646000Y-109220000D01*
X216916000Y-95758000D02*
X215646000Y-107442000D01*
X215646000Y-107442000D02*
X215646000Y-109220000D01*
X215646000Y-129540000D02*
X215646000Y-128016000D01*
X216916000Y-113030000D02*
X215646000Y-110744000D01*
X216916000Y-75565000D02*
X216916000Y-72390000D01*
X216916000Y-72390000D02*
X215646000Y-69850000D01*
X215656000Y-88880000D02*
X215656000Y-90424000D01*
X215656000Y-88880000D02*
X215646000Y-86995000D01*
X215656000Y-90424000D02*
X216916000Y-92710000D01*
X216916000Y-92710000D02*
X216916000Y-95758000D01*
%TO.N,/A1*%
X218186000Y-69850000D02*
X218186000Y-68580000D01*
X219456000Y-72390000D02*
X219456000Y-75565000D01*
X218186000Y-110744000D02*
X218186000Y-109220000D01*
X218821000Y-71755000D02*
X219456000Y-72390000D01*
X218821000Y-71755000D02*
X218186000Y-69850000D01*
X218186000Y-86995000D02*
X218196000Y-88880000D01*
X219456000Y-92456000D02*
X218186000Y-90424000D01*
X218186000Y-90424000D02*
X218196000Y-88880000D01*
X219456000Y-95504000D02*
X219456000Y-92456000D01*
X218186000Y-109220000D02*
X218186000Y-107696000D01*
X218186000Y-128016000D02*
X219456000Y-115824000D01*
X219456000Y-75565000D02*
X218186000Y-86995000D01*
X218186000Y-129540000D02*
X218186000Y-128016000D01*
X219456000Y-113030000D02*
X218186000Y-110744000D01*
X218186000Y-107696000D02*
X219456000Y-95504000D01*
X219456000Y-115824000D02*
X219456000Y-113030000D01*
%TO.N,/A0*%
X220726000Y-110490000D02*
X220726000Y-109220000D01*
X221996000Y-92456000D02*
X220726000Y-90424000D01*
X221996000Y-72390000D02*
X221996000Y-78740000D01*
X220726000Y-109220000D02*
X220726000Y-107696000D01*
X221996000Y-121920000D02*
X221996000Y-113030000D01*
X220726000Y-90424000D02*
X220736000Y-88880000D01*
X220726000Y-128016000D02*
X221996000Y-121920000D01*
X221996000Y-113030000D02*
X220726000Y-110490000D01*
X220726000Y-69850000D02*
X221996000Y-72390000D01*
X220726000Y-86995000D02*
X220736000Y-88880000D01*
X220726000Y-107696000D02*
X221996000Y-95504000D01*
X221996000Y-95504000D02*
X221996000Y-92456000D01*
X220726000Y-68580000D02*
X220726000Y-69850000D01*
X220726000Y-129540000D02*
X220726000Y-128016000D01*
X221996000Y-78740000D02*
X220726000Y-86995000D01*
%TO.N,/RESET*%
X196596000Y-120650000D02*
X196596000Y-104140000D01*
%TO.N,/D0*%
X224536000Y-92710000D02*
X223266000Y-90170000D01*
X223266000Y-109220000D02*
X223266000Y-110490000D01*
X223266000Y-107696000D02*
X224536000Y-95758000D01*
X223266000Y-128016000D02*
X223266000Y-129540000D01*
X223266000Y-90170000D02*
X223276000Y-90160000D01*
X223266000Y-69850000D02*
X224536000Y-72390000D01*
X224536000Y-124460000D02*
X223266000Y-128016000D01*
X224536000Y-72390000D02*
X224536000Y-75565000D01*
X223266000Y-68580000D02*
X223266000Y-69850000D01*
X224536000Y-113030000D02*
X224536000Y-124460000D01*
X223266000Y-110490000D02*
X224536000Y-113030000D01*
X223266000Y-86995000D02*
X223276000Y-88880000D01*
X223266000Y-109220000D02*
X223266000Y-107696000D01*
X224536000Y-95758000D02*
X224536000Y-92710000D01*
X223276000Y-90160000D02*
X223276000Y-88880000D01*
X224536000Y-75565000D02*
X223266000Y-86995000D01*
%TO.N,/D1*%
X225816000Y-90160000D02*
X225816000Y-88880000D01*
X225806000Y-69850000D02*
X227076000Y-72390000D01*
X227076000Y-95758000D02*
X227076000Y-92710000D01*
X227076000Y-72390000D02*
X227076000Y-75565000D01*
X225806000Y-109220000D02*
X225806000Y-110490000D01*
X225806000Y-109220000D02*
X225806000Y-107696000D01*
X225806000Y-86995000D02*
X225816000Y-88880000D01*
X225806000Y-128270000D02*
X225806000Y-129540000D01*
X225806000Y-68580000D02*
X225806000Y-69850000D01*
X225806000Y-90170000D02*
X225816000Y-90160000D01*
X227076000Y-125730000D02*
X225806000Y-128270000D01*
X227076000Y-113030000D02*
X227076000Y-125730000D01*
X227076000Y-75565000D02*
X225806000Y-86995000D01*
X225806000Y-110490000D02*
X227076000Y-113030000D01*
X225806000Y-107696000D02*
X227076000Y-95758000D01*
X227076000Y-92710000D02*
X225806000Y-90170000D01*
%TO.N,/D2*%
X228346000Y-69850000D02*
X229616000Y-72390000D01*
X228346000Y-90170000D02*
X228356000Y-90160000D01*
X228346000Y-109220000D02*
X228346000Y-107696000D01*
X229616000Y-113030000D02*
X228346000Y-110490000D01*
X229616000Y-127000000D02*
X229616000Y-113030000D01*
X228346000Y-110490000D02*
X228346000Y-109220000D01*
X228356000Y-90160000D02*
X228356000Y-88880000D01*
X229616000Y-72390000D02*
X229616000Y-75565000D01*
X228346000Y-107696000D02*
X229616000Y-95758000D01*
X228346000Y-128270000D02*
X229616000Y-127000000D01*
X229616000Y-95758000D02*
X229616000Y-92710000D01*
X228346000Y-129540000D02*
X228346000Y-128270000D01*
X228346000Y-86995000D02*
X228356000Y-88880000D01*
X228346000Y-68580000D02*
X228346000Y-69850000D01*
X229616000Y-75565000D02*
X228346000Y-86995000D01*
X229616000Y-92710000D02*
X228346000Y-90170000D01*
%TO.N,/ROM_CE2*%
X218376500Y-60960000D02*
X216916000Y-66802000D01*
X216916000Y-66802000D02*
X216916000Y-69850000D01*
X216916000Y-69850000D02*
X218196000Y-72654000D01*
X218196000Y-72654000D02*
X218196000Y-73640000D01*
%TO.N,/ROM_CE3*%
X216916000Y-86995000D02*
X218186000Y-78740000D01*
X216916000Y-90424000D02*
X216916000Y-86995000D01*
X218186000Y-93980000D02*
X218186000Y-92710000D01*
X218186000Y-92710000D02*
X216916000Y-90424000D01*
%TO.N,/ROM_OE*%
X213116000Y-72400000D02*
X213116000Y-73640000D01*
X211836000Y-90424000D02*
X213106000Y-92710000D01*
X211836000Y-70485000D02*
X213116000Y-72400000D01*
X211836000Y-66802000D02*
X211836000Y-70485000D01*
X213106000Y-53340000D02*
X213106000Y-55118000D01*
X211836000Y-107442000D02*
X213106000Y-95758000D01*
X213106000Y-55118000D02*
X211836000Y-66802000D01*
X211836000Y-86995000D02*
X211836000Y-90424000D01*
X213106000Y-112776000D02*
X211836000Y-110744000D01*
X213106000Y-95758000D02*
X213106000Y-93980000D01*
X213116000Y-75565000D02*
X211836000Y-86995000D01*
X211836000Y-110744000D02*
X211836000Y-107442000D01*
X213106000Y-114300000D02*
X213106000Y-112776000D01*
X183896000Y-94615000D02*
X180777000Y-94615000D01*
X213106000Y-92710000D02*
X213106000Y-93980000D01*
X213116000Y-73640000D02*
X213116000Y-75565000D01*
%TO.N,Net-(U6-Pad9)*%
X188341000Y-94615000D02*
X188341000Y-107315000D01*
X191516000Y-107315000D02*
X188341000Y-107315000D01*
X188341000Y-94615000D02*
X191516000Y-94615000D01*
%TO.N,Net-(U6-Pad10)*%
X187071000Y-117475000D02*
X191516000Y-117475000D01*
X191516000Y-92075000D02*
X187071000Y-92075000D01*
X187071000Y-92075000D02*
X187071000Y-117475000D01*
%TO.N,Net-(R2-Pad2)*%
X191516000Y-97155000D02*
X188976000Y-97155000D01*
X188976000Y-106045000D02*
X193421000Y-106045000D01*
X193421000Y-118745000D02*
X185801000Y-118745000D01*
X185801000Y-107315000D02*
X183896000Y-107315000D01*
X181102000Y-111760000D02*
X181102000Y-108204000D01*
X185801000Y-118745000D02*
X185801000Y-107315000D01*
X181991000Y-107315000D02*
X183896000Y-107315000D01*
X188976000Y-97155000D02*
X188976000Y-106045000D01*
X181102000Y-108204000D02*
X181991000Y-107315000D01*
X193421000Y-106045000D02*
X193421000Y-118745000D01*
%TO.N,/ROM_CE4*%
X218186000Y-116205000D02*
X216916000Y-127635000D01*
X234696000Y-133350000D02*
X234696000Y-82550000D01*
X234696000Y-82550000D02*
X233426000Y-81280000D01*
X218186000Y-114300000D02*
X218186000Y-116205000D01*
X216916000Y-127635000D02*
X216916000Y-132080000D01*
%TO.N,/DTACKL*%
X199136000Y-112395000D02*
X199136000Y-86995000D01*
%TO.N,Net-(Q1-B)*%
X185801000Y-100330000D02*
X185801000Y-93091000D01*
X179451000Y-100330000D02*
X185801000Y-100330000D01*
X183896000Y-92075000D02*
X184785000Y-92075000D01*
X179451000Y-114935000D02*
X179451000Y-100330000D01*
X183896000Y-114935000D02*
X179451000Y-114935000D01*
X184785000Y-92075000D02*
X185801000Y-93091000D01*
%TO.N,Net-(U8A-D)*%
X183642000Y-124460000D02*
X179070000Y-129032000D01*
X179070000Y-129032000D02*
X179070000Y-130048000D01*
X179070000Y-130048000D02*
X177038000Y-132080000D01*
%TD*%
%TA.AperFunction,Conductor*%
%TO.N,GND*%
G36*
X243782977Y-43205537D02*
G01*
X243828763Y-43258314D01*
X243840000Y-43309893D01*
X243840000Y-139581747D01*
X243820315Y-139648786D01*
X243767511Y-139694541D01*
X243716000Y-139705747D01*
X238884000Y-139705747D01*
X238816961Y-139686062D01*
X238771206Y-139633258D01*
X238760000Y-139581747D01*
X238760000Y-137050188D01*
X239370500Y-137050188D01*
X239370500Y-137269811D01*
X239370501Y-137269828D01*
X239399167Y-137487573D01*
X239456014Y-137699729D01*
X239520711Y-137855920D01*
X239540065Y-137902645D01*
X239649884Y-138092855D01*
X239649889Y-138092861D01*
X239649890Y-138092863D01*
X239783588Y-138267102D01*
X239783594Y-138267109D01*
X239938890Y-138422405D01*
X239938897Y-138422411D01*
X240034905Y-138496080D01*
X240113145Y-138556116D01*
X240303355Y-138665935D01*
X240404814Y-138707960D01*
X240506270Y-138749985D01*
X240506271Y-138749985D01*
X240506273Y-138749986D01*
X240718425Y-138806832D01*
X240936182Y-138835500D01*
X240936189Y-138835500D01*
X241155811Y-138835500D01*
X241155818Y-138835500D01*
X241373575Y-138806832D01*
X241585727Y-138749986D01*
X241788645Y-138665935D01*
X241978855Y-138556116D01*
X242153104Y-138422410D01*
X242308410Y-138267104D01*
X242442116Y-138092855D01*
X242551935Y-137902645D01*
X242635986Y-137699727D01*
X242692832Y-137487575D01*
X242721500Y-137269818D01*
X242721500Y-137050182D01*
X242692832Y-136832425D01*
X242635986Y-136620273D01*
X242551935Y-136417355D01*
X242442116Y-136227145D01*
X242308410Y-136052896D01*
X242308405Y-136052890D01*
X242153109Y-135897594D01*
X242153102Y-135897588D01*
X241978863Y-135763890D01*
X241978861Y-135763889D01*
X241978855Y-135763884D01*
X241788645Y-135654065D01*
X241788641Y-135654063D01*
X241585729Y-135570014D01*
X241373573Y-135513167D01*
X241155828Y-135484501D01*
X241155823Y-135484500D01*
X241155818Y-135484500D01*
X240936182Y-135484500D01*
X240936176Y-135484500D01*
X240936171Y-135484501D01*
X240718426Y-135513167D01*
X240506270Y-135570014D01*
X240303358Y-135654063D01*
X240303354Y-135654065D01*
X240113145Y-135763884D01*
X240113136Y-135763890D01*
X239938897Y-135897588D01*
X239938890Y-135897594D01*
X239783594Y-136052890D01*
X239783588Y-136052897D01*
X239649890Y-136227136D01*
X239649884Y-136227145D01*
X239540065Y-136417354D01*
X239540063Y-136417358D01*
X239456014Y-136620270D01*
X239399167Y-136832426D01*
X239370501Y-137050171D01*
X239370500Y-137050188D01*
X238760000Y-137050188D01*
X238760000Y-135003747D01*
X238779685Y-134936708D01*
X238832489Y-134890953D01*
X238884000Y-134879747D01*
X240283999Y-134879747D01*
X240284000Y-134879747D01*
X240912679Y-134366000D01*
X241420679Y-51059747D01*
X240912679Y-50551747D01*
X239004679Y-50551747D01*
X238937640Y-50532062D01*
X238891885Y-50479258D01*
X238880679Y-50427747D01*
X238880679Y-48150188D01*
X239370500Y-48150188D01*
X239370500Y-48369811D01*
X239370501Y-48369828D01*
X239399167Y-48587573D01*
X239456014Y-48799729D01*
X239540063Y-49002641D01*
X239540065Y-49002645D01*
X239649884Y-49192855D01*
X239649889Y-49192861D01*
X239649890Y-49192863D01*
X239783588Y-49367102D01*
X239783594Y-49367109D01*
X239938890Y-49522405D01*
X239938897Y-49522411D01*
X240021768Y-49586000D01*
X240113145Y-49656116D01*
X240303355Y-49765935D01*
X240404814Y-49807960D01*
X240506270Y-49849985D01*
X240506271Y-49849985D01*
X240506273Y-49849986D01*
X240718425Y-49906832D01*
X240936182Y-49935500D01*
X240936189Y-49935500D01*
X241155811Y-49935500D01*
X241155818Y-49935500D01*
X241373575Y-49906832D01*
X241585727Y-49849986D01*
X241788645Y-49765935D01*
X241978855Y-49656116D01*
X242153104Y-49522410D01*
X242308410Y-49367104D01*
X242442116Y-49192855D01*
X242551935Y-49002645D01*
X242635986Y-48799727D01*
X242692832Y-48587575D01*
X242721500Y-48369818D01*
X242721500Y-48150182D01*
X242692832Y-47932425D01*
X242635986Y-47720273D01*
X242551935Y-47517355D01*
X242442116Y-47327145D01*
X242396349Y-47267500D01*
X242308411Y-47152897D01*
X242308405Y-47152890D01*
X242153109Y-46997594D01*
X242153102Y-46997588D01*
X241978863Y-46863890D01*
X241978861Y-46863889D01*
X241978855Y-46863884D01*
X241788645Y-46754065D01*
X241788641Y-46754063D01*
X241585729Y-46670014D01*
X241373573Y-46613167D01*
X241155828Y-46584501D01*
X241155823Y-46584500D01*
X241155818Y-46584500D01*
X240936182Y-46584500D01*
X240936176Y-46584500D01*
X240936171Y-46584501D01*
X240718426Y-46613167D01*
X240506270Y-46670014D01*
X240303358Y-46754063D01*
X240303354Y-46754065D01*
X240113145Y-46863884D01*
X240113136Y-46863890D01*
X239938897Y-46997588D01*
X239938890Y-46997594D01*
X239783594Y-47152890D01*
X239783588Y-47152897D01*
X239649890Y-47327136D01*
X239649884Y-47327145D01*
X239540065Y-47517354D01*
X239540063Y-47517358D01*
X239456014Y-47720270D01*
X239399167Y-47932426D01*
X239370501Y-48150171D01*
X239370500Y-48150188D01*
X238880679Y-48150188D01*
X238880679Y-45217747D01*
X238880678Y-45217746D01*
X188842679Y-44963746D01*
X188842679Y-44963747D01*
X188918884Y-47859521D01*
X189093330Y-54488485D01*
X189075416Y-54556019D01*
X189023834Y-54603147D01*
X188969373Y-54615747D01*
X171316679Y-54615747D01*
X171316679Y-64775747D01*
X178812679Y-64775747D01*
X178879718Y-64795432D01*
X178925473Y-64848236D01*
X178936679Y-64899747D01*
X178936679Y-99936249D01*
X178916994Y-100003288D01*
X178915782Y-100005139D01*
X178896688Y-100033715D01*
X178849538Y-100147545D01*
X178849535Y-100147555D01*
X178825500Y-100268389D01*
X178825500Y-114996610D01*
X178849535Y-115117444D01*
X178849538Y-115117454D01*
X178896686Y-115231281D01*
X178896688Y-115231284D01*
X178896689Y-115231286D01*
X178915782Y-115259861D01*
X178936659Y-115326535D01*
X178936679Y-115328749D01*
X178936679Y-119261747D01*
X178916994Y-119328786D01*
X178864190Y-119374541D01*
X178812679Y-119385747D01*
X171062679Y-119385747D01*
X171167637Y-127887396D01*
X171285553Y-137438632D01*
X171281337Y-137472254D01*
X171257939Y-137559580D01*
X171257936Y-137559596D01*
X171237341Y-137794999D01*
X171237341Y-137795000D01*
X171257937Y-138030408D01*
X171290521Y-138152021D01*
X171294737Y-138182582D01*
X171316679Y-139959747D01*
X243715566Y-139706603D01*
X243782674Y-139726053D01*
X243828614Y-139778696D01*
X243840000Y-139830602D01*
X243840000Y-142116000D01*
X243820315Y-142183039D01*
X243767511Y-142228794D01*
X243716000Y-142240000D01*
X169338800Y-142240000D01*
X169271761Y-142220315D01*
X169226006Y-142167511D01*
X169214800Y-142116000D01*
X169214800Y-116332000D01*
X171167479Y-116332000D01*
X171187582Y-116581039D01*
X171187583Y-116581044D01*
X171247376Y-116823631D01*
X171345309Y-117053492D01*
X171345312Y-117053498D01*
X171478847Y-117264665D01*
X171644528Y-117451680D01*
X171838065Y-117609698D01*
X171838068Y-117609701D01*
X171953808Y-117676523D01*
X172054446Y-117734626D01*
X172288061Y-117823225D01*
X172532864Y-117873202D01*
X172600950Y-117875945D01*
X172782506Y-117883262D01*
X172782508Y-117883262D01*
X172782509Y-117883261D01*
X172782514Y-117883262D01*
X172995111Y-117857448D01*
X173030545Y-117853146D01*
X173098191Y-117833551D01*
X173270532Y-117783633D01*
X173496261Y-117676523D01*
X173701885Y-117534591D01*
X173882079Y-117361512D01*
X174032176Y-117161770D01*
X174148288Y-116940537D01*
X174227408Y-116703543D01*
X174247316Y-116581044D01*
X174267486Y-116456935D01*
X174267486Y-116456932D01*
X174267487Y-116456926D01*
X174270000Y-116332000D01*
X174267487Y-116207074D01*
X174267486Y-116207067D01*
X174267486Y-116207064D01*
X174227409Y-115960462D01*
X174227408Y-115960460D01*
X174227408Y-115960457D01*
X174148288Y-115723463D01*
X174032176Y-115502230D01*
X174032173Y-115502226D01*
X174032172Y-115502224D01*
X173882077Y-115302485D01*
X173701886Y-115129410D01*
X173701885Y-115129409D01*
X173496262Y-114987477D01*
X173373812Y-114929374D01*
X173270532Y-114880367D01*
X173270529Y-114880366D01*
X173270526Y-114880365D01*
X173030545Y-114810853D01*
X172782507Y-114780737D01*
X172532867Y-114790797D01*
X172532859Y-114790798D01*
X172288056Y-114840776D01*
X172054444Y-114929374D01*
X171838068Y-115054298D01*
X171838065Y-115054301D01*
X171644528Y-115212319D01*
X171478847Y-115399334D01*
X171345312Y-115610501D01*
X171345309Y-115610507D01*
X171247376Y-115840368D01*
X171187583Y-116082955D01*
X171187582Y-116082960D01*
X171167479Y-116332000D01*
X169214800Y-116332000D01*
X169214800Y-105156000D01*
X171043600Y-105156000D01*
X173202600Y-105156000D01*
X173202600Y-78638400D01*
X171043600Y-78638400D01*
X171043600Y-105156000D01*
X169214800Y-105156000D01*
X169214800Y-69469000D01*
X171167479Y-69469000D01*
X171187582Y-69718039D01*
X171187583Y-69718044D01*
X171247376Y-69960631D01*
X171345309Y-70190492D01*
X171345312Y-70190498D01*
X171478847Y-70401665D01*
X171644528Y-70588680D01*
X171838065Y-70746698D01*
X171838068Y-70746701D01*
X171953808Y-70813523D01*
X172054446Y-70871626D01*
X172288061Y-70960225D01*
X172532864Y-71010202D01*
X172600950Y-71012945D01*
X172782506Y-71020262D01*
X172782508Y-71020262D01*
X172782509Y-71020261D01*
X172782514Y-71020262D01*
X172995111Y-70994448D01*
X173030545Y-70990146D01*
X173098191Y-70970551D01*
X173270532Y-70920633D01*
X173496261Y-70813523D01*
X173701885Y-70671591D01*
X173882079Y-70498512D01*
X174032176Y-70298770D01*
X174148288Y-70077537D01*
X174227408Y-69840543D01*
X174247316Y-69718044D01*
X174267486Y-69593935D01*
X174267486Y-69593932D01*
X174267487Y-69593926D01*
X174270000Y-69469000D01*
X174267487Y-69344074D01*
X174267486Y-69344067D01*
X174267486Y-69344064D01*
X174227409Y-69097462D01*
X174227408Y-69097460D01*
X174227408Y-69097457D01*
X174148288Y-68860463D01*
X174032176Y-68639230D01*
X174032173Y-68639226D01*
X174032172Y-68639224D01*
X173882077Y-68439485D01*
X173701886Y-68266410D01*
X173701885Y-68266409D01*
X173496262Y-68124477D01*
X173373812Y-68066374D01*
X173270532Y-68017367D01*
X173270529Y-68017366D01*
X173270526Y-68017365D01*
X173030545Y-67947853D01*
X172782507Y-67917737D01*
X172532867Y-67927797D01*
X172532859Y-67927798D01*
X172288056Y-67977776D01*
X172054444Y-68066374D01*
X171838068Y-68191298D01*
X171838065Y-68191301D01*
X171644528Y-68349319D01*
X171478847Y-68536334D01*
X171345312Y-68747501D01*
X171345309Y-68747507D01*
X171247376Y-68977368D01*
X171187583Y-69219955D01*
X171187582Y-69219960D01*
X171167479Y-69469000D01*
X169214800Y-69469000D01*
X169214800Y-50037992D01*
X172940671Y-50037992D01*
X172940671Y-50038007D01*
X172959964Y-50332363D01*
X172959965Y-50332373D01*
X172959966Y-50332380D01*
X173010811Y-50588000D01*
X173017518Y-50621716D01*
X173017521Y-50621730D01*
X173112349Y-50901080D01*
X173242825Y-51165660D01*
X173242829Y-51165667D01*
X173406725Y-51410955D01*
X173601241Y-51632758D01*
X173823043Y-51827273D01*
X174068335Y-51991172D01*
X174332923Y-52121652D01*
X174612278Y-52216481D01*
X174901620Y-52274034D01*
X174929888Y-52275886D01*
X175195993Y-52293329D01*
X175196000Y-52293329D01*
X175196007Y-52293329D01*
X175431675Y-52277881D01*
X175490380Y-52274034D01*
X175779722Y-52216481D01*
X176059077Y-52121652D01*
X176323665Y-51991172D01*
X176568957Y-51827273D01*
X176790758Y-51632758D01*
X176985273Y-51410957D01*
X177149172Y-51165665D01*
X177279652Y-50901077D01*
X177374481Y-50621722D01*
X177432034Y-50332380D01*
X177437414Y-50250292D01*
X177451329Y-50038007D01*
X177451329Y-50037992D01*
X177432035Y-49743636D01*
X177432034Y-49743620D01*
X177374481Y-49454278D01*
X177279652Y-49174923D01*
X177149172Y-48910336D01*
X176985273Y-48665043D01*
X176917335Y-48587575D01*
X176790758Y-48443241D01*
X176568955Y-48248725D01*
X176323667Y-48084829D01*
X176323660Y-48084825D01*
X176059080Y-47954349D01*
X175779730Y-47859521D01*
X175779724Y-47859519D01*
X175779722Y-47859519D01*
X175490380Y-47801966D01*
X175490373Y-47801965D01*
X175490363Y-47801964D01*
X175196007Y-47782671D01*
X175195993Y-47782671D01*
X174901636Y-47801964D01*
X174901624Y-47801965D01*
X174901620Y-47801966D01*
X174901612Y-47801967D01*
X174901609Y-47801968D01*
X174612283Y-47859518D01*
X174612269Y-47859521D01*
X174332919Y-47954349D01*
X174068334Y-48084828D01*
X173823041Y-48248728D01*
X173601241Y-48443241D01*
X173406728Y-48665041D01*
X173242828Y-48910334D01*
X173112349Y-49174919D01*
X173017521Y-49454269D01*
X173017518Y-49454283D01*
X172959968Y-49743609D01*
X172959964Y-49743636D01*
X172940671Y-50037992D01*
X169214800Y-50037992D01*
X169214800Y-43354725D01*
X169234485Y-43287686D01*
X169287289Y-43241931D01*
X169338723Y-43230725D01*
X243715927Y-43185893D01*
X243782977Y-43205537D01*
G37*
%TD.AperFunction*%
%TD*%
%TA.AperFunction,Conductor*%
%TO.N,GND*%
G36*
X173202600Y-105156000D02*
G01*
X171043600Y-105156000D01*
X171043600Y-78638400D01*
X173202600Y-78638400D01*
X173202600Y-105156000D01*
G37*
%TD.AperFunction*%
%TD*%
D29*
X211836000Y-77470000D03*
X209296000Y-80010000D03*
X205979888Y-82550000D03*
X202946000Y-85090000D03*
X201676000Y-97790000D03*
X202946000Y-100330000D03*
X196596000Y-101600000D03*
X194691000Y-120650000D03*
X220726000Y-120650000D03*
X223266000Y-123190000D03*
X225806000Y-125730000D03*
X225806000Y-125730000D03*
X228346000Y-127000000D03*
X229616000Y-132080000D03*
X218821000Y-71755000D03*
X221996000Y-78740000D03*
X196596000Y-120650000D03*
X196596000Y-104140000D03*
X218376500Y-60960000D03*
X218186000Y-78740000D03*
X211836000Y-86995000D03*
X196596000Y-90805000D03*
X216916000Y-132080000D03*
X234696000Y-133350000D03*
X233426000Y-81280000D03*
X196596000Y-86995000D03*
X199136000Y-112395000D03*
X199136000Y-86995000D03*
X233306000Y-48768000D03*
X228306000Y-48768000D03*
X172593000Y-123825000D03*
X172593000Y-137795000D03*
X178943000Y-123825000D03*
X178943000Y-137795000D03*
X177038000Y-127000000D03*
X177038000Y-129540000D03*
X177038000Y-132080000D03*
X177038000Y-134620000D03*
X174498000Y-127000000D03*
X174498000Y-129540000D03*
X174498000Y-132080000D03*
X174498000Y-134620000D03*
X180594000Y-86995000D03*
X180594000Y-94615000D03*
X197866000Y-109220000D03*
X200406000Y-109220000D03*
X202946000Y-109220000D03*
X205486000Y-109220000D03*
X208026000Y-109220000D03*
X210566000Y-109220000D03*
X213106000Y-109220000D03*
X215646000Y-109220000D03*
X218186000Y-109220000D03*
X220726000Y-109220000D03*
X223266000Y-109220000D03*
X225806000Y-109220000D03*
X228346000Y-109220000D03*
X230886000Y-109220000D03*
X230886000Y-93980000D03*
X228346000Y-93980000D03*
X225806000Y-93980000D03*
X223266000Y-93980000D03*
X220726000Y-93980000D03*
X218186000Y-93980000D03*
X215646000Y-93980000D03*
X213106000Y-93980000D03*
X210566000Y-93980000D03*
X208026000Y-93980000D03*
X205486000Y-93980000D03*
X202946000Y-93980000D03*
X200406000Y-93980000D03*
X197866000Y-93980000D03*
X197866000Y-68580000D03*
X200406000Y-68580000D03*
X202946000Y-68580000D03*
X205486000Y-68580000D03*
X208026000Y-68580000D03*
X210566000Y-68580000D03*
X213106000Y-68580000D03*
X215646000Y-68580000D03*
X218186000Y-68580000D03*
X220726000Y-68580000D03*
X223266000Y-68580000D03*
X225806000Y-68580000D03*
X228346000Y-68580000D03*
X230886000Y-68580000D03*
X230886000Y-53340000D03*
X228346000Y-53340000D03*
X225806000Y-53340000D03*
X223266000Y-53340000D03*
X220726000Y-53340000D03*
X218186000Y-53340000D03*
X215646000Y-53340000D03*
X213106000Y-53340000D03*
X210566000Y-53340000D03*
X208026000Y-53340000D03*
X205486000Y-53340000D03*
X202946000Y-53340000D03*
X200406000Y-53340000D03*
X197866000Y-53340000D03*
X181102000Y-119380000D03*
X181102000Y-111760000D03*
X197876000Y-88880000D03*
X200416000Y-88880000D03*
X202956000Y-88880000D03*
X205496000Y-88880000D03*
X208036000Y-88880000D03*
X210576000Y-88880000D03*
X213116000Y-88880000D03*
X215656000Y-88880000D03*
X218196000Y-88880000D03*
X220736000Y-88880000D03*
X223276000Y-88880000D03*
X225816000Y-88880000D03*
X228356000Y-88880000D03*
X230896000Y-88880000D03*
X230896000Y-73640000D03*
X228356000Y-73640000D03*
X225816000Y-73640000D03*
X223276000Y-73640000D03*
X220736000Y-73640000D03*
X218196000Y-73640000D03*
X215656000Y-73640000D03*
X213116000Y-73640000D03*
X210576000Y-73640000D03*
X208036000Y-73640000D03*
X205496000Y-73640000D03*
X202956000Y-73640000D03*
X200416000Y-73640000D03*
X197876000Y-73640000D03*
X183896000Y-102235000D03*
X183896000Y-104775000D03*
X183896000Y-107315000D03*
X183896000Y-109855000D03*
X183896000Y-112395000D03*
X183896000Y-114935000D03*
X183896000Y-117475000D03*
X191516000Y-117475000D03*
X191516000Y-114935000D03*
X191516000Y-112395000D03*
X191516000Y-109855000D03*
X191516000Y-107315000D03*
X191516000Y-104775000D03*
X191516000Y-102235000D03*
X241046000Y-48260000D03*
X241046000Y-137160000D03*
X238506000Y-132080000D03*
X238506000Y-129540000D03*
X238506000Y-127000000D03*
X238506000Y-124460000D03*
X238506000Y-121920000D03*
X238506000Y-119380000D03*
X238506000Y-116840000D03*
X238506000Y-114300000D03*
X238506000Y-111760000D03*
X238506000Y-109220000D03*
X238506000Y-106680000D03*
X238506000Y-104140000D03*
X238506000Y-101600000D03*
X238506000Y-99060000D03*
X238506000Y-96520000D03*
X238506000Y-93980000D03*
X238506000Y-91440000D03*
X238506000Y-88900000D03*
X238506000Y-86360000D03*
X238506000Y-83820000D03*
X238506000Y-81280000D03*
X238506000Y-78740000D03*
X238506000Y-76200000D03*
X238506000Y-73660000D03*
X238506000Y-71120000D03*
X238506000Y-68580000D03*
X238506000Y-66040000D03*
X238506000Y-63500000D03*
X238506000Y-60960000D03*
X238506000Y-58420000D03*
X238506000Y-55880000D03*
X238506000Y-53340000D03*
X235966000Y-132080000D03*
X235966000Y-129540000D03*
X235966000Y-127000000D03*
X235966000Y-124460000D03*
X235966000Y-121920000D03*
X235966000Y-119380000D03*
X235966000Y-116840000D03*
X235966000Y-114300000D03*
X235966000Y-111760000D03*
X235966000Y-109220000D03*
X235966000Y-106680000D03*
X235966000Y-104140000D03*
X235966000Y-101600000D03*
X235966000Y-99060000D03*
X235966000Y-96520000D03*
X235966000Y-93980000D03*
X235966000Y-91440000D03*
X235966000Y-88900000D03*
X235966000Y-86360000D03*
X235966000Y-83820000D03*
X235966000Y-81280000D03*
X235966000Y-78740000D03*
X235966000Y-76200000D03*
X235966000Y-73660000D03*
X235966000Y-71120000D03*
X235966000Y-68580000D03*
X235966000Y-66040000D03*
X235966000Y-63500000D03*
X235966000Y-60960000D03*
X235966000Y-58420000D03*
X235966000Y-55880000D03*
X235966000Y-53340000D03*
X175196000Y-50038000D03*
X191856000Y-52578000D03*
X191856000Y-50038000D03*
X191856000Y-47498000D03*
X183896000Y-81915000D03*
X183896000Y-84455000D03*
X183896000Y-86995000D03*
X183896000Y-89535000D03*
X183896000Y-92075000D03*
X183896000Y-94615000D03*
X183896000Y-97155000D03*
X191516000Y-97155000D03*
X191516000Y-94615000D03*
X191516000Y-92075000D03*
X191516000Y-89535000D03*
X191516000Y-86995000D03*
X191516000Y-84455000D03*
X191516000Y-81915000D03*
X197866000Y-129540000D03*
X200406000Y-129540000D03*
X202946000Y-129540000D03*
X205486000Y-129540000D03*
X208026000Y-129540000D03*
X210566000Y-129540000D03*
X213106000Y-129540000D03*
X215646000Y-129540000D03*
X218186000Y-129540000D03*
X220726000Y-129540000D03*
X223266000Y-129540000D03*
X225806000Y-129540000D03*
X228346000Y-129540000D03*
X230886000Y-129540000D03*
X230886000Y-114300000D03*
X228346000Y-114300000D03*
X225806000Y-114300000D03*
X223266000Y-114300000D03*
X220726000Y-114300000D03*
X218186000Y-114300000D03*
X215646000Y-114300000D03*
X213106000Y-114300000D03*
X210566000Y-114300000D03*
X208026000Y-114300000D03*
X205486000Y-114300000D03*
X202946000Y-114300000D03*
X200406000Y-114300000D03*
X197866000Y-114300000D03*
X206502000Y-49530000D03*
X205232000Y-49530000D03*
X203962000Y-49530000D03*
X195286000Y-99568000D03*
X190286000Y-99568000D03*
X183896000Y-121920000D03*
X183896000Y-124460000D03*
X183896000Y-127000000D03*
X183896000Y-129540000D03*
X183896000Y-132080000D03*
X183896000Y-134620000D03*
X183896000Y-137160000D03*
X191516000Y-137160000D03*
X191516000Y-134620000D03*
X191516000Y-132080000D03*
X191516000Y-129540000D03*
X191516000Y-127000000D03*
X191516000Y-124460000D03*
X191516000Y-121920000D03*
X196850000Y-133176000D03*
X196850000Y-138176000D03*
X183642000Y-59055000D03*
X183642000Y-61595000D03*
X183642000Y-64135000D03*
X183642000Y-66675000D03*
X183642000Y-69215000D03*
X183642000Y-71755000D03*
X183642000Y-74295000D03*
X183642000Y-76835000D03*
X191262000Y-76835000D03*
X191262000Y-74295000D03*
X191262000Y-71755000D03*
X191262000Y-69215000D03*
X191262000Y-66675000D03*
X191262000Y-64135000D03*
X191262000Y-61595000D03*
X191262000Y-59055000D03*
X190166000Y-56388000D03*
X185166000Y-56388000D03*
M02*
