%TF.GenerationSoftware,KiCad,Pcbnew,8.0.3+1*%
%TF.CreationDate,2024-07-14T18:41:45+02:00*%
%TF.ProjectId,QL_GST_Rom_board,514c5f47-5354-45f5-926f-6d5f626f6172,rev?*%
%TF.SameCoordinates,Original*%
%TF.FileFunction,Legend,Top*%
%TF.FilePolarity,Positive*%
%FSLAX46Y46*%
G04 Gerber Fmt 4.6, Leading zero omitted, Abs format (unit mm)*
G04 Created by KiCad (PCBNEW 8.0.3+1) date 2024-07-14 18:41:45*
%MOMM*%
%LPD*%
G01*
G04 APERTURE LIST*
%ADD10C,0.150000*%
%ADD11C,0.120000*%
%ADD12C,0.350000*%
G04 APERTURE END LIST*
D10*
X230639333Y-54377580D02*
X230591714Y-54425200D01*
X230591714Y-54425200D02*
X230448857Y-54472819D01*
X230448857Y-54472819D02*
X230353619Y-54472819D01*
X230353619Y-54472819D02*
X230210762Y-54425200D01*
X230210762Y-54425200D02*
X230115524Y-54329961D01*
X230115524Y-54329961D02*
X230067905Y-54234723D01*
X230067905Y-54234723D02*
X230020286Y-54044247D01*
X230020286Y-54044247D02*
X230020286Y-53901390D01*
X230020286Y-53901390D02*
X230067905Y-53710914D01*
X230067905Y-53710914D02*
X230115524Y-53615676D01*
X230115524Y-53615676D02*
X230210762Y-53520438D01*
X230210762Y-53520438D02*
X230353619Y-53472819D01*
X230353619Y-53472819D02*
X230448857Y-53472819D01*
X230448857Y-53472819D02*
X230591714Y-53520438D01*
X230591714Y-53520438D02*
X230639333Y-53568057D01*
X231020286Y-53568057D02*
X231067905Y-53520438D01*
X231067905Y-53520438D02*
X231163143Y-53472819D01*
X231163143Y-53472819D02*
X231401238Y-53472819D01*
X231401238Y-53472819D02*
X231496476Y-53520438D01*
X231496476Y-53520438D02*
X231544095Y-53568057D01*
X231544095Y-53568057D02*
X231591714Y-53663295D01*
X231591714Y-53663295D02*
X231591714Y-53758533D01*
X231591714Y-53758533D02*
X231544095Y-53901390D01*
X231544095Y-53901390D02*
X230972667Y-54472819D01*
X230972667Y-54472819D02*
X231591714Y-54472819D01*
X174434667Y-124637200D02*
X174577524Y-124684819D01*
X174577524Y-124684819D02*
X174815619Y-124684819D01*
X174815619Y-124684819D02*
X174910857Y-124637200D01*
X174910857Y-124637200D02*
X174958476Y-124589580D01*
X174958476Y-124589580D02*
X175006095Y-124494342D01*
X175006095Y-124494342D02*
X175006095Y-124399104D01*
X175006095Y-124399104D02*
X174958476Y-124303866D01*
X174958476Y-124303866D02*
X174910857Y-124256247D01*
X174910857Y-124256247D02*
X174815619Y-124208628D01*
X174815619Y-124208628D02*
X174625143Y-124161009D01*
X174625143Y-124161009D02*
X174529905Y-124113390D01*
X174529905Y-124113390D02*
X174482286Y-124065771D01*
X174482286Y-124065771D02*
X174434667Y-123970533D01*
X174434667Y-123970533D02*
X174434667Y-123875295D01*
X174434667Y-123875295D02*
X174482286Y-123780057D01*
X174482286Y-123780057D02*
X174529905Y-123732438D01*
X174529905Y-123732438D02*
X174625143Y-123684819D01*
X174625143Y-123684819D02*
X174863238Y-123684819D01*
X174863238Y-123684819D02*
X175006095Y-123732438D01*
X175339429Y-123684819D02*
X175577524Y-124684819D01*
X175577524Y-124684819D02*
X175768000Y-123970533D01*
X175768000Y-123970533D02*
X175958476Y-124684819D01*
X175958476Y-124684819D02*
X176196572Y-123684819D01*
X177101333Y-124684819D02*
X176529905Y-124684819D01*
X176815619Y-124684819D02*
X176815619Y-123684819D01*
X176815619Y-123684819D02*
X176720381Y-123827676D01*
X176720381Y-123827676D02*
X176625143Y-123922914D01*
X176625143Y-123922914D02*
X176529905Y-123970533D01*
X181175819Y-84621666D02*
X180699628Y-84954999D01*
X181175819Y-85193094D02*
X180175819Y-85193094D01*
X180175819Y-85193094D02*
X180175819Y-84812142D01*
X180175819Y-84812142D02*
X180223438Y-84716904D01*
X180223438Y-84716904D02*
X180271057Y-84669285D01*
X180271057Y-84669285D02*
X180366295Y-84621666D01*
X180366295Y-84621666D02*
X180509152Y-84621666D01*
X180509152Y-84621666D02*
X180604390Y-84669285D01*
X180604390Y-84669285D02*
X180652009Y-84716904D01*
X180652009Y-84716904D02*
X180699628Y-84812142D01*
X180699628Y-84812142D02*
X180699628Y-85193094D01*
X181175819Y-83669285D02*
X181175819Y-84240713D01*
X181175819Y-83954999D02*
X180175819Y-83954999D01*
X180175819Y-83954999D02*
X180318676Y-84050237D01*
X180318676Y-84050237D02*
X180413914Y-84145475D01*
X180413914Y-84145475D02*
X180461533Y-84240713D01*
X194990819Y-103631904D02*
X195800342Y-103631904D01*
X195800342Y-103631904D02*
X195895580Y-103584285D01*
X195895580Y-103584285D02*
X195943200Y-103536666D01*
X195943200Y-103536666D02*
X195990819Y-103441428D01*
X195990819Y-103441428D02*
X195990819Y-103250952D01*
X195990819Y-103250952D02*
X195943200Y-103155714D01*
X195943200Y-103155714D02*
X195895580Y-103108095D01*
X195895580Y-103108095D02*
X195800342Y-103060476D01*
X195800342Y-103060476D02*
X194990819Y-103060476D01*
X194990819Y-102679523D02*
X194990819Y-102060476D01*
X194990819Y-102060476D02*
X195371771Y-102393809D01*
X195371771Y-102393809D02*
X195371771Y-102250952D01*
X195371771Y-102250952D02*
X195419390Y-102155714D01*
X195419390Y-102155714D02*
X195467009Y-102108095D01*
X195467009Y-102108095D02*
X195562247Y-102060476D01*
X195562247Y-102060476D02*
X195800342Y-102060476D01*
X195800342Y-102060476D02*
X195895580Y-102108095D01*
X195895580Y-102108095D02*
X195943200Y-102155714D01*
X195943200Y-102155714D02*
X195990819Y-102250952D01*
X195990819Y-102250952D02*
X195990819Y-102536666D01*
X195990819Y-102536666D02*
X195943200Y-102631904D01*
X195943200Y-102631904D02*
X195895580Y-102679523D01*
X194990819Y-61721904D02*
X195800342Y-61721904D01*
X195800342Y-61721904D02*
X195895580Y-61674285D01*
X195895580Y-61674285D02*
X195943200Y-61626666D01*
X195943200Y-61626666D02*
X195990819Y-61531428D01*
X195990819Y-61531428D02*
X195990819Y-61340952D01*
X195990819Y-61340952D02*
X195943200Y-61245714D01*
X195943200Y-61245714D02*
X195895580Y-61198095D01*
X195895580Y-61198095D02*
X195800342Y-61150476D01*
X195800342Y-61150476D02*
X194990819Y-61150476D01*
X195990819Y-60150476D02*
X195990819Y-60721904D01*
X195990819Y-60436190D02*
X194990819Y-60436190D01*
X194990819Y-60436190D02*
X195133676Y-60531428D01*
X195133676Y-60531428D02*
X195228914Y-60626666D01*
X195228914Y-60626666D02*
X195276533Y-60721904D01*
X181175819Y-109386666D02*
X180699628Y-109719999D01*
X181175819Y-109958094D02*
X180175819Y-109958094D01*
X180175819Y-109958094D02*
X180175819Y-109577142D01*
X180175819Y-109577142D02*
X180223438Y-109481904D01*
X180223438Y-109481904D02*
X180271057Y-109434285D01*
X180271057Y-109434285D02*
X180366295Y-109386666D01*
X180366295Y-109386666D02*
X180509152Y-109386666D01*
X180509152Y-109386666D02*
X180604390Y-109434285D01*
X180604390Y-109434285D02*
X180652009Y-109481904D01*
X180652009Y-109481904D02*
X180699628Y-109577142D01*
X180699628Y-109577142D02*
X180699628Y-109958094D01*
X180271057Y-109005713D02*
X180223438Y-108958094D01*
X180223438Y-108958094D02*
X180175819Y-108862856D01*
X180175819Y-108862856D02*
X180175819Y-108624761D01*
X180175819Y-108624761D02*
X180223438Y-108529523D01*
X180223438Y-108529523D02*
X180271057Y-108481904D01*
X180271057Y-108481904D02*
X180366295Y-108434285D01*
X180366295Y-108434285D02*
X180461533Y-108434285D01*
X180461533Y-108434285D02*
X180604390Y-108481904D01*
X180604390Y-108481904D02*
X181175819Y-109053332D01*
X181175819Y-109053332D02*
X181175819Y-108434285D01*
X195000819Y-82021904D02*
X195810342Y-82021904D01*
X195810342Y-82021904D02*
X195905580Y-81974285D01*
X195905580Y-81974285D02*
X195953200Y-81926666D01*
X195953200Y-81926666D02*
X196000819Y-81831428D01*
X196000819Y-81831428D02*
X196000819Y-81640952D01*
X196000819Y-81640952D02*
X195953200Y-81545714D01*
X195953200Y-81545714D02*
X195905580Y-81498095D01*
X195905580Y-81498095D02*
X195810342Y-81450476D01*
X195810342Y-81450476D02*
X195000819Y-81450476D01*
X195096057Y-81021904D02*
X195048438Y-80974285D01*
X195048438Y-80974285D02*
X195000819Y-80879047D01*
X195000819Y-80879047D02*
X195000819Y-80640952D01*
X195000819Y-80640952D02*
X195048438Y-80545714D01*
X195048438Y-80545714D02*
X195096057Y-80498095D01*
X195096057Y-80498095D02*
X195191295Y-80450476D01*
X195191295Y-80450476D02*
X195286533Y-80450476D01*
X195286533Y-80450476D02*
X195429390Y-80498095D01*
X195429390Y-80498095D02*
X196000819Y-81069523D01*
X196000819Y-81069523D02*
X196000819Y-80450476D01*
X183134095Y-99359819D02*
X183134095Y-100169342D01*
X183134095Y-100169342D02*
X183181714Y-100264580D01*
X183181714Y-100264580D02*
X183229333Y-100312200D01*
X183229333Y-100312200D02*
X183324571Y-100359819D01*
X183324571Y-100359819D02*
X183515047Y-100359819D01*
X183515047Y-100359819D02*
X183610285Y-100312200D01*
X183610285Y-100312200D02*
X183657904Y-100264580D01*
X183657904Y-100264580D02*
X183705523Y-100169342D01*
X183705523Y-100169342D02*
X183705523Y-99359819D01*
X184086476Y-99359819D02*
X184753142Y-99359819D01*
X184753142Y-99359819D02*
X184324571Y-100359819D01*
X236960819Y-48593333D02*
X237675104Y-48593333D01*
X237675104Y-48593333D02*
X237817961Y-48640952D01*
X237817961Y-48640952D02*
X237913200Y-48736190D01*
X237913200Y-48736190D02*
X237960819Y-48879047D01*
X237960819Y-48879047D02*
X237960819Y-48974285D01*
X237960819Y-47593333D02*
X237960819Y-48164761D01*
X237960819Y-47879047D02*
X236960819Y-47879047D01*
X236960819Y-47879047D02*
X237103676Y-47974285D01*
X237103676Y-47974285D02*
X237198914Y-48069523D01*
X237198914Y-48069523D02*
X237246533Y-48164761D01*
X172593095Y-55715819D02*
X172593095Y-56525342D01*
X172593095Y-56525342D02*
X172640714Y-56620580D01*
X172640714Y-56620580D02*
X172688333Y-56668200D01*
X172688333Y-56668200D02*
X172783571Y-56715819D01*
X172783571Y-56715819D02*
X172974047Y-56715819D01*
X172974047Y-56715819D02*
X173069285Y-56668200D01*
X173069285Y-56668200D02*
X173116904Y-56620580D01*
X173116904Y-56620580D02*
X173164523Y-56525342D01*
X173164523Y-56525342D02*
X173164523Y-55715819D01*
X173688333Y-56715819D02*
X173878809Y-56715819D01*
X173878809Y-56715819D02*
X173974047Y-56668200D01*
X173974047Y-56668200D02*
X174021666Y-56620580D01*
X174021666Y-56620580D02*
X174116904Y-56477723D01*
X174116904Y-56477723D02*
X174164523Y-56287247D01*
X174164523Y-56287247D02*
X174164523Y-55906295D01*
X174164523Y-55906295D02*
X174116904Y-55811057D01*
X174116904Y-55811057D02*
X174069285Y-55763438D01*
X174069285Y-55763438D02*
X173974047Y-55715819D01*
X173974047Y-55715819D02*
X173783571Y-55715819D01*
X173783571Y-55715819D02*
X173688333Y-55763438D01*
X173688333Y-55763438D02*
X173640714Y-55811057D01*
X173640714Y-55811057D02*
X173593095Y-55906295D01*
X173593095Y-55906295D02*
X173593095Y-56144390D01*
X173593095Y-56144390D02*
X173640714Y-56239628D01*
X173640714Y-56239628D02*
X173688333Y-56287247D01*
X173688333Y-56287247D02*
X173783571Y-56334866D01*
X173783571Y-56334866D02*
X173974047Y-56334866D01*
X173974047Y-56334866D02*
X174069285Y-56287247D01*
X174069285Y-56287247D02*
X174116904Y-56239628D01*
X174116904Y-56239628D02*
X174164523Y-56144390D01*
X183134095Y-79083819D02*
X183134095Y-79893342D01*
X183134095Y-79893342D02*
X183181714Y-79988580D01*
X183181714Y-79988580D02*
X183229333Y-80036200D01*
X183229333Y-80036200D02*
X183324571Y-80083819D01*
X183324571Y-80083819D02*
X183515047Y-80083819D01*
X183515047Y-80083819D02*
X183610285Y-80036200D01*
X183610285Y-80036200D02*
X183657904Y-79988580D01*
X183657904Y-79988580D02*
X183705523Y-79893342D01*
X183705523Y-79893342D02*
X183705523Y-79083819D01*
X184610285Y-79083819D02*
X184419809Y-79083819D01*
X184419809Y-79083819D02*
X184324571Y-79131438D01*
X184324571Y-79131438D02*
X184276952Y-79179057D01*
X184276952Y-79179057D02*
X184181714Y-79321914D01*
X184181714Y-79321914D02*
X184134095Y-79512390D01*
X184134095Y-79512390D02*
X184134095Y-79893342D01*
X184134095Y-79893342D02*
X184181714Y-79988580D01*
X184181714Y-79988580D02*
X184229333Y-80036200D01*
X184229333Y-80036200D02*
X184324571Y-80083819D01*
X184324571Y-80083819D02*
X184515047Y-80083819D01*
X184515047Y-80083819D02*
X184610285Y-80036200D01*
X184610285Y-80036200D02*
X184657904Y-79988580D01*
X184657904Y-79988580D02*
X184705523Y-79893342D01*
X184705523Y-79893342D02*
X184705523Y-79655247D01*
X184705523Y-79655247D02*
X184657904Y-79560009D01*
X184657904Y-79560009D02*
X184610285Y-79512390D01*
X184610285Y-79512390D02*
X184515047Y-79464771D01*
X184515047Y-79464771D02*
X184324571Y-79464771D01*
X184324571Y-79464771D02*
X184229333Y-79512390D01*
X184229333Y-79512390D02*
X184181714Y-79560009D01*
X184181714Y-79560009D02*
X184134095Y-79655247D01*
X194990819Y-122681904D02*
X195800342Y-122681904D01*
X195800342Y-122681904D02*
X195895580Y-122634285D01*
X195895580Y-122634285D02*
X195943200Y-122586666D01*
X195943200Y-122586666D02*
X195990819Y-122491428D01*
X195990819Y-122491428D02*
X195990819Y-122300952D01*
X195990819Y-122300952D02*
X195943200Y-122205714D01*
X195943200Y-122205714D02*
X195895580Y-122158095D01*
X195895580Y-122158095D02*
X195800342Y-122110476D01*
X195800342Y-122110476D02*
X194990819Y-122110476D01*
X195324152Y-121205714D02*
X195990819Y-121205714D01*
X194943200Y-121443809D02*
X195657485Y-121681904D01*
X195657485Y-121681904D02*
X195657485Y-121062857D01*
X201326761Y-50080057D02*
X201231523Y-50032438D01*
X201231523Y-50032438D02*
X201136285Y-49937200D01*
X201136285Y-49937200D02*
X200993428Y-49794342D01*
X200993428Y-49794342D02*
X200898190Y-49746723D01*
X200898190Y-49746723D02*
X200802952Y-49746723D01*
X200850571Y-49984819D02*
X200755333Y-49937200D01*
X200755333Y-49937200D02*
X200660095Y-49841961D01*
X200660095Y-49841961D02*
X200612476Y-49651485D01*
X200612476Y-49651485D02*
X200612476Y-49318152D01*
X200612476Y-49318152D02*
X200660095Y-49127676D01*
X200660095Y-49127676D02*
X200755333Y-49032438D01*
X200755333Y-49032438D02*
X200850571Y-48984819D01*
X200850571Y-48984819D02*
X201041047Y-48984819D01*
X201041047Y-48984819D02*
X201136285Y-49032438D01*
X201136285Y-49032438D02*
X201231523Y-49127676D01*
X201231523Y-49127676D02*
X201279142Y-49318152D01*
X201279142Y-49318152D02*
X201279142Y-49651485D01*
X201279142Y-49651485D02*
X201231523Y-49841961D01*
X201231523Y-49841961D02*
X201136285Y-49937200D01*
X201136285Y-49937200D02*
X201041047Y-49984819D01*
X201041047Y-49984819D02*
X200850571Y-49984819D01*
X202231523Y-49984819D02*
X201660095Y-49984819D01*
X201945809Y-49984819D02*
X201945809Y-48984819D01*
X201945809Y-48984819D02*
X201850571Y-49127676D01*
X201850571Y-49127676D02*
X201755333Y-49222914D01*
X201755333Y-49222914D02*
X201660095Y-49270533D01*
X188174333Y-100054580D02*
X188126714Y-100102200D01*
X188126714Y-100102200D02*
X187983857Y-100149819D01*
X187983857Y-100149819D02*
X187888619Y-100149819D01*
X187888619Y-100149819D02*
X187745762Y-100102200D01*
X187745762Y-100102200D02*
X187650524Y-100006961D01*
X187650524Y-100006961D02*
X187602905Y-99911723D01*
X187602905Y-99911723D02*
X187555286Y-99721247D01*
X187555286Y-99721247D02*
X187555286Y-99578390D01*
X187555286Y-99578390D02*
X187602905Y-99387914D01*
X187602905Y-99387914D02*
X187650524Y-99292676D01*
X187650524Y-99292676D02*
X187745762Y-99197438D01*
X187745762Y-99197438D02*
X187888619Y-99149819D01*
X187888619Y-99149819D02*
X187983857Y-99149819D01*
X187983857Y-99149819D02*
X188126714Y-99197438D01*
X188126714Y-99197438D02*
X188174333Y-99245057D01*
X188507667Y-99149819D02*
X189126714Y-99149819D01*
X189126714Y-99149819D02*
X188793381Y-99530771D01*
X188793381Y-99530771D02*
X188936238Y-99530771D01*
X188936238Y-99530771D02*
X189031476Y-99578390D01*
X189031476Y-99578390D02*
X189079095Y-99626009D01*
X189079095Y-99626009D02*
X189126714Y-99721247D01*
X189126714Y-99721247D02*
X189126714Y-99959342D01*
X189126714Y-99959342D02*
X189079095Y-100054580D01*
X189079095Y-100054580D02*
X189031476Y-100102200D01*
X189031476Y-100102200D02*
X188936238Y-100149819D01*
X188936238Y-100149819D02*
X188650524Y-100149819D01*
X188650524Y-100149819D02*
X188555286Y-100102200D01*
X188555286Y-100102200D02*
X188507667Y-100054580D01*
X183134095Y-119469819D02*
X183134095Y-120279342D01*
X183134095Y-120279342D02*
X183181714Y-120374580D01*
X183181714Y-120374580D02*
X183229333Y-120422200D01*
X183229333Y-120422200D02*
X183324571Y-120469819D01*
X183324571Y-120469819D02*
X183515047Y-120469819D01*
X183515047Y-120469819D02*
X183610285Y-120422200D01*
X183610285Y-120422200D02*
X183657904Y-120374580D01*
X183657904Y-120374580D02*
X183705523Y-120279342D01*
X183705523Y-120279342D02*
X183705523Y-119469819D01*
X184324571Y-119898390D02*
X184229333Y-119850771D01*
X184229333Y-119850771D02*
X184181714Y-119803152D01*
X184181714Y-119803152D02*
X184134095Y-119707914D01*
X184134095Y-119707914D02*
X184134095Y-119660295D01*
X184134095Y-119660295D02*
X184181714Y-119565057D01*
X184181714Y-119565057D02*
X184229333Y-119517438D01*
X184229333Y-119517438D02*
X184324571Y-119469819D01*
X184324571Y-119469819D02*
X184515047Y-119469819D01*
X184515047Y-119469819D02*
X184610285Y-119517438D01*
X184610285Y-119517438D02*
X184657904Y-119565057D01*
X184657904Y-119565057D02*
X184705523Y-119660295D01*
X184705523Y-119660295D02*
X184705523Y-119707914D01*
X184705523Y-119707914D02*
X184657904Y-119803152D01*
X184657904Y-119803152D02*
X184610285Y-119850771D01*
X184610285Y-119850771D02*
X184515047Y-119898390D01*
X184515047Y-119898390D02*
X184324571Y-119898390D01*
X184324571Y-119898390D02*
X184229333Y-119946009D01*
X184229333Y-119946009D02*
X184181714Y-119993628D01*
X184181714Y-119993628D02*
X184134095Y-120088866D01*
X184134095Y-120088866D02*
X184134095Y-120279342D01*
X184134095Y-120279342D02*
X184181714Y-120374580D01*
X184181714Y-120374580D02*
X184229333Y-120422200D01*
X184229333Y-120422200D02*
X184324571Y-120469819D01*
X184324571Y-120469819D02*
X184515047Y-120469819D01*
X184515047Y-120469819D02*
X184610285Y-120422200D01*
X184610285Y-120422200D02*
X184657904Y-120374580D01*
X184657904Y-120374580D02*
X184705523Y-120279342D01*
X184705523Y-120279342D02*
X184705523Y-120088866D01*
X184705523Y-120088866D02*
X184657904Y-119993628D01*
X184657904Y-119993628D02*
X184610285Y-119946009D01*
X184610285Y-119946009D02*
X184515047Y-119898390D01*
X195050580Y-135842666D02*
X195098200Y-135890285D01*
X195098200Y-135890285D02*
X195145819Y-136033142D01*
X195145819Y-136033142D02*
X195145819Y-136128380D01*
X195145819Y-136128380D02*
X195098200Y-136271237D01*
X195098200Y-136271237D02*
X195002961Y-136366475D01*
X195002961Y-136366475D02*
X194907723Y-136414094D01*
X194907723Y-136414094D02*
X194717247Y-136461713D01*
X194717247Y-136461713D02*
X194574390Y-136461713D01*
X194574390Y-136461713D02*
X194383914Y-136414094D01*
X194383914Y-136414094D02*
X194288676Y-136366475D01*
X194288676Y-136366475D02*
X194193438Y-136271237D01*
X194193438Y-136271237D02*
X194145819Y-136128380D01*
X194145819Y-136128380D02*
X194145819Y-136033142D01*
X194145819Y-136033142D02*
X194193438Y-135890285D01*
X194193438Y-135890285D02*
X194241057Y-135842666D01*
X195145819Y-134890285D02*
X195145819Y-135461713D01*
X195145819Y-135175999D02*
X194145819Y-135175999D01*
X194145819Y-135175999D02*
X194288676Y-135271237D01*
X194288676Y-135271237D02*
X194383914Y-135366475D01*
X194383914Y-135366475D02*
X194431533Y-135461713D01*
X181864095Y-55969819D02*
X181864095Y-56779342D01*
X181864095Y-56779342D02*
X181911714Y-56874580D01*
X181911714Y-56874580D02*
X181959333Y-56922200D01*
X181959333Y-56922200D02*
X182054571Y-56969819D01*
X182054571Y-56969819D02*
X182245047Y-56969819D01*
X182245047Y-56969819D02*
X182340285Y-56922200D01*
X182340285Y-56922200D02*
X182387904Y-56874580D01*
X182387904Y-56874580D02*
X182435523Y-56779342D01*
X182435523Y-56779342D02*
X182435523Y-55969819D01*
X183387904Y-55969819D02*
X182911714Y-55969819D01*
X182911714Y-55969819D02*
X182864095Y-56446009D01*
X182864095Y-56446009D02*
X182911714Y-56398390D01*
X182911714Y-56398390D02*
X183006952Y-56350771D01*
X183006952Y-56350771D02*
X183245047Y-56350771D01*
X183245047Y-56350771D02*
X183340285Y-56398390D01*
X183340285Y-56398390D02*
X183387904Y-56446009D01*
X183387904Y-56446009D02*
X183435523Y-56541247D01*
X183435523Y-56541247D02*
X183435523Y-56779342D01*
X183435523Y-56779342D02*
X183387904Y-56874580D01*
X183387904Y-56874580D02*
X183340285Y-56922200D01*
X183340285Y-56922200D02*
X183245047Y-56969819D01*
X183245047Y-56969819D02*
X183006952Y-56969819D01*
X183006952Y-56969819D02*
X182911714Y-56922200D01*
X182911714Y-56922200D02*
X182864095Y-56874580D01*
X192619333Y-56874580D02*
X192571714Y-56922200D01*
X192571714Y-56922200D02*
X192428857Y-56969819D01*
X192428857Y-56969819D02*
X192333619Y-56969819D01*
X192333619Y-56969819D02*
X192190762Y-56922200D01*
X192190762Y-56922200D02*
X192095524Y-56826961D01*
X192095524Y-56826961D02*
X192047905Y-56731723D01*
X192047905Y-56731723D02*
X192000286Y-56541247D01*
X192000286Y-56541247D02*
X192000286Y-56398390D01*
X192000286Y-56398390D02*
X192047905Y-56207914D01*
X192047905Y-56207914D02*
X192095524Y-56112676D01*
X192095524Y-56112676D02*
X192190762Y-56017438D01*
X192190762Y-56017438D02*
X192333619Y-55969819D01*
X192333619Y-55969819D02*
X192428857Y-55969819D01*
X192428857Y-55969819D02*
X192571714Y-56017438D01*
X192571714Y-56017438D02*
X192619333Y-56065057D01*
X193476476Y-56303152D02*
X193476476Y-56969819D01*
X193238381Y-55922200D02*
X193000286Y-56636485D01*
X193000286Y-56636485D02*
X193619333Y-56636485D01*
D11*
%TO.C,C2*%
X235215698Y-51083000D02*
X234415698Y-51083000D01*
X234815698Y-51483000D02*
X234815698Y-50683000D01*
X230806000Y-52848000D02*
X230806000Y-44688000D01*
X230766000Y-52848000D02*
X230766000Y-44688000D01*
X230726000Y-52848000D02*
X230726000Y-44688000D01*
X230686000Y-52847000D02*
X230686000Y-44689000D01*
X230646000Y-52845000D02*
X230646000Y-44691000D01*
X230606000Y-52844000D02*
X230606000Y-44692000D01*
X230566000Y-52842000D02*
X230566000Y-44694000D01*
X230526000Y-52839000D02*
X230526000Y-44697000D01*
X230486000Y-52836000D02*
X230486000Y-44700000D01*
X230446000Y-52833000D02*
X230446000Y-44703000D01*
X230406000Y-52829000D02*
X230406000Y-44707000D01*
X230366000Y-52825000D02*
X230366000Y-44711000D01*
X230326000Y-52820000D02*
X230326000Y-44716000D01*
X230286000Y-52816000D02*
X230286000Y-44720000D01*
X230246000Y-52810000D02*
X230246000Y-44726000D01*
X230206000Y-52805000D02*
X230206000Y-44731000D01*
X230166000Y-52798000D02*
X230166000Y-44738000D01*
X230126000Y-52792000D02*
X230126000Y-44744000D01*
X230085000Y-52785000D02*
X230085000Y-44751000D01*
X230045000Y-52778000D02*
X230045000Y-44758000D01*
X230005000Y-52770000D02*
X230005000Y-44766000D01*
X229965000Y-52762000D02*
X229965000Y-44774000D01*
X229925000Y-52753000D02*
X229925000Y-44783000D01*
X229885000Y-52744000D02*
X229885000Y-44792000D01*
X229845000Y-52735000D02*
X229845000Y-44801000D01*
X229805000Y-52725000D02*
X229805000Y-44811000D01*
X229765000Y-52715000D02*
X229765000Y-44821000D01*
X229725000Y-52704000D02*
X229725000Y-44832000D01*
X229685000Y-52693000D02*
X229685000Y-44843000D01*
X229645000Y-52682000D02*
X229645000Y-44854000D01*
X229605000Y-52670000D02*
X229605000Y-44866000D01*
X229565000Y-52657000D02*
X229565000Y-44879000D01*
X229525000Y-52645000D02*
X229525000Y-44891000D01*
X229485000Y-52631000D02*
X229485000Y-44905000D01*
X229445000Y-52618000D02*
X229445000Y-44918000D01*
X229405000Y-52603000D02*
X229405000Y-44933000D01*
X229365000Y-52589000D02*
X229365000Y-44947000D01*
X229325000Y-52573000D02*
X229325000Y-49808000D01*
X229325000Y-47728000D02*
X229325000Y-44963000D01*
X229285000Y-52558000D02*
X229285000Y-49808000D01*
X229285000Y-47728000D02*
X229285000Y-44978000D01*
X229245000Y-52542000D02*
X229245000Y-49808000D01*
X229245000Y-47728000D02*
X229245000Y-44994000D01*
X229205000Y-52525000D02*
X229205000Y-49808000D01*
X229205000Y-47728000D02*
X229205000Y-45011000D01*
X229165000Y-52508000D02*
X229165000Y-49808000D01*
X229165000Y-47728000D02*
X229165000Y-45028000D01*
X229125000Y-52490000D02*
X229125000Y-49808000D01*
X229125000Y-47728000D02*
X229125000Y-45046000D01*
X229085000Y-52472000D02*
X229085000Y-49808000D01*
X229085000Y-47728000D02*
X229085000Y-45064000D01*
X229045000Y-52454000D02*
X229045000Y-49808000D01*
X229045000Y-47728000D02*
X229045000Y-45082000D01*
X229005000Y-52434000D02*
X229005000Y-49808000D01*
X229005000Y-47728000D02*
X229005000Y-45102000D01*
X228965000Y-52415000D02*
X228965000Y-49808000D01*
X228965000Y-47728000D02*
X228965000Y-45121000D01*
X228925000Y-52395000D02*
X228925000Y-49808000D01*
X228925000Y-47728000D02*
X228925000Y-45141000D01*
X228885000Y-52374000D02*
X228885000Y-49808000D01*
X228885000Y-47728000D02*
X228885000Y-45162000D01*
X228845000Y-52352000D02*
X228845000Y-49808000D01*
X228845000Y-47728000D02*
X228845000Y-45184000D01*
X228805000Y-52330000D02*
X228805000Y-49808000D01*
X228805000Y-47728000D02*
X228805000Y-45206000D01*
X228765000Y-52308000D02*
X228765000Y-49808000D01*
X228765000Y-47728000D02*
X228765000Y-45228000D01*
X228725000Y-52285000D02*
X228725000Y-49808000D01*
X228725000Y-47728000D02*
X228725000Y-45251000D01*
X228685000Y-52261000D02*
X228685000Y-49808000D01*
X228685000Y-47728000D02*
X228685000Y-45275000D01*
X228645000Y-52237000D02*
X228645000Y-49808000D01*
X228645000Y-47728000D02*
X228645000Y-45299000D01*
X228605000Y-52212000D02*
X228605000Y-49808000D01*
X228605000Y-47728000D02*
X228605000Y-45324000D01*
X228565000Y-52186000D02*
X228565000Y-49808000D01*
X228565000Y-47728000D02*
X228565000Y-45350000D01*
X228525000Y-52160000D02*
X228525000Y-49808000D01*
X228525000Y-47728000D02*
X228525000Y-45376000D01*
X228485000Y-52133000D02*
X228485000Y-49808000D01*
X228485000Y-47728000D02*
X228485000Y-45403000D01*
X228445000Y-52106000D02*
X228445000Y-49808000D01*
X228445000Y-47728000D02*
X228445000Y-45430000D01*
X228405000Y-52077000D02*
X228405000Y-49808000D01*
X228405000Y-47728000D02*
X228405000Y-45459000D01*
X228365000Y-52048000D02*
X228365000Y-49808000D01*
X228365000Y-47728000D02*
X228365000Y-45488000D01*
X228325000Y-52018000D02*
X228325000Y-49808000D01*
X228325000Y-47728000D02*
X228325000Y-45518000D01*
X228285000Y-51988000D02*
X228285000Y-49808000D01*
X228285000Y-47728000D02*
X228285000Y-45548000D01*
X228245000Y-51957000D02*
X228245000Y-49808000D01*
X228245000Y-47728000D02*
X228245000Y-45579000D01*
X228205000Y-51924000D02*
X228205000Y-49808000D01*
X228205000Y-47728000D02*
X228205000Y-45612000D01*
X228165000Y-51892000D02*
X228165000Y-49808000D01*
X228165000Y-47728000D02*
X228165000Y-45644000D01*
X228125000Y-51858000D02*
X228125000Y-49808000D01*
X228125000Y-47728000D02*
X228125000Y-45678000D01*
X228085000Y-51823000D02*
X228085000Y-49808000D01*
X228085000Y-47728000D02*
X228085000Y-45713000D01*
X228045000Y-51787000D02*
X228045000Y-49808000D01*
X228045000Y-47728000D02*
X228045000Y-45749000D01*
X228005000Y-51751000D02*
X228005000Y-49808000D01*
X228005000Y-47728000D02*
X228005000Y-45785000D01*
X227965000Y-51713000D02*
X227965000Y-49808000D01*
X227965000Y-47728000D02*
X227965000Y-45823000D01*
X227925000Y-51675000D02*
X227925000Y-49808000D01*
X227925000Y-47728000D02*
X227925000Y-45861000D01*
X227885000Y-51635000D02*
X227885000Y-49808000D01*
X227885000Y-47728000D02*
X227885000Y-45901000D01*
X227845000Y-51594000D02*
X227845000Y-49808000D01*
X227845000Y-47728000D02*
X227845000Y-45942000D01*
X227805000Y-51552000D02*
X227805000Y-49808000D01*
X227805000Y-47728000D02*
X227805000Y-45984000D01*
X227765000Y-51509000D02*
X227765000Y-49808000D01*
X227765000Y-47728000D02*
X227765000Y-46027000D01*
X227725000Y-51465000D02*
X227725000Y-49808000D01*
X227725000Y-47728000D02*
X227725000Y-46071000D01*
X227685000Y-51419000D02*
X227685000Y-49808000D01*
X227685000Y-47728000D02*
X227685000Y-46117000D01*
X227645000Y-51372000D02*
X227645000Y-49808000D01*
X227645000Y-47728000D02*
X227645000Y-46164000D01*
X227605000Y-51324000D02*
X227605000Y-49808000D01*
X227605000Y-47728000D02*
X227605000Y-46212000D01*
X227565000Y-51273000D02*
X227565000Y-49808000D01*
X227565000Y-47728000D02*
X227565000Y-46263000D01*
X227525000Y-51222000D02*
X227525000Y-49808000D01*
X227525000Y-47728000D02*
X227525000Y-46314000D01*
X227485000Y-51168000D02*
X227485000Y-49808000D01*
X227485000Y-47728000D02*
X227485000Y-46368000D01*
X227445000Y-51113000D02*
X227445000Y-49808000D01*
X227445000Y-47728000D02*
X227445000Y-46423000D01*
X227405000Y-51055000D02*
X227405000Y-49808000D01*
X227405000Y-47728000D02*
X227405000Y-46481000D01*
X227365000Y-50996000D02*
X227365000Y-49808000D01*
X227365000Y-47728000D02*
X227365000Y-46540000D01*
X227325000Y-50934000D02*
X227325000Y-49808000D01*
X227325000Y-47728000D02*
X227325000Y-46602000D01*
X227285000Y-50870000D02*
X227285000Y-49808000D01*
X227285000Y-47728000D02*
X227285000Y-46666000D01*
X227245000Y-50802000D02*
X227245000Y-46734000D01*
X227205000Y-50732000D02*
X227205000Y-46804000D01*
X227165000Y-50658000D02*
X227165000Y-46878000D01*
X227125000Y-50581000D02*
X227125000Y-46955000D01*
X227085000Y-50499000D02*
X227085000Y-47037000D01*
X227045000Y-50413000D02*
X227045000Y-47123000D01*
X227005000Y-50320000D02*
X227005000Y-47216000D01*
X226965000Y-50221000D02*
X226965000Y-47315000D01*
X226925000Y-50114000D02*
X226925000Y-47422000D01*
X226885000Y-49997000D02*
X226885000Y-47539000D01*
X226845000Y-49866000D02*
X226845000Y-47670000D01*
X226805000Y-49716000D02*
X226805000Y-47820000D01*
X226765000Y-49536000D02*
X226765000Y-48000000D01*
X226725000Y-49301000D02*
X226725000Y-48235000D01*
X234926000Y-48768000D02*
G75*
G02*
X226686000Y-48768000I-4120000J0D01*
G01*
X226686000Y-48768000D02*
G75*
G02*
X234926000Y-48768000I4120000J0D01*
G01*
%TO.C,SW1*%
X173168000Y-125670000D02*
X173168000Y-135950000D01*
X173168000Y-125670000D02*
X178308000Y-125670000D01*
X173168000Y-135950000D02*
X178368000Y-135950000D01*
X173198000Y-130810000D02*
X178338000Y-130810000D01*
X173228000Y-133350000D02*
X178368000Y-133350000D01*
X178308000Y-125730000D02*
X178368000Y-135950000D01*
%TO.C,R1*%
X179224000Y-87535000D02*
X179224000Y-94075000D01*
X179224000Y-94075000D02*
X179554000Y-94075000D01*
X179554000Y-87535000D02*
X179224000Y-87535000D01*
X181634000Y-87535000D02*
X181964000Y-87535000D01*
X181964000Y-87535000D02*
X181964000Y-94075000D01*
X181964000Y-94075000D02*
X181634000Y-94075000D01*
%TO.C,U3*%
X196536000Y-95140000D02*
X196536000Y-100600000D01*
X196536000Y-102600000D02*
X196536000Y-108060000D01*
X196536000Y-108060000D02*
X232216000Y-108060000D01*
X232216000Y-95140000D02*
X196536000Y-95140000D01*
X232216000Y-108060000D02*
X232216000Y-95140000D01*
X196536000Y-100600000D02*
G75*
G02*
X196536000Y-102600000I0J-1000000D01*
G01*
%TO.C,U1*%
X196536000Y-54500000D02*
X196536000Y-59960000D01*
X196536000Y-61960000D02*
X196536000Y-67420000D01*
X196536000Y-67420000D02*
X232216000Y-67420000D01*
X232216000Y-54500000D02*
X196536000Y-54500000D01*
X232216000Y-67420000D02*
X232216000Y-54500000D01*
X196536000Y-59960000D02*
G75*
G02*
X196536000Y-61960000I0J-1000000D01*
G01*
%TO.C,R2*%
X179732000Y-112300000D02*
X180062000Y-112300000D01*
X179732000Y-118840000D02*
X179732000Y-112300000D01*
X180062000Y-118840000D02*
X179732000Y-118840000D01*
X182142000Y-118840000D02*
X182472000Y-118840000D01*
X182472000Y-112300000D02*
X182142000Y-112300000D01*
X182472000Y-118840000D02*
X182472000Y-112300000D01*
%TO.C,U2*%
X196546000Y-74800000D02*
X196546000Y-80260000D01*
X196546000Y-82260000D02*
X196546000Y-87720000D01*
X196546000Y-87720000D02*
X232226000Y-87720000D01*
X232226000Y-74800000D02*
X196546000Y-74800000D01*
X232226000Y-87720000D02*
X232226000Y-74800000D01*
X196546000Y-80260000D02*
G75*
G02*
X196546000Y-82260000I0J-1000000D01*
G01*
%TO.C,U7*%
X185456000Y-100905000D02*
X185456000Y-118805000D01*
X185456000Y-118805000D02*
X189956000Y-118805000D01*
X186706000Y-100905000D02*
X185456000Y-100905000D01*
X189956000Y-100905000D02*
X188706000Y-100905000D01*
X189956000Y-118805000D02*
X189956000Y-100905000D01*
X188706000Y-100905000D02*
G75*
G02*
X186706000Y-100905000I-1000000J0D01*
G01*
%TO.C,J1*%
X238206000Y-133950000D02*
X238506000Y-133350000D01*
X238246000Y-45450000D02*
X238246000Y-50970000D01*
X238246000Y-50970000D02*
X239246000Y-50970000D01*
X238246000Y-134450000D02*
X239246000Y-134450000D01*
X238246000Y-139970000D02*
X238246000Y-134450000D01*
X238506000Y-133350000D02*
X238806000Y-133950000D01*
X238806000Y-133950000D02*
X238206000Y-133950000D01*
X239246000Y-50969000D02*
X239246000Y-52245000D01*
X239246000Y-54435000D02*
X239246000Y-55011000D01*
X239246000Y-56750000D02*
X239246000Y-57551000D01*
X239246000Y-59290000D02*
X239246000Y-60091000D01*
X239246000Y-61830000D02*
X239246000Y-62631000D01*
X239246000Y-65170000D02*
X239246000Y-64369000D01*
X239246000Y-67710000D02*
X239246000Y-66909000D01*
X239246000Y-70250000D02*
X239246000Y-69449000D01*
X239246000Y-72790000D02*
X239246000Y-71989000D01*
X239246000Y-75330000D02*
X239246000Y-74529000D01*
X239246000Y-77870000D02*
X239246000Y-77069000D01*
X239246000Y-80410000D02*
X239246000Y-79609000D01*
X239246000Y-82950000D02*
X239246000Y-82149000D01*
X239246000Y-85490000D02*
X239246000Y-84689000D01*
X239246000Y-88030000D02*
X239246000Y-87229000D01*
X239246000Y-90570000D02*
X239246000Y-89769000D01*
X239246000Y-93110000D02*
X239246000Y-92309000D01*
X239246000Y-95650000D02*
X239246000Y-94849000D01*
X239246000Y-98190000D02*
X239246000Y-97389000D01*
X239246000Y-100730000D02*
X239246000Y-99929000D01*
X239246000Y-103270000D02*
X239246000Y-102469000D01*
X239246000Y-105810000D02*
X239246000Y-105009000D01*
X239246000Y-108350000D02*
X239246000Y-107549000D01*
X239246000Y-110890000D02*
X239246000Y-110089000D01*
X239246000Y-113430000D02*
X239246000Y-112629000D01*
X239246000Y-115970000D02*
X239246000Y-115169000D01*
X239246000Y-118510000D02*
X239246000Y-117709000D01*
X239246000Y-121050000D02*
X239246000Y-120249000D01*
X239246000Y-122790000D02*
X239246000Y-123591000D01*
X239246000Y-125330000D02*
X239246000Y-126131000D01*
X239246000Y-127870000D02*
X239246000Y-128671000D01*
X239246000Y-130410000D02*
X239246000Y-131211000D01*
X239246000Y-132950000D02*
X239246000Y-134450000D01*
X243806000Y-45450000D02*
X238246000Y-45450000D01*
X243806000Y-139970000D02*
X238246000Y-139970000D01*
%TO.C,U9*%
X172276000Y-44918000D02*
X188166000Y-44918000D01*
X172276000Y-55158000D02*
X172276000Y-44918000D01*
X172276000Y-55158000D02*
X188166000Y-55158000D01*
X188166000Y-47498000D02*
X190706000Y-47498000D01*
X188166000Y-50038000D02*
X190706000Y-50038000D01*
X188166000Y-52578000D02*
X190706000Y-52578000D01*
X188166000Y-55158000D02*
X188166000Y-44918000D01*
%TO.C,U6*%
X185456000Y-80585000D02*
X185456000Y-98485000D01*
X185456000Y-98485000D02*
X189956000Y-98485000D01*
X186706000Y-80585000D02*
X185456000Y-80585000D01*
X189956000Y-80585000D02*
X188706000Y-80585000D01*
X189956000Y-98485000D02*
X189956000Y-80585000D01*
X188706000Y-80585000D02*
G75*
G02*
X186706000Y-80585000I-1000000J0D01*
G01*
%TO.C,U4*%
X196536000Y-115460000D02*
X196536000Y-120920000D01*
X196536000Y-122920000D02*
X196536000Y-128380000D01*
X196536000Y-128380000D02*
X232216000Y-128380000D01*
X232216000Y-115460000D02*
X196536000Y-115460000D01*
X232216000Y-128380000D02*
X232216000Y-115460000D01*
X196536000Y-120920000D02*
G75*
G02*
X196536000Y-122920000I0J-1000000D01*
G01*
%TO.C,Q1*%
X207032000Y-47680000D02*
X203432000Y-47680000D01*
X205232000Y-52130000D02*
G75*
G02*
X203393522Y-47691522I0J2600000D01*
G01*
X207070478Y-47691522D02*
G75*
G02*
X205232000Y-52130001I-1838478J-1838478D01*
G01*
%TO.C,C3*%
X190516000Y-98513000D02*
X190516000Y-98498000D01*
X190516000Y-100638000D02*
X190516000Y-100623000D01*
X195056000Y-98498000D02*
X190516000Y-98498000D01*
X195056000Y-98513000D02*
X195056000Y-98498000D01*
X195056000Y-100638000D02*
X190516000Y-100638000D01*
X195056000Y-100638000D02*
X195056000Y-100623000D01*
%TO.C,U8*%
X185456000Y-120590000D02*
X185456000Y-138490000D01*
X185456000Y-138490000D02*
X189956000Y-138490000D01*
X186706000Y-120590000D02*
X185456000Y-120590000D01*
X189956000Y-120590000D02*
X188706000Y-120590000D01*
X189956000Y-138490000D02*
X189956000Y-120590000D01*
X188706000Y-120590000D02*
G75*
G02*
X186706000Y-120590000I-1000000J0D01*
G01*
%TO.C,C1*%
X195780000Y-133406000D02*
X195780000Y-137946000D01*
X195795000Y-133406000D02*
X195780000Y-133406000D01*
X195795000Y-137946000D02*
X195780000Y-137946000D01*
X197920000Y-133406000D02*
X197905000Y-133406000D01*
X197920000Y-133406000D02*
X197920000Y-137946000D01*
X197920000Y-137946000D02*
X197905000Y-137946000D01*
%TO.C,U5*%
X185202000Y-57725000D02*
X185202000Y-78165000D01*
X185202000Y-78165000D02*
X189702000Y-78165000D01*
X186452000Y-57725000D02*
X185202000Y-57725000D01*
X189702000Y-57725000D02*
X188452000Y-57725000D01*
X189702000Y-78165000D02*
X189702000Y-57725000D01*
X188452000Y-57725000D02*
G75*
G02*
X186452000Y-57725000I-1000000J0D01*
G01*
%TO.C,C4*%
X185396000Y-55333000D02*
X185396000Y-55318000D01*
X185396000Y-57458000D02*
X185396000Y-57443000D01*
X189936000Y-55318000D02*
X185396000Y-55318000D01*
X189936000Y-55333000D02*
X189936000Y-55318000D01*
X189936000Y-57458000D02*
X185396000Y-57458000D01*
X189936000Y-57458000D02*
X189936000Y-57443000D01*
%TD*%
D12*
X233306000Y-48768000D03*
X228306000Y-48768000D03*
X172593000Y-123825000D03*
X172593000Y-137795000D03*
X178943000Y-123825000D03*
X178943000Y-137795000D03*
X177038000Y-127000000D03*
X177038000Y-129540000D03*
X177038000Y-132080000D03*
X177038000Y-134620000D03*
X174498000Y-127000000D03*
X174498000Y-129540000D03*
X174498000Y-132080000D03*
X174498000Y-134620000D03*
X180594000Y-86995000D03*
X180594000Y-94615000D03*
X197866000Y-109220000D03*
X200406000Y-109220000D03*
X202946000Y-109220000D03*
X205486000Y-109220000D03*
X208026000Y-109220000D03*
X210566000Y-109220000D03*
X213106000Y-109220000D03*
X215646000Y-109220000D03*
X218186000Y-109220000D03*
X220726000Y-109220000D03*
X223266000Y-109220000D03*
X225806000Y-109220000D03*
X228346000Y-109220000D03*
X230886000Y-109220000D03*
X230886000Y-93980000D03*
X228346000Y-93980000D03*
X225806000Y-93980000D03*
X223266000Y-93980000D03*
X220726000Y-93980000D03*
X218186000Y-93980000D03*
X215646000Y-93980000D03*
X213106000Y-93980000D03*
X210566000Y-93980000D03*
X208026000Y-93980000D03*
X205486000Y-93980000D03*
X202946000Y-93980000D03*
X200406000Y-93980000D03*
X197866000Y-93980000D03*
X197866000Y-68580000D03*
X200406000Y-68580000D03*
X202946000Y-68580000D03*
X205486000Y-68580000D03*
X208026000Y-68580000D03*
X210566000Y-68580000D03*
X213106000Y-68580000D03*
X215646000Y-68580000D03*
X218186000Y-68580000D03*
X220726000Y-68580000D03*
X223266000Y-68580000D03*
X225806000Y-68580000D03*
X228346000Y-68580000D03*
X230886000Y-68580000D03*
X230886000Y-53340000D03*
X228346000Y-53340000D03*
X225806000Y-53340000D03*
X223266000Y-53340000D03*
X220726000Y-53340000D03*
X218186000Y-53340000D03*
X215646000Y-53340000D03*
X213106000Y-53340000D03*
X210566000Y-53340000D03*
X208026000Y-53340000D03*
X205486000Y-53340000D03*
X202946000Y-53340000D03*
X200406000Y-53340000D03*
X197866000Y-53340000D03*
X181102000Y-119380000D03*
X181102000Y-111760000D03*
X197876000Y-88880000D03*
X200416000Y-88880000D03*
X202956000Y-88880000D03*
X205496000Y-88880000D03*
X208036000Y-88880000D03*
X210576000Y-88880000D03*
X213116000Y-88880000D03*
X215656000Y-88880000D03*
X218196000Y-88880000D03*
X220736000Y-88880000D03*
X223276000Y-88880000D03*
X225816000Y-88880000D03*
X228356000Y-88880000D03*
X230896000Y-88880000D03*
X230896000Y-73640000D03*
X228356000Y-73640000D03*
X225816000Y-73640000D03*
X223276000Y-73640000D03*
X220736000Y-73640000D03*
X218196000Y-73640000D03*
X215656000Y-73640000D03*
X213116000Y-73640000D03*
X210576000Y-73640000D03*
X208036000Y-73640000D03*
X205496000Y-73640000D03*
X202956000Y-73640000D03*
X200416000Y-73640000D03*
X197876000Y-73640000D03*
X183896000Y-102235000D03*
X183896000Y-104775000D03*
X183896000Y-107315000D03*
X183896000Y-109855000D03*
X183896000Y-112395000D03*
X183896000Y-114935000D03*
X183896000Y-117475000D03*
X191516000Y-117475000D03*
X191516000Y-114935000D03*
X191516000Y-112395000D03*
X191516000Y-109855000D03*
X191516000Y-107315000D03*
X191516000Y-104775000D03*
X191516000Y-102235000D03*
X241046000Y-48260000D03*
X241046000Y-137160000D03*
X238506000Y-132080000D03*
X238506000Y-129540000D03*
X238506000Y-127000000D03*
X238506000Y-124460000D03*
X238506000Y-121920000D03*
X238506000Y-119380000D03*
X238506000Y-116840000D03*
X238506000Y-114300000D03*
X238506000Y-111760000D03*
X238506000Y-109220000D03*
X238506000Y-106680000D03*
X238506000Y-104140000D03*
X238506000Y-101600000D03*
X238506000Y-99060000D03*
X238506000Y-96520000D03*
X238506000Y-93980000D03*
X238506000Y-91440000D03*
X238506000Y-88900000D03*
X238506000Y-86360000D03*
X238506000Y-83820000D03*
X238506000Y-81280000D03*
X238506000Y-78740000D03*
X238506000Y-76200000D03*
X238506000Y-73660000D03*
X238506000Y-71120000D03*
X238506000Y-68580000D03*
X238506000Y-66040000D03*
X238506000Y-63500000D03*
X238506000Y-60960000D03*
X238506000Y-58420000D03*
X238506000Y-55880000D03*
X238506000Y-53340000D03*
X235966000Y-132080000D03*
X235966000Y-129540000D03*
X235966000Y-127000000D03*
X235966000Y-124460000D03*
X235966000Y-121920000D03*
X235966000Y-119380000D03*
X235966000Y-116840000D03*
X235966000Y-114300000D03*
X235966000Y-111760000D03*
X235966000Y-109220000D03*
X235966000Y-106680000D03*
X235966000Y-104140000D03*
X235966000Y-101600000D03*
X235966000Y-99060000D03*
X235966000Y-96520000D03*
X235966000Y-93980000D03*
X235966000Y-91440000D03*
X235966000Y-88900000D03*
X235966000Y-86360000D03*
X235966000Y-83820000D03*
X235966000Y-81280000D03*
X235966000Y-78740000D03*
X235966000Y-76200000D03*
X235966000Y-73660000D03*
X235966000Y-71120000D03*
X235966000Y-68580000D03*
X235966000Y-66040000D03*
X235966000Y-63500000D03*
X235966000Y-60960000D03*
X235966000Y-58420000D03*
X235966000Y-55880000D03*
X235966000Y-53340000D03*
X175196000Y-50038000D03*
X191856000Y-52578000D03*
X191856000Y-50038000D03*
X191856000Y-47498000D03*
X183896000Y-81915000D03*
X183896000Y-84455000D03*
X183896000Y-86995000D03*
X183896000Y-89535000D03*
X183896000Y-92075000D03*
X183896000Y-94615000D03*
X183896000Y-97155000D03*
X191516000Y-97155000D03*
X191516000Y-94615000D03*
X191516000Y-92075000D03*
X191516000Y-89535000D03*
X191516000Y-86995000D03*
X191516000Y-84455000D03*
X191516000Y-81915000D03*
X197866000Y-129540000D03*
X200406000Y-129540000D03*
X202946000Y-129540000D03*
X205486000Y-129540000D03*
X208026000Y-129540000D03*
X210566000Y-129540000D03*
X213106000Y-129540000D03*
X215646000Y-129540000D03*
X218186000Y-129540000D03*
X220726000Y-129540000D03*
X223266000Y-129540000D03*
X225806000Y-129540000D03*
X228346000Y-129540000D03*
X230886000Y-129540000D03*
X230886000Y-114300000D03*
X228346000Y-114300000D03*
X225806000Y-114300000D03*
X223266000Y-114300000D03*
X220726000Y-114300000D03*
X218186000Y-114300000D03*
X215646000Y-114300000D03*
X213106000Y-114300000D03*
X210566000Y-114300000D03*
X208026000Y-114300000D03*
X205486000Y-114300000D03*
X202946000Y-114300000D03*
X200406000Y-114300000D03*
X197866000Y-114300000D03*
X206502000Y-49530000D03*
X205232000Y-49530000D03*
X203962000Y-49530000D03*
X195286000Y-99568000D03*
X190286000Y-99568000D03*
X183896000Y-121920000D03*
X183896000Y-124460000D03*
X183896000Y-127000000D03*
X183896000Y-129540000D03*
X183896000Y-132080000D03*
X183896000Y-134620000D03*
X183896000Y-137160000D03*
X191516000Y-137160000D03*
X191516000Y-134620000D03*
X191516000Y-132080000D03*
X191516000Y-129540000D03*
X191516000Y-127000000D03*
X191516000Y-124460000D03*
X191516000Y-121920000D03*
X196850000Y-133176000D03*
X196850000Y-138176000D03*
X183642000Y-59055000D03*
X183642000Y-61595000D03*
X183642000Y-64135000D03*
X183642000Y-66675000D03*
X183642000Y-69215000D03*
X183642000Y-71755000D03*
X183642000Y-74295000D03*
X183642000Y-76835000D03*
X191262000Y-76835000D03*
X191262000Y-74295000D03*
X191262000Y-71755000D03*
X191262000Y-69215000D03*
X191262000Y-66675000D03*
X191262000Y-64135000D03*
X191262000Y-61595000D03*
X191262000Y-59055000D03*
X190166000Y-56388000D03*
X185166000Y-56388000D03*
M02*
