%TF.GenerationSoftware,KiCad,Pcbnew,8.0.3+1*%
%TF.CreationDate,2024-07-14T18:41:45+02:00*%
%TF.ProjectId,QL_GST_Rom_board,514c5f47-5354-45f5-926f-6d5f626f6172,rev?*%
%TF.SameCoordinates,Original*%
%TF.FileFunction,Copper,L1,Top*%
%TF.FilePolarity,Positive*%
%FSLAX46Y46*%
G04 Gerber Fmt 4.6, Leading zero omitted, Abs format (unit mm)*
G04 Created by KiCad (PCBNEW 8.0.3+1) date 2024-07-14 18:41:45*
%MOMM*%
%LPD*%
G01*
G04 APERTURE LIST*
G04 Aperture macros list*
%AMRoundRect*
0 Rectangle with rounded corners*
0 $1 Rounding radius*
0 $2 $3 $4 $5 $6 $7 $8 $9 X,Y pos of 4 corners*
0 Add a 4 corners polygon primitive as box body*
4,1,4,$2,$3,$4,$5,$6,$7,$8,$9,$2,$3,0*
0 Add four circle primitives for the rounded corners*
1,1,$1+$1,$2,$3*
1,1,$1+$1,$4,$5*
1,1,$1+$1,$6,$7*
1,1,$1+$1,$8,$9*
0 Add four rect primitives between the rounded corners*
20,1,$1+$1,$2,$3,$4,$5,0*
20,1,$1+$1,$4,$5,$6,$7,0*
20,1,$1+$1,$6,$7,$8,$9,0*
20,1,$1+$1,$8,$9,$2,$3,0*%
G04 Aperture macros list end*
%ADD10C,0.300000*%
%TA.AperFunction,NonConductor*%
%ADD11C,0.300000*%
%TD*%
%TA.AperFunction,ComponentPad*%
%ADD12R,1.600000X1.600000*%
%TD*%
%TA.AperFunction,ComponentPad*%
%ADD13C,1.600000*%
%TD*%
%TA.AperFunction,ComponentPad*%
%ADD14O,1.700000X1.700000*%
%TD*%
%TA.AperFunction,ComponentPad*%
%ADD15R,1.700000X1.700000*%
%TD*%
%TA.AperFunction,ComponentPad*%
%ADD16O,1.600000X1.600000*%
%TD*%
%TA.AperFunction,ComponentPad*%
%ADD17R,2.400000X1.600000*%
%TD*%
%TA.AperFunction,ComponentPad*%
%ADD18O,2.400000X1.600000*%
%TD*%
%TA.AperFunction,ComponentPad*%
%ADD19RoundRect,0.249999X0.525001X-0.525001X0.525001X0.525001X-0.525001X0.525001X-0.525001X-0.525001X0*%
%TD*%
%TA.AperFunction,ComponentPad*%
%ADD20C,1.550000*%
%TD*%
%TA.AperFunction,ComponentPad*%
%ADD21R,2.000000X1.905000*%
%TD*%
%TA.AperFunction,ComponentPad*%
%ADD22O,2.000000X1.905000*%
%TD*%
%TA.AperFunction,ComponentPad*%
%ADD23R,1.050000X1.500000*%
%TD*%
%TA.AperFunction,ComponentPad*%
%ADD24O,1.050000X1.500000*%
%TD*%
%TA.AperFunction,ViaPad*%
%ADD25C,0.800000*%
%TD*%
%TA.AperFunction,Conductor*%
%ADD26C,0.250000*%
%TD*%
%TA.AperFunction,Conductor*%
%ADD27C,0.635000*%
%TD*%
%ADD28C,0.350000*%
G04 APERTURE END LIST*
D10*
D11*
X205925060Y-47752832D02*
X206306012Y-47752832D01*
X206306012Y-47752832D02*
X206496489Y-47669499D01*
X206496489Y-47669499D02*
X206591727Y-47586165D01*
X206591727Y-47586165D02*
X206782203Y-47336165D01*
X206782203Y-47336165D02*
X206877441Y-47002832D01*
X206877441Y-47002832D02*
X206877441Y-46336165D01*
X206877441Y-46336165D02*
X206782203Y-46169499D01*
X206782203Y-46169499D02*
X206686965Y-46086165D01*
X206686965Y-46086165D02*
X206496489Y-46002832D01*
X206496489Y-46002832D02*
X206115536Y-46002832D01*
X206115536Y-46002832D02*
X205925060Y-46086165D01*
X205925060Y-46086165D02*
X205829822Y-46169499D01*
X205829822Y-46169499D02*
X205734584Y-46336165D01*
X205734584Y-46336165D02*
X205734584Y-46752832D01*
X205734584Y-46752832D02*
X205829822Y-46919499D01*
X205829822Y-46919499D02*
X205925060Y-47002832D01*
X205925060Y-47002832D02*
X206115536Y-47086165D01*
X206115536Y-47086165D02*
X206496489Y-47086165D01*
X206496489Y-47086165D02*
X206686965Y-47002832D01*
X206686965Y-47002832D02*
X206782203Y-46919499D01*
X206782203Y-46919499D02*
X206877441Y-46752832D01*
X207829822Y-47752832D02*
X208210774Y-47752832D01*
X208210774Y-47752832D02*
X208401251Y-47669499D01*
X208401251Y-47669499D02*
X208496489Y-47586165D01*
X208496489Y-47586165D02*
X208686965Y-47336165D01*
X208686965Y-47336165D02*
X208782203Y-47002832D01*
X208782203Y-47002832D02*
X208782203Y-46336165D01*
X208782203Y-46336165D02*
X208686965Y-46169499D01*
X208686965Y-46169499D02*
X208591727Y-46086165D01*
X208591727Y-46086165D02*
X208401251Y-46002832D01*
X208401251Y-46002832D02*
X208020298Y-46002832D01*
X208020298Y-46002832D02*
X207829822Y-46086165D01*
X207829822Y-46086165D02*
X207734584Y-46169499D01*
X207734584Y-46169499D02*
X207639346Y-46336165D01*
X207639346Y-46336165D02*
X207639346Y-46752832D01*
X207639346Y-46752832D02*
X207734584Y-46919499D01*
X207734584Y-46919499D02*
X207829822Y-47002832D01*
X207829822Y-47002832D02*
X208020298Y-47086165D01*
X208020298Y-47086165D02*
X208401251Y-47086165D01*
X208401251Y-47086165D02*
X208591727Y-47002832D01*
X208591727Y-47002832D02*
X208686965Y-46919499D01*
X208686965Y-46919499D02*
X208782203Y-46752832D01*
X209734584Y-47752832D02*
X210115536Y-47752832D01*
X210115536Y-47752832D02*
X210306013Y-47669499D01*
X210306013Y-47669499D02*
X210401251Y-47586165D01*
X210401251Y-47586165D02*
X210591727Y-47336165D01*
X210591727Y-47336165D02*
X210686965Y-47002832D01*
X210686965Y-47002832D02*
X210686965Y-46336165D01*
X210686965Y-46336165D02*
X210591727Y-46169499D01*
X210591727Y-46169499D02*
X210496489Y-46086165D01*
X210496489Y-46086165D02*
X210306013Y-46002832D01*
X210306013Y-46002832D02*
X209925060Y-46002832D01*
X209925060Y-46002832D02*
X209734584Y-46086165D01*
X209734584Y-46086165D02*
X209639346Y-46169499D01*
X209639346Y-46169499D02*
X209544108Y-46336165D01*
X209544108Y-46336165D02*
X209544108Y-46752832D01*
X209544108Y-46752832D02*
X209639346Y-46919499D01*
X209639346Y-46919499D02*
X209734584Y-47002832D01*
X209734584Y-47002832D02*
X209925060Y-47086165D01*
X209925060Y-47086165D02*
X210306013Y-47086165D01*
X210306013Y-47086165D02*
X210496489Y-47002832D01*
X210496489Y-47002832D02*
X210591727Y-46919499D01*
X210591727Y-46919499D02*
X210686965Y-46752832D01*
X211448870Y-46169499D02*
X211544108Y-46086165D01*
X211544108Y-46086165D02*
X211734584Y-46002832D01*
X211734584Y-46002832D02*
X212210775Y-46002832D01*
X212210775Y-46002832D02*
X212401251Y-46086165D01*
X212401251Y-46086165D02*
X212496489Y-46169499D01*
X212496489Y-46169499D02*
X212591727Y-46336165D01*
X212591727Y-46336165D02*
X212591727Y-46502832D01*
X212591727Y-46502832D02*
X212496489Y-46752832D01*
X212496489Y-46752832D02*
X211353632Y-47752832D01*
X211353632Y-47752832D02*
X212591727Y-47752832D01*
X213448870Y-47086165D02*
X214972680Y-47086165D01*
X216782203Y-46586165D02*
X216782203Y-47752832D01*
X216306012Y-45919499D02*
X215829822Y-47169499D01*
X215829822Y-47169499D02*
X217067917Y-47169499D01*
X215258393Y-48736901D02*
X213544108Y-50986901D01*
X216972679Y-50570234D02*
X215829822Y-50570234D01*
X216401250Y-50570234D02*
X216401250Y-48820234D01*
X216401250Y-48820234D02*
X216210774Y-49070234D01*
X216210774Y-49070234D02*
X216020298Y-49236901D01*
X216020298Y-49236901D02*
X215829822Y-49320234D01*
D10*
G36*
X171952581Y-104189198D02*
G01*
X171991245Y-104226188D01*
X172037693Y-104315648D01*
X172038558Y-104496032D01*
X172037577Y-104501597D01*
X172038608Y-104506250D01*
X172039571Y-104707113D01*
X171551120Y-104708034D01*
X171549275Y-104323529D01*
X171592680Y-104233307D01*
X171629671Y-104194641D01*
X171719568Y-104147967D01*
X171863339Y-104146265D01*
X171952581Y-104189198D01*
G37*
G36*
X171952581Y-101332055D02*
G01*
X171991245Y-101369045D01*
X172037693Y-101458505D01*
X172039571Y-101849970D01*
X171551120Y-101850891D01*
X171549275Y-101466386D01*
X171592680Y-101376164D01*
X171629671Y-101337498D01*
X171719568Y-101290824D01*
X171863339Y-101289122D01*
X171952581Y-101332055D01*
G37*
G36*
X171952581Y-99832055D02*
G01*
X171991245Y-99869045D01*
X172037693Y-99958505D01*
X172038558Y-100138889D01*
X172037577Y-100144454D01*
X172038608Y-100149107D01*
X172039571Y-100349970D01*
X171551120Y-100350891D01*
X171549275Y-99966386D01*
X171592680Y-99876164D01*
X171629671Y-99837498D01*
X171719568Y-99790824D01*
X171863339Y-99789122D01*
X171952581Y-99832055D01*
G37*
G36*
X172608687Y-98273810D02*
G01*
X172704716Y-98367474D01*
X172752119Y-98458774D01*
X172754086Y-98673771D01*
X172711229Y-98762858D01*
X172614094Y-98862443D01*
X172392959Y-98919822D01*
X171930263Y-98922341D01*
X171694968Y-98865738D01*
X171598941Y-98772074D01*
X171551536Y-98680772D01*
X171549569Y-98465776D01*
X171592426Y-98376692D01*
X171689561Y-98277105D01*
X171910697Y-98219725D01*
X172373391Y-98217206D01*
X172608687Y-98273810D01*
G37*
G36*
X171881152Y-95689197D02*
G01*
X171919816Y-95726187D01*
X171966286Y-95815688D01*
X171968029Y-96135819D01*
X171551025Y-96136605D01*
X171549319Y-95823438D01*
X171592680Y-95733307D01*
X171629671Y-95694641D01*
X171719882Y-95647803D01*
X171792579Y-95646586D01*
X171881152Y-95689197D01*
G37*
G36*
X172666867Y-95617769D02*
G01*
X172705531Y-95654759D01*
X172751979Y-95744219D01*
X172753851Y-96134338D01*
X172265303Y-96135259D01*
X172263562Y-95815456D01*
X172315795Y-95652648D01*
X172343956Y-95623213D01*
X172433854Y-95576538D01*
X172577625Y-95574836D01*
X172666867Y-95617769D01*
G37*
G36*
X172325226Y-92220700D02*
G01*
X171871695Y-92070424D01*
X172324055Y-91918737D01*
X172325226Y-92220700D01*
G37*
G36*
X172325226Y-90220700D02*
G01*
X171871695Y-90070424D01*
X172324055Y-89918737D01*
X172325226Y-90220700D01*
G37*
G36*
X172325226Y-86363557D02*
G01*
X171871695Y-86213281D01*
X172324055Y-86061594D01*
X172325226Y-86363557D01*
G37*
G36*
X172554335Y-82063633D02*
G01*
X172666866Y-82117770D01*
X172705532Y-82154761D01*
X172752369Y-82244971D01*
X172753586Y-82317668D01*
X172710975Y-82406244D01*
X172673987Y-82444905D01*
X172572649Y-82497521D01*
X172321460Y-82562698D01*
X172001223Y-82565087D01*
X171749320Y-82504488D01*
X171636789Y-82450351D01*
X171598125Y-82413361D01*
X171551286Y-82323149D01*
X171550069Y-82250452D01*
X171592679Y-82161879D01*
X171629671Y-82123214D01*
X171731005Y-82070600D01*
X171982196Y-82005422D01*
X172302431Y-82003033D01*
X172554335Y-82063633D01*
G37*
G36*
X173218495Y-105172156D02*
G01*
X171014911Y-105172156D01*
X171014911Y-104284060D01*
X171251828Y-104284060D01*
X171254710Y-104884753D01*
X171277108Y-104938825D01*
X171318492Y-104980209D01*
X171372564Y-105002607D01*
X171401828Y-105005489D01*
X172931092Y-105002607D01*
X172985164Y-104980209D01*
X173026548Y-104938825D01*
X173048946Y-104884753D01*
X173048946Y-104826225D01*
X173026548Y-104772153D01*
X172985164Y-104730769D01*
X172931092Y-104708371D01*
X172901828Y-104705489D01*
X172336827Y-104706553D01*
X172336206Y-104577080D01*
X173010169Y-104102088D01*
X173041622Y-104052731D01*
X173051793Y-103995095D01*
X173039134Y-103937953D01*
X173005570Y-103890005D01*
X172956213Y-103858552D01*
X172898577Y-103848381D01*
X172841435Y-103861040D01*
X172815809Y-103875461D01*
X172323729Y-104222266D01*
X172321706Y-104216979D01*
X172247700Y-104074441D01*
X172240835Y-104057868D01*
X172236097Y-104052095D01*
X172234613Y-104049236D01*
X172231621Y-104046641D01*
X172222180Y-104035137D01*
X172147029Y-103963239D01*
X172136653Y-103951275D01*
X172130427Y-103947356D01*
X172128020Y-103945053D01*
X172124360Y-103943537D01*
X172111767Y-103935610D01*
X171987241Y-103875703D01*
X171985164Y-103873626D01*
X171969041Y-103866947D01*
X171941446Y-103853672D01*
X171936070Y-103853290D01*
X171931092Y-103851228D01*
X171901828Y-103848346D01*
X171709594Y-103850620D01*
X171706304Y-103849524D01*
X171687125Y-103850886D01*
X171658278Y-103851228D01*
X171653299Y-103853290D01*
X171647924Y-103853672D01*
X171620461Y-103864182D01*
X171477918Y-103938190D01*
X171461349Y-103945054D01*
X171455578Y-103949789D01*
X171452718Y-103951275D01*
X171450123Y-103954266D01*
X171438618Y-103963709D01*
X171366725Y-104038855D01*
X171354758Y-104049235D01*
X171350837Y-104055463D01*
X171348536Y-104057869D01*
X171347021Y-104061525D01*
X171339093Y-104074121D01*
X171279186Y-104198645D01*
X171277108Y-104200724D01*
X171270426Y-104216855D01*
X171257155Y-104244441D01*
X171256773Y-104249815D01*
X171254710Y-104254796D01*
X171251828Y-104284060D01*
X171014911Y-104284060D01*
X171014911Y-102641203D01*
X171251828Y-102641203D01*
X171254710Y-103384753D01*
X171277108Y-103438825D01*
X171318492Y-103480209D01*
X171372564Y-103502607D01*
X171401828Y-103505489D01*
X172931092Y-103502607D01*
X172985164Y-103480209D01*
X173026548Y-103438825D01*
X173048946Y-103384753D01*
X173051828Y-103355489D01*
X173048946Y-102611939D01*
X173026548Y-102557867D01*
X172985164Y-102516483D01*
X172931092Y-102494085D01*
X172872564Y-102494085D01*
X172818492Y-102516483D01*
X172777108Y-102557867D01*
X172754710Y-102611939D01*
X172751828Y-102641203D01*
X172754016Y-103205767D01*
X172265303Y-103206688D01*
X172263232Y-102826225D01*
X172240834Y-102772153D01*
X172199450Y-102730769D01*
X172145378Y-102708371D01*
X172086850Y-102708371D01*
X172032778Y-102730769D01*
X171991394Y-102772153D01*
X171968996Y-102826225D01*
X171966114Y-102855489D01*
X171968029Y-103207248D01*
X171551256Y-103208034D01*
X171548946Y-102611939D01*
X171526548Y-102557867D01*
X171485164Y-102516483D01*
X171431092Y-102494085D01*
X171372564Y-102494085D01*
X171318492Y-102516483D01*
X171277108Y-102557867D01*
X171254710Y-102611939D01*
X171251828Y-102641203D01*
X171014911Y-102641203D01*
X171014911Y-101426917D01*
X171251828Y-101426917D01*
X171254710Y-102027610D01*
X171277108Y-102081682D01*
X171318492Y-102123066D01*
X171372564Y-102145464D01*
X171401828Y-102148346D01*
X172931092Y-102145464D01*
X172985164Y-102123066D01*
X173026548Y-102081682D01*
X173048946Y-102027610D01*
X173048946Y-101969082D01*
X173026548Y-101915010D01*
X172985164Y-101873626D01*
X172931092Y-101851228D01*
X172901828Y-101848346D01*
X172336827Y-101849410D01*
X172334911Y-101450036D01*
X172336364Y-101445679D01*
X172334783Y-101423437D01*
X172334660Y-101397653D01*
X172332597Y-101392674D01*
X172332216Y-101387299D01*
X172321706Y-101359836D01*
X172247700Y-101217298D01*
X172240835Y-101200725D01*
X172236097Y-101194952D01*
X172234613Y-101192093D01*
X172231621Y-101189498D01*
X172222180Y-101177994D01*
X172147029Y-101106096D01*
X172136653Y-101094132D01*
X172130427Y-101090213D01*
X172128020Y-101087910D01*
X172124360Y-101086394D01*
X172111767Y-101078467D01*
X171987241Y-101018560D01*
X171985164Y-101016483D01*
X171969041Y-101009804D01*
X171941446Y-100996529D01*
X171936070Y-100996147D01*
X171931092Y-100994085D01*
X171901828Y-100991203D01*
X171709594Y-100993477D01*
X171706304Y-100992381D01*
X171687125Y-100993743D01*
X171658278Y-100994085D01*
X171653299Y-100996147D01*
X171647924Y-100996529D01*
X171620461Y-101007039D01*
X171477918Y-101081047D01*
X171461349Y-101087911D01*
X171455578Y-101092646D01*
X171452718Y-101094132D01*
X171450123Y-101097123D01*
X171438618Y-101106566D01*
X171366725Y-101181712D01*
X171354758Y-101192092D01*
X171350837Y-101198320D01*
X171348536Y-101200726D01*
X171347021Y-101204382D01*
X171339093Y-101216978D01*
X171279186Y-101341502D01*
X171277108Y-101343581D01*
X171270426Y-101359712D01*
X171257155Y-101387298D01*
X171256773Y-101392672D01*
X171254710Y-101397653D01*
X171251828Y-101426917D01*
X171014911Y-101426917D01*
X171014911Y-99926917D01*
X171251828Y-99926917D01*
X171254710Y-100527610D01*
X171277108Y-100581682D01*
X171318492Y-100623066D01*
X171372564Y-100645464D01*
X171401828Y-100648346D01*
X172931092Y-100645464D01*
X172985164Y-100623066D01*
X173026548Y-100581682D01*
X173048946Y-100527610D01*
X173048946Y-100469082D01*
X173026548Y-100415010D01*
X172985164Y-100373626D01*
X172931092Y-100351228D01*
X172901828Y-100348346D01*
X172336827Y-100349410D01*
X172336206Y-100219937D01*
X173010169Y-99744945D01*
X173041622Y-99695588D01*
X173051793Y-99637952D01*
X173039134Y-99580810D01*
X173005570Y-99532862D01*
X172956213Y-99501409D01*
X172898577Y-99491238D01*
X172841435Y-99503897D01*
X172815809Y-99518318D01*
X172323729Y-99865123D01*
X172321706Y-99859836D01*
X172247700Y-99717298D01*
X172240835Y-99700725D01*
X172236097Y-99694952D01*
X172234613Y-99692093D01*
X172231621Y-99689498D01*
X172222180Y-99677994D01*
X172147029Y-99606096D01*
X172136653Y-99594132D01*
X172130427Y-99590213D01*
X172128020Y-99587910D01*
X172124360Y-99586394D01*
X172111767Y-99578467D01*
X171987241Y-99518560D01*
X171985164Y-99516483D01*
X171969041Y-99509804D01*
X171941446Y-99496529D01*
X171936070Y-99496147D01*
X171931092Y-99494085D01*
X171901828Y-99491203D01*
X171709594Y-99493477D01*
X171706304Y-99492381D01*
X171687125Y-99493743D01*
X171658278Y-99494085D01*
X171653299Y-99496147D01*
X171647924Y-99496529D01*
X171620461Y-99507039D01*
X171477918Y-99581047D01*
X171461349Y-99587911D01*
X171455578Y-99592646D01*
X171452718Y-99594132D01*
X171450123Y-99597123D01*
X171438618Y-99606566D01*
X171366725Y-99681712D01*
X171354758Y-99692092D01*
X171350837Y-99698320D01*
X171348536Y-99700726D01*
X171347021Y-99704382D01*
X171339093Y-99716978D01*
X171279186Y-99841502D01*
X171277108Y-99843581D01*
X171270426Y-99859712D01*
X171257155Y-99887298D01*
X171256773Y-99892672D01*
X171254710Y-99897653D01*
X171251828Y-99926917D01*
X171014911Y-99926917D01*
X171014911Y-98426917D01*
X171251828Y-98426917D01*
X171254236Y-98690176D01*
X171253006Y-98693869D01*
X171254457Y-98714298D01*
X171254710Y-98741895D01*
X171256771Y-98746872D01*
X171257154Y-98752250D01*
X171267664Y-98779713D01*
X171341673Y-98922255D01*
X171348536Y-98938824D01*
X171353271Y-98944594D01*
X171354758Y-98947457D01*
X171357751Y-98950053D01*
X171367191Y-98961555D01*
X171500473Y-99091557D01*
X171505017Y-99099130D01*
X171518414Y-99109056D01*
X171532778Y-99123067D01*
X171543083Y-99127335D01*
X171552043Y-99133974D01*
X171579734Y-99143867D01*
X171857702Y-99210735D01*
X171872564Y-99216892D01*
X171890729Y-99218680D01*
X171894537Y-99219597D01*
X171896724Y-99219271D01*
X171901828Y-99219774D01*
X172392359Y-99217102D01*
X172409119Y-99219597D01*
X172427268Y-99216912D01*
X172431092Y-99216892D01*
X172433136Y-99216044D01*
X172438208Y-99215295D01*
X172707331Y-99145464D01*
X172716804Y-99145464D01*
X172732689Y-99138884D01*
X172751613Y-99133974D01*
X172760573Y-99127334D01*
X172770877Y-99123067D01*
X172793608Y-99104412D01*
X172934634Y-98959828D01*
X172948900Y-98947456D01*
X172952898Y-98941103D01*
X172955121Y-98938825D01*
X172956638Y-98935162D01*
X172964564Y-98922570D01*
X173024470Y-98798044D01*
X173026548Y-98795967D01*
X173033226Y-98779844D01*
X173046502Y-98752249D01*
X173046883Y-98746873D01*
X173048946Y-98741895D01*
X173051828Y-98712631D01*
X173049419Y-98449371D01*
X173050650Y-98445679D01*
X173049198Y-98425250D01*
X173048946Y-98397653D01*
X173046883Y-98392674D01*
X173046502Y-98387299D01*
X173035992Y-98359836D01*
X172961987Y-98217301D01*
X172955121Y-98200724D01*
X172950382Y-98194950D01*
X172948899Y-98192093D01*
X172945909Y-98189500D01*
X172936466Y-98177994D01*
X172803183Y-98047992D01*
X172798639Y-98040419D01*
X172785238Y-98030489D01*
X172770877Y-98016482D01*
X172760573Y-98012214D01*
X172751613Y-98005575D01*
X172723922Y-97995682D01*
X172445954Y-97928812D01*
X172431092Y-97922656D01*
X172412926Y-97920867D01*
X172409119Y-97919951D01*
X172406931Y-97920276D01*
X172401828Y-97919774D01*
X171911295Y-97922445D01*
X171894536Y-97919951D01*
X171876386Y-97922635D01*
X171872564Y-97922656D01*
X171870519Y-97923502D01*
X171865447Y-97924253D01*
X171596323Y-97994085D01*
X171586851Y-97994085D01*
X171570965Y-98000664D01*
X171552042Y-98005575D01*
X171543081Y-98012214D01*
X171532778Y-98016482D01*
X171510048Y-98035137D01*
X171369026Y-98179717D01*
X171354758Y-98192092D01*
X171350757Y-98198447D01*
X171348536Y-98200725D01*
X171347020Y-98204384D01*
X171339093Y-98216978D01*
X171279186Y-98341502D01*
X171277108Y-98343581D01*
X171270426Y-98359712D01*
X171257155Y-98387298D01*
X171256773Y-98392672D01*
X171254710Y-98397653D01*
X171251828Y-98426917D01*
X171014911Y-98426917D01*
X171014911Y-95784060D01*
X171251828Y-95784060D01*
X171254710Y-96313324D01*
X171277108Y-96367396D01*
X171318492Y-96408780D01*
X171372564Y-96431178D01*
X171401828Y-96434060D01*
X172931092Y-96431178D01*
X172985164Y-96408780D01*
X173026548Y-96367396D01*
X173048946Y-96313324D01*
X173051828Y-96284060D01*
X173049197Y-95735750D01*
X173050650Y-95731393D01*
X173049069Y-95709151D01*
X173048946Y-95683367D01*
X173046883Y-95678388D01*
X173046502Y-95673013D01*
X173035992Y-95645550D01*
X172961986Y-95503012D01*
X172955121Y-95486439D01*
X172950383Y-95480666D01*
X172948899Y-95477807D01*
X172945907Y-95475212D01*
X172936466Y-95463708D01*
X172861315Y-95391810D01*
X172850939Y-95379846D01*
X172844713Y-95375927D01*
X172842306Y-95373624D01*
X172838646Y-95372108D01*
X172826053Y-95364181D01*
X172701527Y-95304274D01*
X172699450Y-95302197D01*
X172683327Y-95295518D01*
X172655732Y-95282243D01*
X172650356Y-95281861D01*
X172645378Y-95279799D01*
X172616114Y-95276917D01*
X172423880Y-95279191D01*
X172420590Y-95278095D01*
X172401411Y-95279457D01*
X172372564Y-95279799D01*
X172367585Y-95281861D01*
X172362210Y-95282243D01*
X172334747Y-95292753D01*
X172192209Y-95366758D01*
X172175636Y-95373624D01*
X172169863Y-95378361D01*
X172167004Y-95379846D01*
X172164409Y-95382837D01*
X172152905Y-95392279D01*
X172097276Y-95450423D01*
X172095575Y-95451275D01*
X172086960Y-95461207D01*
X172080516Y-95467942D01*
X172075602Y-95463240D01*
X172065225Y-95451275D01*
X172058999Y-95447356D01*
X172056593Y-95445054D01*
X172052934Y-95443538D01*
X172040339Y-95435610D01*
X171915814Y-95375703D01*
X171913736Y-95373625D01*
X171897604Y-95366943D01*
X171870019Y-95353672D01*
X171864644Y-95353290D01*
X171859664Y-95351227D01*
X171830400Y-95348345D01*
X171708873Y-95350379D01*
X171706303Y-95349523D01*
X171689738Y-95350700D01*
X171658278Y-95351227D01*
X171653297Y-95353290D01*
X171647923Y-95353672D01*
X171620459Y-95364181D01*
X171477911Y-95438193D01*
X171461349Y-95445054D01*
X171455580Y-95449788D01*
X171452717Y-95451275D01*
X171450119Y-95454269D01*
X171438618Y-95463709D01*
X171366725Y-95538855D01*
X171354758Y-95549235D01*
X171350837Y-95555463D01*
X171348536Y-95557869D01*
X171347021Y-95561525D01*
X171339093Y-95574121D01*
X171279186Y-95698645D01*
X171277108Y-95700724D01*
X171270426Y-95716855D01*
X171257155Y-95744441D01*
X171256773Y-95749815D01*
X171254710Y-95754796D01*
X171251828Y-95784060D01*
X171014911Y-95784060D01*
X171014911Y-94001693D01*
X171251865Y-94001693D01*
X171264562Y-94058825D01*
X171298155Y-94106752D01*
X171321297Y-94124894D01*
X171910747Y-94497519D01*
X171298155Y-94889938D01*
X171264562Y-94937865D01*
X171251865Y-94994997D01*
X171261999Y-95052640D01*
X171293421Y-95102018D01*
X171341348Y-95135611D01*
X171398480Y-95148308D01*
X171456123Y-95138174D01*
X171482359Y-95124894D01*
X172226521Y-94648193D01*
X172931092Y-94645463D01*
X172985164Y-94623065D01*
X173026548Y-94581681D01*
X173048946Y-94527609D01*
X173048946Y-94469081D01*
X173026548Y-94415009D01*
X172985164Y-94373625D01*
X172931092Y-94351227D01*
X172901828Y-94348345D01*
X172235064Y-94350929D01*
X171456123Y-93858516D01*
X171398480Y-93848382D01*
X171341348Y-93861079D01*
X171293421Y-93894672D01*
X171261999Y-93944050D01*
X171251865Y-94001693D01*
X171014911Y-94001693D01*
X171014911Y-92051013D01*
X171253006Y-92051013D01*
X171254339Y-92069774D01*
X171253006Y-92088535D01*
X171256395Y-92098702D01*
X171257155Y-92109394D01*
X171265566Y-92126217D01*
X171271514Y-92144059D01*
X171278536Y-92152155D01*
X171283329Y-92161741D01*
X171297537Y-92174064D01*
X171309861Y-92188273D01*
X171319446Y-92193065D01*
X171327543Y-92200088D01*
X171354394Y-92212076D01*
X172432843Y-92569416D01*
X172443993Y-92574035D01*
X172446782Y-92574035D01*
X172883068Y-92718597D01*
X172941448Y-92714447D01*
X172993795Y-92688273D01*
X173032142Y-92644059D01*
X173050651Y-92588535D01*
X173046501Y-92530155D01*
X173020328Y-92477807D01*
X172976113Y-92439460D01*
X172949262Y-92427472D01*
X172622839Y-92319313D01*
X172620901Y-91819198D01*
X172976113Y-91700088D01*
X173020328Y-91661741D01*
X173046501Y-91609393D01*
X173050651Y-91551013D01*
X173032142Y-91495489D01*
X172993795Y-91451275D01*
X172941448Y-91425101D01*
X172883068Y-91420951D01*
X172854394Y-91427471D01*
X171372557Y-91924365D01*
X171362208Y-91925101D01*
X171345600Y-91933404D01*
X171327543Y-91939460D01*
X171319446Y-91946482D01*
X171309861Y-91951275D01*
X171297537Y-91965483D01*
X171283329Y-91977807D01*
X171278536Y-91987392D01*
X171271514Y-91995489D01*
X171265566Y-92013330D01*
X171257155Y-92030154D01*
X171256395Y-92040845D01*
X171253006Y-92051013D01*
X171014911Y-92051013D01*
X171014911Y-91040511D01*
X172611853Y-91040511D01*
X172611853Y-91040512D01*
X172611853Y-91040513D01*
X172611853Y-91099039D01*
X172617197Y-91111939D01*
X172634250Y-91153110D01*
X172634251Y-91153111D01*
X172652906Y-91175842D01*
X172747064Y-91265923D01*
X172747065Y-91265924D01*
X172801137Y-91288321D01*
X172801138Y-91288321D01*
X172859663Y-91288321D01*
X172913735Y-91265924D01*
X172936466Y-91247269D01*
X173026549Y-91153111D01*
X173035825Y-91130713D01*
X173048946Y-91099039D01*
X173048946Y-91040511D01*
X173026549Y-90986441D01*
X173026549Y-90986440D01*
X173007895Y-90963710D01*
X172913736Y-90873626D01*
X172913735Y-90873625D01*
X172882061Y-90860505D01*
X172859664Y-90851228D01*
X172859663Y-90851228D01*
X172801137Y-90851228D01*
X172747065Y-90873625D01*
X172724334Y-90892280D01*
X172634250Y-90986440D01*
X172634250Y-90986441D01*
X172611853Y-91040511D01*
X171014911Y-91040511D01*
X171014911Y-90051013D01*
X171253006Y-90051013D01*
X171254339Y-90069774D01*
X171253006Y-90088535D01*
X171256395Y-90098702D01*
X171257155Y-90109394D01*
X171265566Y-90126217D01*
X171271514Y-90144059D01*
X171278536Y-90152155D01*
X171283329Y-90161741D01*
X171297537Y-90174064D01*
X171309861Y-90188273D01*
X171319446Y-90193065D01*
X171327543Y-90200088D01*
X171354394Y-90212076D01*
X172432843Y-90569416D01*
X172443993Y-90574035D01*
X172446782Y-90574035D01*
X172883068Y-90718597D01*
X172941448Y-90714447D01*
X172993795Y-90688273D01*
X173032142Y-90644059D01*
X173050651Y-90588535D01*
X173046501Y-90530155D01*
X173020328Y-90477807D01*
X172976113Y-90439460D01*
X172949262Y-90427472D01*
X172622839Y-90319313D01*
X172620901Y-89819198D01*
X172976113Y-89700088D01*
X173020328Y-89661741D01*
X173046501Y-89609393D01*
X173050651Y-89551013D01*
X173032142Y-89495489D01*
X172993795Y-89451275D01*
X172941448Y-89425101D01*
X172883068Y-89420951D01*
X172854394Y-89427471D01*
X171372557Y-89924365D01*
X171362208Y-89925101D01*
X171345600Y-89933404D01*
X171327543Y-89939460D01*
X171319446Y-89946482D01*
X171309861Y-89951275D01*
X171297537Y-89965483D01*
X171283329Y-89977807D01*
X171278536Y-89987392D01*
X171271514Y-89995489D01*
X171265566Y-90013330D01*
X171257155Y-90030154D01*
X171256395Y-90040845D01*
X171253006Y-90051013D01*
X171014911Y-90051013D01*
X171014911Y-89040511D01*
X171254710Y-89040511D01*
X171254710Y-89099039D01*
X171277108Y-89153111D01*
X171318492Y-89194495D01*
X171372564Y-89216893D01*
X171401828Y-89219775D01*
X172931092Y-89216893D01*
X172985164Y-89194495D01*
X173026548Y-89153111D01*
X173048946Y-89099039D01*
X173051828Y-89069775D01*
X173048946Y-88326225D01*
X173026548Y-88272153D01*
X172985164Y-88230769D01*
X172931092Y-88208371D01*
X172872564Y-88208371D01*
X172818492Y-88230769D01*
X172777108Y-88272153D01*
X172754710Y-88326225D01*
X172751828Y-88355489D01*
X172754016Y-88920053D01*
X171372564Y-88922657D01*
X171318492Y-88945055D01*
X171277108Y-88986439D01*
X171254710Y-89040511D01*
X171014911Y-89040511D01*
X171014911Y-87141203D01*
X171251828Y-87141203D01*
X171254710Y-87884753D01*
X171277108Y-87938825D01*
X171318492Y-87980209D01*
X171372564Y-88002607D01*
X171401828Y-88005489D01*
X172931092Y-88002607D01*
X172985164Y-87980209D01*
X173026548Y-87938825D01*
X173048946Y-87884753D01*
X173051828Y-87855489D01*
X173048946Y-87111939D01*
X173026548Y-87057867D01*
X172985164Y-87016483D01*
X172931092Y-86994085D01*
X172872564Y-86994085D01*
X172818492Y-87016483D01*
X172777108Y-87057867D01*
X172754710Y-87111939D01*
X172751828Y-87141203D01*
X172754016Y-87705767D01*
X172265303Y-87706688D01*
X172263232Y-87326225D01*
X172240834Y-87272153D01*
X172199450Y-87230769D01*
X172145378Y-87208371D01*
X172086850Y-87208371D01*
X172032778Y-87230769D01*
X171991394Y-87272153D01*
X171968996Y-87326225D01*
X171966114Y-87355489D01*
X171968029Y-87707248D01*
X171551256Y-87708034D01*
X171548946Y-87111939D01*
X171526548Y-87057867D01*
X171485164Y-87016483D01*
X171431092Y-86994085D01*
X171372564Y-86994085D01*
X171318492Y-87016483D01*
X171277108Y-87057867D01*
X171254710Y-87111939D01*
X171251828Y-87141203D01*
X171014911Y-87141203D01*
X171014911Y-86193870D01*
X171253006Y-86193870D01*
X171254339Y-86212631D01*
X171253006Y-86231392D01*
X171256395Y-86241559D01*
X171257155Y-86252251D01*
X171265566Y-86269074D01*
X171271514Y-86286916D01*
X171278536Y-86295012D01*
X171283329Y-86304598D01*
X171297537Y-86316921D01*
X171309861Y-86331130D01*
X171319446Y-86335922D01*
X171327543Y-86342945D01*
X171354394Y-86354933D01*
X172432843Y-86712273D01*
X172443993Y-86716892D01*
X172446782Y-86716892D01*
X172883068Y-86861454D01*
X172941448Y-86857304D01*
X172993795Y-86831130D01*
X173032142Y-86786916D01*
X173050651Y-86731392D01*
X173046501Y-86673012D01*
X173020328Y-86620664D01*
X172976113Y-86582317D01*
X172949262Y-86570329D01*
X172622839Y-86462170D01*
X172620901Y-85962055D01*
X172976113Y-85842945D01*
X173020328Y-85804598D01*
X173046501Y-85752250D01*
X173050651Y-85693870D01*
X173032142Y-85638346D01*
X172993795Y-85594132D01*
X172941448Y-85567958D01*
X172883068Y-85563808D01*
X172854394Y-85570328D01*
X171372557Y-86067222D01*
X171362208Y-86067958D01*
X171345600Y-86076261D01*
X171327543Y-86082317D01*
X171319446Y-86089339D01*
X171309861Y-86094132D01*
X171297537Y-86108340D01*
X171283329Y-86120664D01*
X171278536Y-86130249D01*
X171271514Y-86138346D01*
X171265566Y-86156187D01*
X171257155Y-86173011D01*
X171256395Y-86183702D01*
X171253006Y-86193870D01*
X171014911Y-86193870D01*
X171014911Y-83569775D01*
X171251828Y-83569775D01*
X171254322Y-83904207D01*
X171253006Y-83908157D01*
X171254509Y-83929314D01*
X171254710Y-83956182D01*
X171256773Y-83961162D01*
X171257155Y-83966537D01*
X171267664Y-83994000D01*
X171341673Y-84136542D01*
X171348536Y-84153110D01*
X171353271Y-84158880D01*
X171354758Y-84161743D01*
X171357751Y-84164339D01*
X171367191Y-84175841D01*
X171461349Y-84265924D01*
X171515422Y-84288320D01*
X171573948Y-84288320D01*
X171628020Y-84265924D01*
X171669406Y-84224538D01*
X171691802Y-84170466D01*
X171691802Y-84111940D01*
X171669406Y-84057867D01*
X171650751Y-84035137D01*
X171598126Y-83984790D01*
X171551591Y-83895164D01*
X171549455Y-83608870D01*
X171592680Y-83519022D01*
X171629671Y-83480356D01*
X171719882Y-83433518D01*
X171801035Y-83432159D01*
X171960479Y-83483314D01*
X172818492Y-84337353D01*
X172856727Y-84353189D01*
X172872564Y-84359750D01*
X172872565Y-84359750D01*
X172931091Y-84359750D01*
X172931092Y-84359750D01*
X172953489Y-84350472D01*
X172985163Y-84337353D01*
X173026549Y-84295967D01*
X173048946Y-84241895D01*
X173051828Y-84212632D01*
X173048946Y-83254796D01*
X173026548Y-83200724D01*
X172985164Y-83159340D01*
X172931092Y-83136942D01*
X172872564Y-83136942D01*
X172818492Y-83159340D01*
X172777108Y-83200724D01*
X172754710Y-83254796D01*
X172751828Y-83284060D01*
X172753541Y-83853391D01*
X172165419Y-83267994D01*
X172163184Y-83263523D01*
X172145641Y-83248308D01*
X172128020Y-83230768D01*
X172123040Y-83228705D01*
X172118970Y-83225175D01*
X172092119Y-83213187D01*
X171877499Y-83144329D01*
X171859664Y-83136942D01*
X171852172Y-83136204D01*
X171849161Y-83135238D01*
X171845211Y-83135518D01*
X171830400Y-83134060D01*
X171708873Y-83136094D01*
X171706303Y-83135238D01*
X171689738Y-83136415D01*
X171658278Y-83136942D01*
X171653297Y-83139005D01*
X171647923Y-83139387D01*
X171620459Y-83149896D01*
X171477911Y-83223908D01*
X171461349Y-83230769D01*
X171455580Y-83235503D01*
X171452717Y-83236990D01*
X171450119Y-83239984D01*
X171438618Y-83249424D01*
X171366725Y-83324570D01*
X171354758Y-83334950D01*
X171350837Y-83341178D01*
X171348536Y-83343584D01*
X171347021Y-83347240D01*
X171339093Y-83359836D01*
X171279186Y-83484360D01*
X171277108Y-83486439D01*
X171270426Y-83502570D01*
X171257155Y-83530156D01*
X171256773Y-83535530D01*
X171254710Y-83540511D01*
X171251828Y-83569775D01*
X171014911Y-83569775D01*
X171014911Y-82212632D01*
X171251828Y-82212632D01*
X171253862Y-82334156D01*
X171253006Y-82336727D01*
X171254183Y-82353296D01*
X171254710Y-82384753D01*
X171256771Y-82389730D01*
X171257154Y-82395108D01*
X171267664Y-82422571D01*
X171341673Y-82565113D01*
X171348536Y-82581682D01*
X171353271Y-82587452D01*
X171354758Y-82590315D01*
X171357751Y-82592911D01*
X171367191Y-82604413D01*
X171442343Y-82676312D01*
X171452717Y-82688274D01*
X171458939Y-82692191D01*
X171461349Y-82694496D01*
X171465011Y-82696012D01*
X171477603Y-82703939D01*
X171613010Y-82769081D01*
X171623471Y-82776832D01*
X171645425Y-82784675D01*
X171647923Y-82785877D01*
X171649003Y-82785953D01*
X171651162Y-82786725D01*
X171929131Y-82853594D01*
X171943993Y-82859750D01*
X171962158Y-82861538D01*
X171965966Y-82862455D01*
X171968153Y-82862129D01*
X171973257Y-82862632D01*
X172321430Y-82860035D01*
X172337691Y-82862455D01*
X172355785Y-82859778D01*
X172359664Y-82859750D01*
X172361708Y-82858902D01*
X172366780Y-82858153D01*
X172641400Y-82786895D01*
X172655733Y-82785877D01*
X172677653Y-82777488D01*
X172680185Y-82776832D01*
X172681055Y-82776187D01*
X172683196Y-82775368D01*
X172825742Y-82701356D01*
X172842305Y-82694496D01*
X172848074Y-82689761D01*
X172850939Y-82688274D01*
X172853536Y-82685279D01*
X172865036Y-82675842D01*
X172936932Y-82600693D01*
X172948900Y-82590314D01*
X172952818Y-82584088D01*
X172955120Y-82581683D01*
X172956635Y-82578024D01*
X172964564Y-82565428D01*
X173024470Y-82440902D01*
X173026548Y-82438825D01*
X173033226Y-82422702D01*
X173046502Y-82395107D01*
X173046883Y-82389731D01*
X173048946Y-82384753D01*
X173051828Y-82355489D01*
X173049793Y-82233964D01*
X173050650Y-82231394D01*
X173049472Y-82214824D01*
X173048946Y-82183368D01*
X173046883Y-82178389D01*
X173046502Y-82173014D01*
X173035992Y-82145551D01*
X172961983Y-82003008D01*
X172955120Y-81986439D01*
X172950384Y-81980668D01*
X172948899Y-81977808D01*
X172945907Y-81975213D01*
X172936465Y-81963708D01*
X172861318Y-81891815D01*
X172850939Y-81879848D01*
X172844710Y-81875927D01*
X172842305Y-81873626D01*
X172838648Y-81872111D01*
X172826053Y-81864183D01*
X172690645Y-81799040D01*
X172680185Y-81791290D01*
X172658230Y-81783446D01*
X172655733Y-81782245D01*
X172654652Y-81782168D01*
X172652494Y-81781397D01*
X172374526Y-81714527D01*
X172359664Y-81708371D01*
X172341498Y-81706582D01*
X172337691Y-81705666D01*
X172335503Y-81705991D01*
X172330400Y-81705489D01*
X171982225Y-81708085D01*
X171965965Y-81705666D01*
X171947870Y-81708342D01*
X171943993Y-81708371D01*
X171941948Y-81709217D01*
X171936876Y-81709968D01*
X171662253Y-81781226D01*
X171647923Y-81782245D01*
X171626001Y-81790633D01*
X171623470Y-81791290D01*
X171622599Y-81791934D01*
X171620459Y-81792754D01*
X171477916Y-81866764D01*
X171461349Y-81873626D01*
X171455577Y-81878362D01*
X171452717Y-81879848D01*
X171450121Y-81882840D01*
X171438619Y-81892281D01*
X171366722Y-81967430D01*
X171354758Y-81977807D01*
X171350839Y-81984032D01*
X171348536Y-81986440D01*
X171347020Y-81990099D01*
X171339093Y-82002693D01*
X171279186Y-82127217D01*
X171277108Y-82129296D01*
X171270426Y-82145427D01*
X171257155Y-82173013D01*
X171256773Y-82178387D01*
X171254710Y-82183368D01*
X171251828Y-82212632D01*
X171014911Y-82212632D01*
X171014911Y-80712633D01*
X171251828Y-80712633D01*
X171254322Y-81047065D01*
X171253006Y-81051015D01*
X171254509Y-81072172D01*
X171254710Y-81099040D01*
X171256773Y-81104020D01*
X171257155Y-81109395D01*
X171267664Y-81136858D01*
X171341673Y-81279400D01*
X171348536Y-81295968D01*
X171353271Y-81301738D01*
X171354758Y-81304601D01*
X171357751Y-81307197D01*
X171367191Y-81318699D01*
X171461349Y-81408782D01*
X171515422Y-81431178D01*
X171573948Y-81431178D01*
X171628020Y-81408782D01*
X171669406Y-81367396D01*
X171691802Y-81313324D01*
X171691802Y-81254798D01*
X171669406Y-81200725D01*
X171650751Y-81177995D01*
X171598126Y-81127648D01*
X171551591Y-81038022D01*
X171549455Y-80751728D01*
X171592680Y-80661880D01*
X171629671Y-80623214D01*
X171719882Y-80576376D01*
X171801035Y-80575017D01*
X171960479Y-80626172D01*
X172818492Y-81480211D01*
X172856727Y-81496047D01*
X172872564Y-81502608D01*
X172872565Y-81502608D01*
X172931091Y-81502608D01*
X172931092Y-81502608D01*
X172953489Y-81493330D01*
X172985163Y-81480211D01*
X173026549Y-81438825D01*
X173048946Y-81384753D01*
X173051828Y-81355490D01*
X173048946Y-80397654D01*
X173026548Y-80343582D01*
X172985164Y-80302198D01*
X172931092Y-80279800D01*
X172872564Y-80279800D01*
X172818492Y-80302198D01*
X172777108Y-80343582D01*
X172754710Y-80397654D01*
X172751828Y-80426918D01*
X172753541Y-80996249D01*
X172165419Y-80410852D01*
X172163184Y-80406381D01*
X172145641Y-80391166D01*
X172128020Y-80373626D01*
X172123040Y-80371563D01*
X172118970Y-80368033D01*
X172092119Y-80356045D01*
X171877499Y-80287187D01*
X171859664Y-80279800D01*
X171852172Y-80279062D01*
X171849161Y-80278096D01*
X171845211Y-80278376D01*
X171830400Y-80276918D01*
X171708873Y-80278952D01*
X171706303Y-80278096D01*
X171689738Y-80279273D01*
X171658278Y-80279800D01*
X171653297Y-80281863D01*
X171647923Y-80282245D01*
X171620459Y-80292754D01*
X171477911Y-80366766D01*
X171461349Y-80373627D01*
X171455580Y-80378361D01*
X171452717Y-80379848D01*
X171450119Y-80382842D01*
X171438618Y-80392282D01*
X171366725Y-80467428D01*
X171354758Y-80477808D01*
X171350837Y-80484036D01*
X171348536Y-80486442D01*
X171347021Y-80490098D01*
X171339093Y-80502694D01*
X171279186Y-80627218D01*
X171277108Y-80629297D01*
X171270426Y-80645428D01*
X171257155Y-80673014D01*
X171256773Y-80678388D01*
X171254710Y-80683369D01*
X171251828Y-80712633D01*
X171014911Y-80712633D01*
X171014911Y-79479586D01*
X171181578Y-79479586D01*
X171185727Y-79537967D01*
X171211901Y-79590314D01*
X171256115Y-79628661D01*
X171282966Y-79640649D01*
X172351429Y-79993853D01*
X172372564Y-80002608D01*
X172377912Y-80002608D01*
X172383067Y-80004312D01*
X172407044Y-80002608D01*
X172431092Y-80002608D01*
X172436072Y-80000544D01*
X172441447Y-80000163D01*
X172462946Y-79989413D01*
X172485164Y-79980210D01*
X172488975Y-79976398D01*
X172493794Y-79973989D01*
X172509542Y-79955831D01*
X172526548Y-79938826D01*
X172528610Y-79933846D01*
X172532142Y-79929775D01*
X172539743Y-79906970D01*
X172548946Y-79884754D01*
X172549699Y-79877100D01*
X172550650Y-79874250D01*
X172550369Y-79870301D01*
X172551828Y-79855490D01*
X172550124Y-79289389D01*
X172931092Y-79288323D01*
X172985164Y-79265925D01*
X173026548Y-79224541D01*
X173048946Y-79170469D01*
X173048946Y-79111941D01*
X173026548Y-79057869D01*
X172985164Y-79016485D01*
X172931092Y-78994087D01*
X172901828Y-78991205D01*
X172549230Y-78992192D01*
X172548946Y-78897655D01*
X172526548Y-78843583D01*
X172485164Y-78802199D01*
X172431092Y-78779801D01*
X172372564Y-78779801D01*
X172318492Y-78802199D01*
X172277108Y-78843583D01*
X172254710Y-78897655D01*
X172251828Y-78926919D01*
X172252026Y-78993024D01*
X171872564Y-78994087D01*
X171818492Y-79016485D01*
X171777108Y-79057869D01*
X171754710Y-79111941D01*
X171754710Y-79170469D01*
X171777108Y-79224541D01*
X171818492Y-79265925D01*
X171872564Y-79288323D01*
X171901828Y-79291205D01*
X172252921Y-79290221D01*
X172253999Y-79648638D01*
X171349161Y-79349525D01*
X171290780Y-79353674D01*
X171238433Y-79379848D01*
X171200086Y-79424062D01*
X171181578Y-79479586D01*
X171014911Y-79479586D01*
X171014911Y-78613134D01*
X173218495Y-78613134D01*
X173218495Y-105172156D01*
G37*
D11*
X201015987Y-138231901D02*
X200920748Y-138148567D01*
X200920748Y-138148567D02*
X200730272Y-137898567D01*
X200730272Y-137898567D02*
X200635034Y-137731901D01*
X200635034Y-137731901D02*
X200539796Y-137481901D01*
X200539796Y-137481901D02*
X200444558Y-137065234D01*
X200444558Y-137065234D02*
X200444558Y-136731901D01*
X200444558Y-136731901D02*
X200539796Y-136315234D01*
X200539796Y-136315234D02*
X200635034Y-136065234D01*
X200635034Y-136065234D02*
X200730272Y-135898567D01*
X200730272Y-135898567D02*
X200920748Y-135648567D01*
X200920748Y-135648567D02*
X201015987Y-135565234D01*
X202920748Y-137398567D02*
X202825510Y-137481901D01*
X202825510Y-137481901D02*
X202539796Y-137565234D01*
X202539796Y-137565234D02*
X202349320Y-137565234D01*
X202349320Y-137565234D02*
X202063605Y-137481901D01*
X202063605Y-137481901D02*
X201873129Y-137315234D01*
X201873129Y-137315234D02*
X201777891Y-137148567D01*
X201777891Y-137148567D02*
X201682653Y-136815234D01*
X201682653Y-136815234D02*
X201682653Y-136565234D01*
X201682653Y-136565234D02*
X201777891Y-136231901D01*
X201777891Y-136231901D02*
X201873129Y-136065234D01*
X201873129Y-136065234D02*
X202063605Y-135898567D01*
X202063605Y-135898567D02*
X202349320Y-135815234D01*
X202349320Y-135815234D02*
X202539796Y-135815234D01*
X202539796Y-135815234D02*
X202825510Y-135898567D01*
X202825510Y-135898567D02*
X202920748Y-135981901D01*
X203587415Y-138231901D02*
X203682653Y-138148567D01*
X203682653Y-138148567D02*
X203873129Y-137898567D01*
X203873129Y-137898567D02*
X203968367Y-137731901D01*
X203968367Y-137731901D02*
X204063605Y-137481901D01*
X204063605Y-137481901D02*
X204158843Y-137065234D01*
X204158843Y-137065234D02*
X204158843Y-136731901D01*
X204158843Y-136731901D02*
X204063605Y-136315234D01*
X204063605Y-136315234D02*
X203968367Y-136065234D01*
X203968367Y-136065234D02*
X203873129Y-135898567D01*
X203873129Y-135898567D02*
X203682653Y-135648567D01*
X203682653Y-135648567D02*
X203587415Y-135565234D01*
X207682653Y-135898567D02*
X207492177Y-135815234D01*
X207492177Y-135815234D02*
X207206463Y-135815234D01*
X207206463Y-135815234D02*
X206920748Y-135898567D01*
X206920748Y-135898567D02*
X206730272Y-136065234D01*
X206730272Y-136065234D02*
X206635034Y-136231901D01*
X206635034Y-136231901D02*
X206539796Y-136565234D01*
X206539796Y-136565234D02*
X206539796Y-136815234D01*
X206539796Y-136815234D02*
X206635034Y-137148567D01*
X206635034Y-137148567D02*
X206730272Y-137315234D01*
X206730272Y-137315234D02*
X206920748Y-137481901D01*
X206920748Y-137481901D02*
X207206463Y-137565234D01*
X207206463Y-137565234D02*
X207396939Y-137565234D01*
X207396939Y-137565234D02*
X207682653Y-137481901D01*
X207682653Y-137481901D02*
X207777891Y-137398567D01*
X207777891Y-137398567D02*
X207777891Y-136815234D01*
X207777891Y-136815234D02*
X207396939Y-136815234D01*
X208539796Y-137481901D02*
X208825510Y-137565234D01*
X208825510Y-137565234D02*
X209301701Y-137565234D01*
X209301701Y-137565234D02*
X209492177Y-137481901D01*
X209492177Y-137481901D02*
X209587415Y-137398567D01*
X209587415Y-137398567D02*
X209682653Y-137231901D01*
X209682653Y-137231901D02*
X209682653Y-137065234D01*
X209682653Y-137065234D02*
X209587415Y-136898567D01*
X209587415Y-136898567D02*
X209492177Y-136815234D01*
X209492177Y-136815234D02*
X209301701Y-136731901D01*
X209301701Y-136731901D02*
X208920748Y-136648567D01*
X208920748Y-136648567D02*
X208730272Y-136565234D01*
X208730272Y-136565234D02*
X208635034Y-136481901D01*
X208635034Y-136481901D02*
X208539796Y-136315234D01*
X208539796Y-136315234D02*
X208539796Y-136148567D01*
X208539796Y-136148567D02*
X208635034Y-135981901D01*
X208635034Y-135981901D02*
X208730272Y-135898567D01*
X208730272Y-135898567D02*
X208920748Y-135815234D01*
X208920748Y-135815234D02*
X209396939Y-135815234D01*
X209396939Y-135815234D02*
X209682653Y-135898567D01*
X210254082Y-135815234D02*
X211396939Y-135815234D01*
X210825510Y-137565234D02*
X210825510Y-135815234D01*
X219206465Y-137565234D02*
X218063608Y-137565234D01*
X218635036Y-137565234D02*
X218635036Y-135815234D01*
X218635036Y-135815234D02*
X218444560Y-136065234D01*
X218444560Y-136065234D02*
X218254084Y-136231901D01*
X218254084Y-136231901D02*
X218063608Y-136315234D01*
X220158846Y-137565234D02*
X220539798Y-137565234D01*
X220539798Y-137565234D02*
X220730275Y-137481901D01*
X220730275Y-137481901D02*
X220825513Y-137398567D01*
X220825513Y-137398567D02*
X221015989Y-137148567D01*
X221015989Y-137148567D02*
X221111227Y-136815234D01*
X221111227Y-136815234D02*
X221111227Y-136148567D01*
X221111227Y-136148567D02*
X221015989Y-135981901D01*
X221015989Y-135981901D02*
X220920751Y-135898567D01*
X220920751Y-135898567D02*
X220730275Y-135815234D01*
X220730275Y-135815234D02*
X220349322Y-135815234D01*
X220349322Y-135815234D02*
X220158846Y-135898567D01*
X220158846Y-135898567D02*
X220063608Y-135981901D01*
X220063608Y-135981901D02*
X219968370Y-136148567D01*
X219968370Y-136148567D02*
X219968370Y-136565234D01*
X219968370Y-136565234D02*
X220063608Y-136731901D01*
X220063608Y-136731901D02*
X220158846Y-136815234D01*
X220158846Y-136815234D02*
X220349322Y-136898567D01*
X220349322Y-136898567D02*
X220730275Y-136898567D01*
X220730275Y-136898567D02*
X220920751Y-136815234D01*
X220920751Y-136815234D02*
X221015989Y-136731901D01*
X221015989Y-136731901D02*
X221111227Y-136565234D01*
X222254084Y-136565234D02*
X222063608Y-136481901D01*
X222063608Y-136481901D02*
X221968370Y-136398567D01*
X221968370Y-136398567D02*
X221873132Y-136231901D01*
X221873132Y-136231901D02*
X221873132Y-136148567D01*
X221873132Y-136148567D02*
X221968370Y-135981901D01*
X221968370Y-135981901D02*
X222063608Y-135898567D01*
X222063608Y-135898567D02*
X222254084Y-135815234D01*
X222254084Y-135815234D02*
X222635037Y-135815234D01*
X222635037Y-135815234D02*
X222825513Y-135898567D01*
X222825513Y-135898567D02*
X222920751Y-135981901D01*
X222920751Y-135981901D02*
X223015989Y-136148567D01*
X223015989Y-136148567D02*
X223015989Y-136231901D01*
X223015989Y-136231901D02*
X222920751Y-136398567D01*
X222920751Y-136398567D02*
X222825513Y-136481901D01*
X222825513Y-136481901D02*
X222635037Y-136565234D01*
X222635037Y-136565234D02*
X222254084Y-136565234D01*
X222254084Y-136565234D02*
X222063608Y-136648567D01*
X222063608Y-136648567D02*
X221968370Y-136731901D01*
X221968370Y-136731901D02*
X221873132Y-136898567D01*
X221873132Y-136898567D02*
X221873132Y-137231901D01*
X221873132Y-137231901D02*
X221968370Y-137398567D01*
X221968370Y-137398567D02*
X222063608Y-137481901D01*
X222063608Y-137481901D02*
X222254084Y-137565234D01*
X222254084Y-137565234D02*
X222635037Y-137565234D01*
X222635037Y-137565234D02*
X222825513Y-137481901D01*
X222825513Y-137481901D02*
X222920751Y-137398567D01*
X222920751Y-137398567D02*
X223015989Y-137231901D01*
X223015989Y-137231901D02*
X223015989Y-136898567D01*
X223015989Y-136898567D02*
X222920751Y-136731901D01*
X222920751Y-136731901D02*
X222825513Y-136648567D01*
X222825513Y-136648567D02*
X222635037Y-136565234D01*
X224730275Y-136398567D02*
X224730275Y-137565234D01*
X224254084Y-135731901D02*
X223777894Y-136981901D01*
X223777894Y-136981901D02*
X225015989Y-136981901D01*
D12*
%TO.P,C2,1*%
%TO.N,+9V*%
X233306000Y-48768000D03*
D13*
%TO.P,C2,2*%
%TO.N,GND*%
X228306000Y-48768000D03*
%TD*%
D14*
%TO.P,SW1,0*%
%TO.N,N/C*%
X172593000Y-123825000D03*
X172593000Y-137795000D03*
X178943000Y-123825000D03*
X178943000Y-137795000D03*
D15*
%TO.P,SW1,1,1*%
%TO.N,VCC*%
X177038000Y-127000000D03*
D14*
%TO.P,SW1,2,2*%
%TO.N,Net-(U8B-Q)*%
X177038000Y-129540000D03*
%TO.P,SW1,3,3*%
%TO.N,Net-(U8A-D)*%
X177038000Y-132080000D03*
%TO.P,SW1,4,4*%
%TO.N,GND*%
X177038000Y-134620000D03*
%TO.P,SW1,5,5*%
%TO.N,VCC*%
X174498000Y-127000000D03*
%TO.P,SW1,6,6*%
%TO.N,unconnected-(SW1-Pad6)*%
X174498000Y-129540000D03*
%TO.P,SW1,7,7*%
%TO.N,unconnected-(SW1-Pad7)*%
X174498000Y-132080000D03*
%TO.P,SW1,8,8*%
%TO.N,GND*%
X174498000Y-134620000D03*
%TD*%
D13*
%TO.P,R1,1*%
%TO.N,VCC*%
X180594000Y-86995000D03*
D16*
%TO.P,R1,2*%
%TO.N,/ROM_OE*%
X180594000Y-94615000D03*
%TD*%
D12*
%TO.P,U3,1,VPP*%
%TO.N,VCC*%
X197866000Y-109220000D03*
D16*
%TO.P,U3,2,A12*%
%TO.N,/A12*%
X200406000Y-109220000D03*
%TO.P,U3,3,A7*%
%TO.N,/A7*%
X202946000Y-109220000D03*
%TO.P,U3,4,A6*%
%TO.N,/A6*%
X205486000Y-109220000D03*
%TO.P,U3,5,A5*%
%TO.N,/A5*%
X208026000Y-109220000D03*
%TO.P,U3,6,A4*%
%TO.N,/A4*%
X210566000Y-109220000D03*
%TO.P,U3,7,A3*%
%TO.N,/A3*%
X213106000Y-109220000D03*
%TO.P,U3,8,A2*%
%TO.N,/A2*%
X215646000Y-109220000D03*
%TO.P,U3,9,A1*%
%TO.N,/A1*%
X218186000Y-109220000D03*
%TO.P,U3,10,A0*%
%TO.N,/A0*%
X220726000Y-109220000D03*
%TO.P,U3,11,D0*%
%TO.N,/D0*%
X223266000Y-109220000D03*
%TO.P,U3,12,D1*%
%TO.N,/D1*%
X225806000Y-109220000D03*
%TO.P,U3,13,D2*%
%TO.N,/D2*%
X228346000Y-109220000D03*
%TO.P,U3,14,GND*%
%TO.N,GND*%
X230886000Y-109220000D03*
%TO.P,U3,15,D3*%
%TO.N,/D3*%
X230886000Y-93980000D03*
%TO.P,U3,16,D4*%
%TO.N,/D4*%
X228346000Y-93980000D03*
%TO.P,U3,17,D5*%
%TO.N,/D5*%
X225806000Y-93980000D03*
%TO.P,U3,18,D6*%
%TO.N,/D6*%
X223266000Y-93980000D03*
%TO.P,U3,19,D7*%
%TO.N,/D7*%
X220726000Y-93980000D03*
%TO.P,U3,20,~{CE}*%
%TO.N,/ROM_CE3*%
X218186000Y-93980000D03*
%TO.P,U3,21,A10*%
%TO.N,/A10*%
X215646000Y-93980000D03*
%TO.P,U3,22,~{OE}*%
%TO.N,/ROM_OE*%
X213106000Y-93980000D03*
%TO.P,U3,23,A11*%
%TO.N,/A11*%
X210566000Y-93980000D03*
%TO.P,U3,24,A9*%
%TO.N,/A9*%
X208026000Y-93980000D03*
%TO.P,U3,25,A8*%
%TO.N,/A8*%
X205486000Y-93980000D03*
%TO.P,U3,26,A13*%
%TO.N,/A13*%
X202946000Y-93980000D03*
%TO.P,U3,27,~{PGM}*%
%TO.N,VCC*%
X200406000Y-93980000D03*
%TO.P,U3,28,VCC*%
X197866000Y-93980000D03*
%TD*%
D12*
%TO.P,U1,1,VPP*%
%TO.N,VCC*%
X197866000Y-68580000D03*
D16*
%TO.P,U1,2,A12*%
%TO.N,/A12*%
X200406000Y-68580000D03*
%TO.P,U1,3,A7*%
%TO.N,/A7*%
X202946000Y-68580000D03*
%TO.P,U1,4,A6*%
%TO.N,/A6*%
X205486000Y-68580000D03*
%TO.P,U1,5,A5*%
%TO.N,/A5*%
X208026000Y-68580000D03*
%TO.P,U1,6,A4*%
%TO.N,/A4*%
X210566000Y-68580000D03*
%TO.P,U1,7,A3*%
%TO.N,/A3*%
X213106000Y-68580000D03*
%TO.P,U1,8,A2*%
%TO.N,/A2*%
X215646000Y-68580000D03*
%TO.P,U1,9,A1*%
%TO.N,/A1*%
X218186000Y-68580000D03*
%TO.P,U1,10,A0*%
%TO.N,/A0*%
X220726000Y-68580000D03*
%TO.P,U1,11,D0*%
%TO.N,/D0*%
X223266000Y-68580000D03*
%TO.P,U1,12,D1*%
%TO.N,/D1*%
X225806000Y-68580000D03*
%TO.P,U1,13,D2*%
%TO.N,/D2*%
X228346000Y-68580000D03*
%TO.P,U1,14,GND*%
%TO.N,GND*%
X230886000Y-68580000D03*
%TO.P,U1,15,D3*%
%TO.N,/D3*%
X230886000Y-53340000D03*
%TO.P,U1,16,D4*%
%TO.N,/D4*%
X228346000Y-53340000D03*
%TO.P,U1,17,D5*%
%TO.N,/D5*%
X225806000Y-53340000D03*
%TO.P,U1,18,D6*%
%TO.N,/D6*%
X223266000Y-53340000D03*
%TO.P,U1,19,D7*%
%TO.N,/D7*%
X220726000Y-53340000D03*
%TO.P,U1,20,~{CE}*%
%TO.N,/ROM_CE1*%
X218186000Y-53340000D03*
%TO.P,U1,21,A10*%
%TO.N,/A10*%
X215646000Y-53340000D03*
%TO.P,U1,22,~{OE}*%
%TO.N,/ROM_OE*%
X213106000Y-53340000D03*
%TO.P,U1,23,A11*%
%TO.N,/A11*%
X210566000Y-53340000D03*
%TO.P,U1,24,A9*%
%TO.N,/A9*%
X208026000Y-53340000D03*
%TO.P,U1,25,A8*%
%TO.N,/A8*%
X205486000Y-53340000D03*
%TO.P,U1,26,A13*%
%TO.N,/A13*%
X202946000Y-53340000D03*
%TO.P,U1,27,~{PGM}*%
%TO.N,VCC*%
X200406000Y-53340000D03*
%TO.P,U1,28,VCC*%
X197866000Y-53340000D03*
%TD*%
D13*
%TO.P,R2,1*%
%TO.N,VCC*%
X181102000Y-119380000D03*
D16*
%TO.P,R2,2*%
%TO.N,Net-(R2-Pad2)*%
X181102000Y-111760000D03*
%TD*%
D12*
%TO.P,U2,1,VPP*%
%TO.N,VCC*%
X197876000Y-88880000D03*
D16*
%TO.P,U2,2,A12*%
%TO.N,/A12*%
X200416000Y-88880000D03*
%TO.P,U2,3,A7*%
%TO.N,/A7*%
X202956000Y-88880000D03*
%TO.P,U2,4,A6*%
%TO.N,/A6*%
X205496000Y-88880000D03*
%TO.P,U2,5,A5*%
%TO.N,/A5*%
X208036000Y-88880000D03*
%TO.P,U2,6,A4*%
%TO.N,/A4*%
X210576000Y-88880000D03*
%TO.P,U2,7,A3*%
%TO.N,/A3*%
X213116000Y-88880000D03*
%TO.P,U2,8,A2*%
%TO.N,/A2*%
X215656000Y-88880000D03*
%TO.P,U2,9,A1*%
%TO.N,/A1*%
X218196000Y-88880000D03*
%TO.P,U2,10,A0*%
%TO.N,/A0*%
X220736000Y-88880000D03*
%TO.P,U2,11,D0*%
%TO.N,/D0*%
X223276000Y-88880000D03*
%TO.P,U2,12,D1*%
%TO.N,/D1*%
X225816000Y-88880000D03*
%TO.P,U2,13,D2*%
%TO.N,/D2*%
X228356000Y-88880000D03*
%TO.P,U2,14,GND*%
%TO.N,GND*%
X230896000Y-88880000D03*
%TO.P,U2,15,D3*%
%TO.N,/D3*%
X230896000Y-73640000D03*
%TO.P,U2,16,D4*%
%TO.N,/D4*%
X228356000Y-73640000D03*
%TO.P,U2,17,D5*%
%TO.N,/D5*%
X225816000Y-73640000D03*
%TO.P,U2,18,D6*%
%TO.N,/D6*%
X223276000Y-73640000D03*
%TO.P,U2,19,D7*%
%TO.N,/D7*%
X220736000Y-73640000D03*
%TO.P,U2,20,~{CE}*%
%TO.N,/ROM_CE2*%
X218196000Y-73640000D03*
%TO.P,U2,21,A10*%
%TO.N,/A10*%
X215656000Y-73640000D03*
%TO.P,U2,22,~{OE}*%
%TO.N,/ROM_OE*%
X213116000Y-73640000D03*
%TO.P,U2,23,A11*%
%TO.N,/A11*%
X210576000Y-73640000D03*
%TO.P,U2,24,A9*%
%TO.N,/A9*%
X208036000Y-73640000D03*
%TO.P,U2,25,A8*%
%TO.N,/A8*%
X205496000Y-73640000D03*
%TO.P,U2,26,A13*%
%TO.N,/A13*%
X202956000Y-73640000D03*
%TO.P,U2,27,~{PGM}*%
%TO.N,VCC*%
X200416000Y-73640000D03*
%TO.P,U2,28,VCC*%
X197876000Y-73640000D03*
%TD*%
D17*
%TO.P,U7,1*%
%TO.N,/A16*%
X183896000Y-102235000D03*
D18*
%TO.P,U7,2*%
X183896000Y-104775000D03*
%TO.P,U7,3*%
%TO.N,Net-(R2-Pad2)*%
X183896000Y-107315000D03*
%TO.P,U7,4*%
%TO.N,/RW*%
X183896000Y-109855000D03*
%TO.P,U7,5*%
%TO.N,Net-(U8A-Q)*%
X183896000Y-112395000D03*
%TO.P,U7,6*%
%TO.N,Net-(Q1-B)*%
X183896000Y-114935000D03*
%TO.P,U7,7,GND*%
%TO.N,GND*%
X183896000Y-117475000D03*
%TO.P,U7,8*%
%TO.N,Net-(U6-Pad10)*%
X191516000Y-117475000D03*
%TO.P,U7,9*%
%TO.N,/AS*%
X191516000Y-114935000D03*
%TO.P,U7,10*%
%TO.N,/DS*%
X191516000Y-112395000D03*
%TO.P,U7,11*%
%TO.N,/A19*%
X191516000Y-109855000D03*
%TO.P,U7,12*%
%TO.N,Net-(U6-Pad9)*%
X191516000Y-107315000D03*
%TO.P,U7,13*%
%TO.N,/A17*%
X191516000Y-104775000D03*
%TO.P,U7,14,VCC*%
%TO.N,VCC*%
X191516000Y-102235000D03*
%TD*%
D19*
%TO.P,J1,a1,GND*%
%TO.N,GND*%
X238506000Y-132080000D03*
D20*
%TO.P,J1,a2,D3*%
%TO.N,/D3*%
X238506000Y-129540000D03*
%TO.P,J1,a3,D4*%
%TO.N,/D4*%
X238506000Y-127000000D03*
%TO.P,J1,a4,D5*%
%TO.N,/D5*%
X238506000Y-124460000D03*
%TO.P,J1,a5,D6*%
%TO.N,/D6*%
X238506000Y-121920000D03*
%TO.P,J1,a6,D7*%
%TO.N,/D7*%
X238506000Y-119380000D03*
%TO.P,J1,a7,A19*%
%TO.N,/A19*%
X238506000Y-116840000D03*
%TO.P,J1,a8,A18*%
%TO.N,/A18*%
X238506000Y-114300000D03*
%TO.P,J1,a9,A17*%
%TO.N,/A17*%
X238506000Y-111760000D03*
%TO.P,J1,a10,A16*%
%TO.N,/A16*%
X238506000Y-109220000D03*
%TO.P,J1,a11,CLKCPU*%
%TO.N,/CLKCPU*%
X238506000Y-106680000D03*
%TO.P,J1,a12,RED*%
%TO.N,unconnected-(J1-RED-Pada12)*%
X238506000Y-104140000D03*
%TO.P,J1,a13,A14*%
%TO.N,/A14*%
X238506000Y-101600000D03*
%TO.P,J1,a14,A13*%
%TO.N,/A13*%
X238506000Y-99060000D03*
%TO.P,J1,a15,A12*%
%TO.N,/A12*%
X238506000Y-96520000D03*
%TO.P,J1,a16,A11*%
%TO.N,/A11*%
X238506000Y-93980000D03*
%TO.P,J1,a17,A10*%
%TO.N,/A10*%
X238506000Y-91440000D03*
%TO.P,J1,a18,A9*%
%TO.N,/A9*%
X238506000Y-88900000D03*
%TO.P,J1,a19,A8*%
%TO.N,/A8*%
X238506000Y-86360000D03*
%TO.P,J1,a20,A7*%
%TO.N,/A7*%
X238506000Y-83820000D03*
%TO.P,J1,a21,A6*%
%TO.N,/A6*%
X238506000Y-81280000D03*
%TO.P,J1,a22,A5*%
%TO.N,/A5*%
X238506000Y-78740000D03*
%TO.P,J1,a23,A4*%
%TO.N,/A4*%
X238506000Y-76200000D03*
%TO.P,J1,a24,A3*%
%TO.N,/A3*%
X238506000Y-73660000D03*
%TO.P,J1,a25,~{DBG}*%
%TO.N,unconnected-(J1-~{DBG}-Pada25)*%
X238506000Y-71120000D03*
%TO.P,J1,a26,SP2*%
%TO.N,/O_SP2*%
X238506000Y-68580000D03*
%TO.P,J1,a27,~{DSMC}*%
%TO.N,/DSMC*%
X238506000Y-66040000D03*
%TO.P,J1,a28,SP1*%
%TO.N,/O_SP1*%
X238506000Y-63500000D03*
%TO.P,J1,a29,SP0*%
%TO.N,/O_SP0*%
X238506000Y-60960000D03*
%TO.P,J1,a30,+12V*%
%TO.N,unconnected-(J1-+12V-Pada30)*%
X238506000Y-58420000D03*
%TO.P,J1,a31,-12V*%
%TO.N,unconnected-(J1--12V-Pada31)*%
X238506000Y-55880000D03*
%TO.P,J1,a32,Vin*%
%TO.N,+9V*%
X238506000Y-53340000D03*
%TO.P,J1,b1,GND*%
%TO.N,GND*%
X235966000Y-132080000D03*
%TO.P,J1,b2,D2*%
%TO.N,/D2*%
X235966000Y-129540000D03*
%TO.P,J1,b3,D1*%
%TO.N,/D1*%
X235966000Y-127000000D03*
%TO.P,J1,b4,D0*%
%TO.N,/D0*%
X235966000Y-124460000D03*
%TO.P,J1,b5,~{AS}*%
%TO.N,/AS*%
X235966000Y-121920000D03*
%TO.P,J1,b6,~{DS}*%
%TO.N,/DS*%
X235966000Y-119380000D03*
%TO.P,J1,b7,~{DRW}*%
%TO.N,/RW*%
X235966000Y-116840000D03*
%TO.P,J1,b8,~{DTACK}*%
%TO.N,/DTACKL*%
X235966000Y-114300000D03*
%TO.P,J1,b9,~{BG}*%
%TO.N,unconnected-(J1-~{BG}-Padb9)*%
X235966000Y-111760000D03*
%TO.P,J1,b10,~{BR}*%
%TO.N,unconnected-(J1-~{BR}-Padb10)*%
X235966000Y-109220000D03*
%TO.P,J1,b11,A15*%
%TO.N,/A15*%
X235966000Y-106680000D03*
%TO.P,J1,b12,~{RESETCPU}*%
%TO.N,/RESET*%
X235966000Y-104140000D03*
%TO.P,J1,b13,~{CSYNC}*%
%TO.N,unconnected-(J1-~{CSYNC}-Padb13)*%
X235966000Y-101600000D03*
%TO.P,J1,b14,E*%
%TO.N,/E*%
X235966000Y-99060000D03*
%TO.P,J1,b15,VSYNCH*%
%TO.N,unconnected-(J1-VSYNCH-Padb15)*%
X235966000Y-96520000D03*
%TO.P,J1,b16,~{VPA}*%
%TO.N,/VPA*%
X235966000Y-93980000D03*
%TO.P,J1,b17,GREEN*%
%TO.N,unconnected-(J1-GREEN-Padb17)*%
X235966000Y-91440000D03*
%TO.P,J1,b18,BLUE*%
%TO.N,unconnected-(J1-BLUE-Padb18)*%
X235966000Y-88900000D03*
%TO.P,J1,b19,FC2*%
%TO.N,unconnected-(J1-FC2-Padb19)*%
X235966000Y-86360000D03*
%TO.P,J1,b20,FC1*%
%TO.N,unconnected-(J1-FC1-Padb20)*%
X235966000Y-83820000D03*
%TO.P,J1,b21,FC0*%
%TO.N,unconnected-(J1-FC0-Padb21)*%
X235966000Y-81280000D03*
%TO.P,J1,b22,A0*%
%TO.N,/A0*%
X235966000Y-78740000D03*
%TO.P,J1,b23,ROMOEH*%
%TO.N,unconnected-(J1-ROMOEH-Padb23)*%
X235966000Y-76200000D03*
%TO.P,J1,b24,A1*%
%TO.N,/A1*%
X235966000Y-73660000D03*
%TO.P,J1,b25,A2*%
%TO.N,/A2*%
X235966000Y-71120000D03*
%TO.P,J1,b26,SP3*%
%TO.N,/O_SP3*%
X235966000Y-68580000D03*
%TO.P,J1,b27,~{IPLO}*%
%TO.N,unconnected-(J1-~{IPLO}-Padb27)*%
X235966000Y-66040000D03*
%TO.P,J1,b28,~{BERR}*%
%TO.N,unconnected-(J1-~{BERR}-Padb28)*%
X235966000Y-63500000D03*
%TO.P,J1,b29,~{IPL1}*%
%TO.N,unconnected-(J1-~{IPL1}-Padb29)*%
X235966000Y-60960000D03*
%TO.P,J1,b30,~{EXTINT}*%
%TO.N,unconnected-(J1-~{EXTINT}-Padb30)*%
X235966000Y-58420000D03*
%TO.P,J1,b31,Vin*%
%TO.N,+9V*%
X235966000Y-55880000D03*
%TO.P,J1,b32,Vin*%
X235966000Y-53340000D03*
%TD*%
D21*
%TO.P,U9,1,IN*%
%TO.N,+9V*%
X191856000Y-52578000D03*
D22*
%TO.P,U9,2,GND*%
%TO.N,GND*%
X191856000Y-50038000D03*
%TO.P,U9,3,OUT*%
%TO.N,VCC*%
X191856000Y-47498000D03*
%TD*%
D17*
%TO.P,U6,1*%
%TO.N,VCC*%
X183896000Y-81915000D03*
D18*
%TO.P,U6,2*%
%TO.N,unconnected-(U6-Pad2)*%
X183896000Y-84455000D03*
%TO.P,U6,3*%
%TO.N,Net-(Q1-B)*%
X183896000Y-86995000D03*
%TO.P,U6,4*%
X183896000Y-89535000D03*
%TO.P,U6,5*%
X183896000Y-92075000D03*
%TO.P,U6,6*%
%TO.N,/ROM_OE*%
X183896000Y-94615000D03*
%TO.P,U6,7,GND*%
%TO.N,GND*%
X183896000Y-97155000D03*
%TO.P,U6,8*%
%TO.N,Net-(R2-Pad2)*%
X191516000Y-97155000D03*
%TO.P,U6,9*%
%TO.N,Net-(U6-Pad9)*%
X191516000Y-94615000D03*
%TO.P,U6,10*%
%TO.N,Net-(U6-Pad10)*%
X191516000Y-92075000D03*
%TO.P,U6,11*%
%TO.N,/A18*%
X191516000Y-89535000D03*
%TO.P,U6,12*%
%TO.N,/DTACKL*%
X191516000Y-86995000D03*
%TO.P,U6,13*%
%TO.N,unconnected-(U6-Pad13)*%
X191516000Y-84455000D03*
%TO.P,U6,14,VCC*%
%TO.N,VCC*%
X191516000Y-81915000D03*
%TD*%
D12*
%TO.P,U4,1,VPP*%
%TO.N,VCC*%
X197866000Y-129540000D03*
D16*
%TO.P,U4,2,A12*%
%TO.N,/A12*%
X200406000Y-129540000D03*
%TO.P,U4,3,A7*%
%TO.N,/A7*%
X202946000Y-129540000D03*
%TO.P,U4,4,A6*%
%TO.N,/A6*%
X205486000Y-129540000D03*
%TO.P,U4,5,A5*%
%TO.N,/A5*%
X208026000Y-129540000D03*
%TO.P,U4,6,A4*%
%TO.N,/A4*%
X210566000Y-129540000D03*
%TO.P,U4,7,A3*%
%TO.N,/A3*%
X213106000Y-129540000D03*
%TO.P,U4,8,A2*%
%TO.N,/A2*%
X215646000Y-129540000D03*
%TO.P,U4,9,A1*%
%TO.N,/A1*%
X218186000Y-129540000D03*
%TO.P,U4,10,A0*%
%TO.N,/A0*%
X220726000Y-129540000D03*
%TO.P,U4,11,D0*%
%TO.N,/D0*%
X223266000Y-129540000D03*
%TO.P,U4,12,D1*%
%TO.N,/D1*%
X225806000Y-129540000D03*
%TO.P,U4,13,D2*%
%TO.N,/D2*%
X228346000Y-129540000D03*
%TO.P,U4,14,GND*%
%TO.N,GND*%
X230886000Y-129540000D03*
%TO.P,U4,15,D3*%
%TO.N,/D3*%
X230886000Y-114300000D03*
%TO.P,U4,16,D4*%
%TO.N,/D4*%
X228346000Y-114300000D03*
%TO.P,U4,17,D5*%
%TO.N,/D5*%
X225806000Y-114300000D03*
%TO.P,U4,18,D6*%
%TO.N,/D6*%
X223266000Y-114300000D03*
%TO.P,U4,19,D7*%
%TO.N,/D7*%
X220726000Y-114300000D03*
%TO.P,U4,20,~{CE}*%
%TO.N,/ROM_CE4*%
X218186000Y-114300000D03*
%TO.P,U4,21,A10*%
%TO.N,/A10*%
X215646000Y-114300000D03*
%TO.P,U4,22,~{OE}*%
%TO.N,/ROM_OE*%
X213106000Y-114300000D03*
%TO.P,U4,23,A11*%
%TO.N,/A11*%
X210566000Y-114300000D03*
%TO.P,U4,24,A9*%
%TO.N,/A9*%
X208026000Y-114300000D03*
%TO.P,U4,25,A8*%
%TO.N,/A8*%
X205486000Y-114300000D03*
%TO.P,U4,26,A13*%
%TO.N,/A13*%
X202946000Y-114300000D03*
%TO.P,U4,27,~{PGM}*%
%TO.N,VCC*%
X200406000Y-114300000D03*
%TO.P,U4,28,VCC*%
X197866000Y-114300000D03*
%TD*%
D23*
%TO.P,Q1,1,E*%
%TO.N,/DSMC*%
X206502000Y-49530000D03*
D24*
%TO.P,Q1,2,B*%
%TO.N,Net-(Q1-B)*%
X205232000Y-49530000D03*
%TO.P,Q1,3,C*%
%TO.N,VCC*%
X203962000Y-49530000D03*
%TD*%
D13*
%TO.P,C3,1*%
%TO.N,VCC*%
X195286000Y-99568000D03*
%TO.P,C3,2*%
%TO.N,GND*%
X190286000Y-99568000D03*
%TD*%
D17*
%TO.P,U8,1,~{R}*%
%TO.N,VCC*%
X183896000Y-121920000D03*
D18*
%TO.P,U8,2,D*%
%TO.N,Net-(U8A-D)*%
X183896000Y-124460000D03*
%TO.P,U8,3,C*%
%TO.N,/A14*%
X183896000Y-127000000D03*
%TO.P,U8,4,~{S}*%
%TO.N,VCC*%
X183896000Y-129540000D03*
%TO.P,U8,5,Q*%
%TO.N,Net-(U8A-Q)*%
X183896000Y-132080000D03*
%TO.P,U8,6,~{Q}*%
%TO.N,unconnected-(U8A-~{Q}-Pad6)*%
X183896000Y-134620000D03*
%TO.P,U8,7,GND*%
%TO.N,GND*%
X183896000Y-137160000D03*
%TO.P,U8,8,~{Q}*%
%TO.N,Net-(U8B-D)*%
X191516000Y-137160000D03*
%TO.P,U8,9,Q*%
%TO.N,Net-(U8B-Q)*%
X191516000Y-134620000D03*
%TO.P,U8,10,~{S}*%
%TO.N,VCC*%
X191516000Y-132080000D03*
%TO.P,U8,11,C*%
%TO.N,/RESET*%
X191516000Y-129540000D03*
%TO.P,U8,12,D*%
%TO.N,Net-(U8B-D)*%
X191516000Y-127000000D03*
%TO.P,U8,13,~{R}*%
%TO.N,VCC*%
X191516000Y-124460000D03*
%TO.P,U8,14,VCC*%
X191516000Y-121920000D03*
%TD*%
D13*
%TO.P,C1,1*%
%TO.N,VCC*%
X196850000Y-133176000D03*
%TO.P,C1,2*%
%TO.N,GND*%
X196850000Y-138176000D03*
%TD*%
D17*
%TO.P,U5,1,E*%
%TO.N,VCC*%
X183642000Y-59055000D03*
D18*
%TO.P,U5,2,A0*%
%TO.N,unconnected-(U5A-A0-Pad2)*%
X183642000Y-61595000D03*
%TO.P,U5,3,A1*%
%TO.N,unconnected-(U5A-A1-Pad3)*%
X183642000Y-64135000D03*
%TO.P,U5,4,O0*%
%TO.N,unconnected-(U5A-O0-Pad4)*%
X183642000Y-66675000D03*
%TO.P,U5,5,O1*%
%TO.N,unconnected-(U5A-O1-Pad5)*%
X183642000Y-69215000D03*
%TO.P,U5,6,O2*%
%TO.N,unconnected-(U5A-O2-Pad6)*%
X183642000Y-71755000D03*
%TO.P,U5,7,O3*%
%TO.N,unconnected-(U5A-O3-Pad7)*%
X183642000Y-74295000D03*
%TO.P,U5,8,GND*%
%TO.N,GND*%
X183642000Y-76835000D03*
%TO.P,U5,9,O3*%
%TO.N,/ROM_CE4*%
X191262000Y-76835000D03*
%TO.P,U5,10,O2*%
%TO.N,/ROM_CE3*%
X191262000Y-74295000D03*
%TO.P,U5,11,O1*%
%TO.N,/ROM_CE2*%
X191262000Y-71755000D03*
%TO.P,U5,12,O0*%
%TO.N,/ROM_CE1*%
X191262000Y-69215000D03*
%TO.P,U5,13,A1*%
%TO.N,/A15*%
X191262000Y-66675000D03*
%TO.P,U5,14,A0*%
%TO.N,/A14*%
X191262000Y-64135000D03*
%TO.P,U5,15,E*%
%TO.N,GND*%
X191262000Y-61595000D03*
%TO.P,U5,16,VCC*%
%TO.N,VCC*%
X191262000Y-59055000D03*
%TD*%
D13*
%TO.P,C4,1*%
%TO.N,VCC*%
X190166000Y-56388000D03*
%TO.P,C4,2*%
%TO.N,GND*%
X185166000Y-56388000D03*
%TD*%
D25*
%TO.N,/A4*%
X211836000Y-77470000D03*
%TO.N,/A5*%
X209296000Y-80010000D03*
%TO.N,/A6*%
X205979888Y-82550000D03*
%TO.N,/A7*%
X202946000Y-85090000D03*
%TO.N,/A12*%
X201676000Y-97790000D03*
%TO.N,/A13*%
X202946000Y-100330000D03*
%TO.N,/A14*%
X196596000Y-101600000D03*
X194691000Y-120650000D03*
%TO.N,/D7*%
X220726000Y-120650000D03*
%TO.N,/D6*%
X223266000Y-123190000D03*
%TO.N,/D5*%
X225806000Y-125730000D03*
X225806000Y-125730000D03*
%TO.N,/D4*%
X228346000Y-127000000D03*
%TO.N,/D3*%
X229616000Y-132080000D03*
%TO.N,/A1*%
X218821000Y-71755000D03*
%TO.N,/A0*%
X221996000Y-78740000D03*
%TO.N,/RESET*%
X196596000Y-120650000D03*
X196596000Y-104140000D03*
%TO.N,/ROM_CE2*%
X218376500Y-60960000D03*
%TO.N,/ROM_CE3*%
X218186000Y-78740000D03*
%TO.N,/ROM_OE*%
X211836000Y-86995000D03*
X196596000Y-90805000D03*
%TO.N,/ROM_CE4*%
X216916000Y-132080000D03*
X234696000Y-133350000D03*
X233426000Y-81280000D03*
%TO.N,/DTACKL*%
X196596000Y-86995000D03*
X199136000Y-112395000D03*
X199136000Y-86995000D03*
%TD*%
D26*
%TO.N,/A16*%
X188976000Y-103505000D02*
X188341000Y-103505000D01*
X192786000Y-103505000D02*
X188976000Y-103505000D01*
X187071000Y-103505000D02*
X187071000Y-104775000D01*
X188976000Y-103505000D02*
X187071000Y-103505000D01*
X187071000Y-102235000D02*
X187071000Y-103505000D01*
X183896000Y-102235000D02*
X187071000Y-102235000D01*
%TO.N,/A15*%
X194056000Y-104141396D02*
X194056000Y-102870000D01*
X194056000Y-102870000D02*
X194056000Y-102235000D01*
X194691000Y-97790000D02*
X194056000Y-98425000D01*
X194056000Y-98425000D02*
X194056000Y-102870000D01*
%TO.N,/A19*%
X194691000Y-112395000D02*
X194691000Y-114935000D01*
X191516000Y-109855000D02*
X192151000Y-109855000D01*
X192151000Y-109855000D02*
X194691000Y-112395000D01*
X197866000Y-118110000D02*
X237236000Y-118110000D01*
X194691000Y-114935000D02*
X197866000Y-118110000D01*
X237236000Y-118110000D02*
X238506000Y-116840000D01*
%TO.N,/RW*%
X187071000Y-108585000D02*
X193421000Y-108585000D01*
X195961000Y-111125000D02*
X195961000Y-114935000D01*
X193421000Y-108585000D02*
X195961000Y-111125000D01*
X183896000Y-109855000D02*
X187071000Y-109855000D01*
X187071000Y-109855000D02*
X187071000Y-108585000D01*
X195961000Y-114935000D02*
X197866000Y-116840000D01*
X197866000Y-116840000D02*
X235966000Y-116840000D01*
%TO.N,/CLKCPU*%
X194691000Y-103505000D02*
X194691000Y-101600000D01*
X237236000Y-105410000D02*
X196596000Y-105410000D01*
X196596000Y-105410000D02*
X194691000Y-103505000D01*
%TO.N,unconnected-(SW1-Pad7)*%
X174498000Y-132080000D02*
X175768000Y-130810000D01*
X175768000Y-130810000D02*
X178816000Y-130810000D01*
X180118000Y-126333000D02*
X180118000Y-121952000D01*
X179451000Y-120650000D02*
X179451000Y-100330000D01*
X178816000Y-130810000D02*
X180086000Y-129540000D01*
X180086000Y-121920000D02*
X180086000Y-121285000D01*
X180086000Y-129540000D02*
X180086000Y-126365000D01*
X180086000Y-121285000D02*
X179451000Y-120650000D01*
X180086000Y-126365000D02*
X180118000Y-126333000D01*
X180118000Y-121952000D02*
X180086000Y-121920000D01*
%TO.N,/A17*%
X238506000Y-111760000D02*
X237236000Y-110490000D01*
X237236000Y-110490000D02*
X234696000Y-110490000D01*
X234696000Y-110490000D02*
X232156000Y-107950000D01*
X196591812Y-107950000D02*
X193416812Y-104775000D01*
X232156000Y-107950000D02*
X196591812Y-107950000D01*
X193416812Y-104775000D02*
X191516000Y-104775000D01*
%TO.N,/A16*%
X197231000Y-107315000D02*
X196593208Y-107315000D01*
X187071000Y-104775000D02*
X183896000Y-104775000D01*
X196593208Y-107315000D02*
X192786000Y-103507792D01*
X192786000Y-103507792D02*
X192786000Y-103505000D01*
X197231000Y-107315000D02*
X232791000Y-107315000D01*
%TO.N,/A15*%
X235966000Y-106680000D02*
X196594604Y-106680000D01*
X196594604Y-106680000D02*
X194056000Y-104141396D01*
%TO.N,/A18*%
X234696000Y-113030000D02*
X237236000Y-113030000D01*
X232791000Y-111125000D02*
X234696000Y-113030000D01*
X196596000Y-111125000D02*
X232791000Y-111125000D01*
X196596000Y-109220000D02*
X196596000Y-111125000D01*
X193421000Y-106045000D02*
X196596000Y-109220000D01*
X181356000Y-105410000D02*
X181991000Y-106045000D01*
X181991000Y-106045000D02*
X193421000Y-106045000D01*
X191262000Y-89408000D02*
X193294000Y-89408000D01*
X181356000Y-100965000D02*
X181356000Y-105410000D01*
X193421000Y-98425000D02*
X190881000Y-100965000D01*
X190881000Y-100965000D02*
X181356000Y-100965000D01*
X193421000Y-89535000D02*
X193421000Y-98425000D01*
X193294000Y-89408000D02*
X193421000Y-89535000D01*
X237236000Y-113030000D02*
X238506000Y-114300000D01*
%TO.N,/A15*%
X191262000Y-66675000D02*
X186436000Y-66675000D01*
X186436000Y-66675000D02*
X186436000Y-79375000D01*
X186436000Y-79375000D02*
X193421000Y-79375000D01*
X193421000Y-79375000D02*
X193421000Y-83820000D01*
X193421000Y-83820000D02*
X194691000Y-83820000D01*
X194691000Y-83820000D02*
X194691000Y-97790000D01*
%TO.N,/A14*%
X196596000Y-97790000D02*
X196596000Y-101600000D01*
X195871000Y-82550000D02*
X194056000Y-82550000D01*
X191262000Y-64135000D02*
X193421000Y-64135000D01*
X193421000Y-64135000D02*
X193421000Y-67945000D01*
X193421000Y-67945000D02*
X189611000Y-67945000D01*
X189611000Y-67945000D02*
X189611000Y-78740000D01*
X189611000Y-78740000D02*
X194056000Y-78740000D01*
X194056000Y-78740000D02*
X194056000Y-82550000D01*
X195871000Y-82550000D02*
X195871000Y-96520000D01*
%TO.N,/DTACKL*%
X199136000Y-86995000D02*
X196596000Y-86995000D01*
%TO.N,/ROM_OE*%
X196596000Y-90805000D02*
X201676000Y-90805000D01*
X201676000Y-90805000D02*
X201676000Y-86995000D01*
X201676000Y-86995000D02*
X211836000Y-86995000D01*
%TO.N,GND*%
X183896000Y-97155000D02*
X186309000Y-99568000D01*
D27*
X191856000Y-50038000D02*
X193548000Y-50038000D01*
D26*
X186309000Y-99568000D02*
X190286000Y-99568000D01*
D27*
X195199000Y-48387000D02*
X195199000Y-43942000D01*
X193548000Y-50038000D02*
X195199000Y-48387000D01*
X235966000Y-132080000D02*
X238506000Y-132080000D01*
X218306000Y-44450000D02*
X218313000Y-46355000D01*
X218306000Y-48768000D02*
X218306000Y-44450000D01*
X238506000Y-132080000D02*
X242062000Y-132080000D01*
%TO.N,VCC*%
X197866000Y-93980000D02*
X200406000Y-93980000D01*
D26*
%TO.N,/A3*%
X213106000Y-68580000D02*
X213106000Y-66040000D01*
X234442000Y-67310000D02*
X240284000Y-67310000D01*
X232156000Y-65024000D02*
X234442000Y-67310000D01*
X240284000Y-67310000D02*
X240284000Y-73660000D01*
X213106000Y-66040000D02*
X214122000Y-65024000D01*
X240284000Y-73660000D02*
X238506000Y-73660000D01*
X214122000Y-65024000D02*
X232156000Y-65024000D01*
%TO.N,/A4*%
X211836000Y-77470000D02*
X237236000Y-77470000D01*
X237236000Y-77470000D02*
X238506000Y-76200000D01*
%TO.N,/A5*%
X237236000Y-80010000D02*
X238506000Y-78740000D01*
X209296000Y-80010000D02*
X237236000Y-80010000D01*
%TO.N,/A6*%
X237236000Y-82550000D02*
X238506000Y-81280000D01*
X205979888Y-82550000D02*
X237236000Y-82550000D01*
%TO.N,/A7*%
X238506000Y-83820000D02*
X237236000Y-85090000D01*
X237236000Y-85090000D02*
X202946000Y-85090000D01*
%TO.N,/A8*%
X232156000Y-90805000D02*
X235331000Y-87630000D01*
X206756000Y-90805000D02*
X232156000Y-90805000D01*
X235331000Y-87630000D02*
X237236000Y-87630000D01*
X205486000Y-92075000D02*
X206756000Y-90805000D01*
X237236000Y-87630000D02*
X238506000Y-86360000D01*
X205486000Y-93980000D02*
X205486000Y-92075000D01*
%TO.N,/A9*%
X209296000Y-91440000D02*
X208026000Y-92710000D01*
X238506000Y-88900000D02*
X237236000Y-90170000D01*
X232791000Y-91440000D02*
X209296000Y-91440000D01*
X208026000Y-92710000D02*
X208026000Y-93980000D01*
X237236000Y-90170000D02*
X234061000Y-90170000D01*
X234061000Y-90170000D02*
X232791000Y-91440000D01*
%TO.N,/A10*%
X232621000Y-92540000D02*
X232156000Y-92075000D01*
X237406000Y-92540000D02*
X232621000Y-92540000D01*
X232156000Y-92075000D02*
X216281000Y-92075000D01*
X238506000Y-91440000D02*
X237406000Y-92540000D01*
X216281000Y-92075000D02*
X215646000Y-92710000D01*
X215646000Y-92710000D02*
X215646000Y-93980000D01*
%TO.N,/A11*%
X238506000Y-93980000D02*
X237236000Y-95250000D01*
X211836000Y-95250000D02*
X210566000Y-93980000D01*
X237236000Y-95250000D02*
X211836000Y-95250000D01*
%TO.N,/A12*%
X237236000Y-97790000D02*
X238506000Y-96520000D01*
X201676000Y-97790000D02*
X237236000Y-97790000D01*
%TO.N,/A13*%
X237236000Y-100330000D02*
X238506000Y-99060000D01*
X202946000Y-100330000D02*
X237236000Y-100330000D01*
%TO.N,/A14*%
X187579000Y-127000000D02*
X187579000Y-120650000D01*
X237406000Y-102700000D02*
X197696000Y-102700000D01*
X197696000Y-102700000D02*
X196596000Y-101600000D01*
X238506000Y-101600000D02*
X237406000Y-102700000D01*
X187579000Y-120650000D02*
X194691000Y-120650000D01*
X183896000Y-127000000D02*
X187579000Y-127000000D01*
%TO.N,/A16*%
X237236000Y-107950000D02*
X238506000Y-109220000D01*
X232791000Y-107315000D02*
X233426000Y-107950000D01*
X233426000Y-107950000D02*
X237236000Y-107950000D01*
%TO.N,/D7*%
X237236000Y-120650000D02*
X238506000Y-119380000D01*
X220726000Y-120650000D02*
X237236000Y-120650000D01*
%TO.N,/D6*%
X223266000Y-123190000D02*
X237236000Y-123190000D01*
X237236000Y-123190000D02*
X238506000Y-121920000D01*
%TO.N,/D5*%
X237236000Y-125730000D02*
X238506000Y-124460000D01*
X225806000Y-125730000D02*
X237236000Y-125730000D01*
%TO.N,/D4*%
X238506000Y-127000000D02*
X237236000Y-128270000D01*
X232156000Y-128270000D02*
X230886000Y-127000000D01*
X237236000Y-128270000D02*
X232156000Y-128270000D01*
X230886000Y-127000000D02*
X228346000Y-127000000D01*
%TO.N,/D3*%
X233426000Y-132080000D02*
X234696000Y-130810000D01*
X229616000Y-132080000D02*
X233426000Y-132080000D01*
X237236000Y-130810000D02*
X238506000Y-129540000D01*
X234696000Y-130810000D02*
X237236000Y-130810000D01*
%TO.N,/A2*%
X216281000Y-66040000D02*
X231394000Y-66040000D01*
X231394000Y-66040000D02*
X232791000Y-67437000D01*
X232791000Y-69215000D02*
X234696000Y-71120000D01*
X234696000Y-71120000D02*
X235966000Y-71120000D01*
X215646000Y-68580000D02*
X215646000Y-66675000D01*
X232791000Y-67437000D02*
X232791000Y-69215000D01*
X215646000Y-66675000D02*
X216281000Y-66040000D01*
%TO.N,/A1*%
X218821000Y-71755000D02*
X232156000Y-71755000D01*
X232156000Y-71755000D02*
X234061000Y-73660000D01*
X234061000Y-73660000D02*
X235966000Y-73660000D01*
%TO.N,/A0*%
X221996000Y-78740000D02*
X235966000Y-78740000D01*
%TO.N,/RESET*%
X196596000Y-123952000D02*
X193802000Y-123952000D01*
X193802000Y-123952000D02*
X193802000Y-129540000D01*
X196596000Y-104140000D02*
X235966000Y-104140000D01*
X193802000Y-129540000D02*
X191262000Y-129540000D01*
X196596000Y-120650000D02*
X196596000Y-123952000D01*
%TO.N,/D0*%
X235966000Y-124460000D02*
X223266000Y-124460000D01*
X223266000Y-124460000D02*
X223266000Y-129540000D01*
%TO.N,/D1*%
X235966000Y-127000000D02*
X232931000Y-127000000D01*
X232156000Y-126225000D02*
X227216000Y-126225000D01*
X232931000Y-127000000D02*
X232156000Y-126225000D01*
X227216000Y-126225000D02*
X225806000Y-127635000D01*
X225806000Y-127635000D02*
X225806000Y-129540000D01*
%TO.N,/D2*%
X234696000Y-129540000D02*
X235966000Y-129540000D01*
X229871000Y-131065000D02*
X233171000Y-131065000D01*
X228346000Y-129540000D02*
X229871000Y-131065000D01*
X233171000Y-131065000D02*
X234696000Y-129540000D01*
%TO.N,/ROM_CE1*%
X218186000Y-55880000D02*
X218186000Y-53340000D01*
X191262000Y-69215000D02*
X194691000Y-69215000D01*
X194691000Y-69215000D02*
X194691000Y-55880000D01*
X194691000Y-55880000D02*
X218186000Y-55880000D01*
%TO.N,/ROM_CE2*%
X195961000Y-60960000D02*
X218376500Y-60960000D01*
X191262000Y-71755000D02*
X195961000Y-71755000D01*
X195961000Y-71755000D02*
X195961000Y-60960000D01*
%TO.N,/ROM_CE3*%
X191262000Y-74295000D02*
X196596000Y-74295000D01*
X196596000Y-74295000D02*
X196596000Y-78740000D01*
X196596000Y-78740000D02*
X218186000Y-78740000D01*
%TO.N,/ROM_CE4*%
X216916000Y-132080000D02*
X227711000Y-132080000D01*
X191262000Y-76835000D02*
X195326000Y-76835000D01*
X195326000Y-76835000D02*
X195326000Y-81280000D01*
X195326000Y-81280000D02*
X233426000Y-81280000D01*
X228981000Y-133350000D02*
X234696000Y-133350000D01*
X227711000Y-132080000D02*
X228981000Y-133350000D01*
%TO.N,/CLKCPU*%
X238506000Y-106680000D02*
X237236000Y-105410000D01*
%TO.N,/DTACKL*%
X199136000Y-112395000D02*
X231521000Y-112395000D01*
X235966000Y-114300000D02*
X233426000Y-114300000D01*
X233426000Y-114300000D02*
X231521000Y-112395000D01*
%TO.N,Net-(Q1-B)*%
X196596000Y-50800000D02*
X194056000Y-53340000D01*
X183896000Y-92075000D02*
X179451000Y-92075000D01*
X205232000Y-49530000D02*
X205232000Y-50419000D01*
X204851000Y-50800000D02*
X196596000Y-50800000D01*
X205232000Y-50419000D02*
X204851000Y-50800000D01*
X179451000Y-60325000D02*
X194056000Y-60325000D01*
X194056000Y-53340000D02*
X194056000Y-60325000D01*
X179451000Y-60325000D02*
X179451000Y-92075000D01*
%TO.N,/AS*%
X192151000Y-114935000D02*
X199136000Y-121920000D01*
X199136000Y-121920000D02*
X235966000Y-121920000D01*
%TO.N,/DS*%
X191516000Y-112395000D02*
X192786000Y-112395000D01*
X193421000Y-114935000D02*
X197866000Y-119380000D01*
X197866000Y-119380000D02*
X235966000Y-119380000D01*
X192786000Y-112395000D02*
X193421000Y-113030000D01*
X193421000Y-113030000D02*
X193421000Y-114935000D01*
%TO.N,Net-(U8A-Q)*%
X186563000Y-112395000D02*
X183896000Y-112395000D01*
X186563000Y-123317000D02*
X186563000Y-112395000D01*
X183896000Y-132080000D02*
X182118000Y-132080000D01*
X182118000Y-132080000D02*
X182118000Y-123317000D01*
X182118000Y-123317000D02*
X186563000Y-123317000D01*
%TD*%
%TA.AperFunction,Conductor*%
%TO.N,GND*%
G36*
X243782977Y-43205537D02*
G01*
X243828763Y-43258314D01*
X243840000Y-43309893D01*
X243840000Y-139581747D01*
X243820315Y-139648786D01*
X243767511Y-139694541D01*
X243716000Y-139705747D01*
X238884000Y-139705747D01*
X238816961Y-139686062D01*
X238771206Y-139633258D01*
X238760000Y-139581747D01*
X238760000Y-137050188D01*
X239370500Y-137050188D01*
X239370500Y-137269811D01*
X239370501Y-137269828D01*
X239399167Y-137487573D01*
X239456014Y-137699729D01*
X239520711Y-137855920D01*
X239540065Y-137902645D01*
X239649884Y-138092855D01*
X239649889Y-138092861D01*
X239649890Y-138092863D01*
X239783588Y-138267102D01*
X239783594Y-138267109D01*
X239938890Y-138422405D01*
X239938897Y-138422411D01*
X240034905Y-138496080D01*
X240113145Y-138556116D01*
X240303355Y-138665935D01*
X240404814Y-138707960D01*
X240506270Y-138749985D01*
X240506271Y-138749985D01*
X240506273Y-138749986D01*
X240718425Y-138806832D01*
X240936182Y-138835500D01*
X240936189Y-138835500D01*
X241155811Y-138835500D01*
X241155818Y-138835500D01*
X241373575Y-138806832D01*
X241585727Y-138749986D01*
X241788645Y-138665935D01*
X241978855Y-138556116D01*
X242153104Y-138422410D01*
X242308410Y-138267104D01*
X242442116Y-138092855D01*
X242551935Y-137902645D01*
X242635986Y-137699727D01*
X242692832Y-137487575D01*
X242721500Y-137269818D01*
X242721500Y-137050182D01*
X242692832Y-136832425D01*
X242635986Y-136620273D01*
X242551935Y-136417355D01*
X242442116Y-136227145D01*
X242308410Y-136052896D01*
X242308405Y-136052890D01*
X242153109Y-135897594D01*
X242153102Y-135897588D01*
X241978863Y-135763890D01*
X241978861Y-135763889D01*
X241978855Y-135763884D01*
X241788645Y-135654065D01*
X241788641Y-135654063D01*
X241585729Y-135570014D01*
X241373573Y-135513167D01*
X241155828Y-135484501D01*
X241155823Y-135484500D01*
X241155818Y-135484500D01*
X240936182Y-135484500D01*
X240936176Y-135484500D01*
X240936171Y-135484501D01*
X240718426Y-135513167D01*
X240506270Y-135570014D01*
X240303358Y-135654063D01*
X240303354Y-135654065D01*
X240113145Y-135763884D01*
X240113136Y-135763890D01*
X239938897Y-135897588D01*
X239938890Y-135897594D01*
X239783594Y-136052890D01*
X239783588Y-136052897D01*
X239649890Y-136227136D01*
X239649884Y-136227145D01*
X239540065Y-136417354D01*
X239540063Y-136417358D01*
X239456014Y-136620270D01*
X239399167Y-136832426D01*
X239370501Y-137050171D01*
X239370500Y-137050188D01*
X238760000Y-137050188D01*
X238760000Y-135003747D01*
X238779685Y-134936708D01*
X238832489Y-134890953D01*
X238884000Y-134879747D01*
X240283999Y-134879747D01*
X240284000Y-134879747D01*
X240912679Y-134366000D01*
X241420679Y-51059747D01*
X240912679Y-50551747D01*
X239004679Y-50551747D01*
X238937640Y-50532062D01*
X238891885Y-50479258D01*
X238880679Y-50427747D01*
X238880679Y-48150188D01*
X239370500Y-48150188D01*
X239370500Y-48369811D01*
X239370501Y-48369828D01*
X239399167Y-48587573D01*
X239456014Y-48799729D01*
X239503853Y-48915222D01*
X239540065Y-49002645D01*
X239649884Y-49192855D01*
X239649889Y-49192861D01*
X239649890Y-49192863D01*
X239783588Y-49367102D01*
X239783594Y-49367109D01*
X239938890Y-49522405D01*
X239938897Y-49522411D01*
X240037263Y-49597890D01*
X240113145Y-49656116D01*
X240303355Y-49765935D01*
X240404814Y-49807960D01*
X240506270Y-49849985D01*
X240506271Y-49849985D01*
X240506273Y-49849986D01*
X240718425Y-49906832D01*
X240936182Y-49935500D01*
X240936189Y-49935500D01*
X241155811Y-49935500D01*
X241155818Y-49935500D01*
X241373575Y-49906832D01*
X241585727Y-49849986D01*
X241788645Y-49765935D01*
X241978855Y-49656116D01*
X242153104Y-49522410D01*
X242308410Y-49367104D01*
X242442116Y-49192855D01*
X242551935Y-49002645D01*
X242635986Y-48799727D01*
X242692832Y-48587575D01*
X242721500Y-48369818D01*
X242721500Y-48150182D01*
X242692832Y-47932425D01*
X242635986Y-47720273D01*
X242551935Y-47517355D01*
X242442116Y-47327145D01*
X242396349Y-47267500D01*
X242308411Y-47152897D01*
X242308405Y-47152890D01*
X242153109Y-46997594D01*
X242153102Y-46997588D01*
X241978863Y-46863890D01*
X241978861Y-46863889D01*
X241978855Y-46863884D01*
X241788645Y-46754065D01*
X241788641Y-46754063D01*
X241585729Y-46670014D01*
X241373573Y-46613167D01*
X241155828Y-46584501D01*
X241155823Y-46584500D01*
X241155818Y-46584500D01*
X240936182Y-46584500D01*
X240936176Y-46584500D01*
X240936171Y-46584501D01*
X240718426Y-46613167D01*
X240506270Y-46670014D01*
X240303358Y-46754063D01*
X240303354Y-46754065D01*
X240113145Y-46863884D01*
X240113136Y-46863890D01*
X239938897Y-46997588D01*
X239938890Y-46997594D01*
X239783594Y-47152890D01*
X239783588Y-47152897D01*
X239649890Y-47327136D01*
X239649884Y-47327145D01*
X239540065Y-47517354D01*
X239540063Y-47517358D01*
X239456014Y-47720270D01*
X239399167Y-47932426D01*
X239370501Y-48150171D01*
X239370500Y-48150188D01*
X238880679Y-48150188D01*
X238880679Y-45217747D01*
X238880678Y-45217746D01*
X188842679Y-44963746D01*
X188842679Y-44963747D01*
X188918884Y-47859521D01*
X189093330Y-54488485D01*
X189075416Y-54556019D01*
X189023834Y-54603147D01*
X188969373Y-54615747D01*
X171316679Y-54615747D01*
X171316679Y-64775747D01*
X178701500Y-64775747D01*
X178768539Y-64795432D01*
X178814294Y-64848236D01*
X178825500Y-64899747D01*
X178825500Y-92136610D01*
X178849535Y-92257444D01*
X178849538Y-92257454D01*
X178896686Y-92371281D01*
X178896688Y-92371284D01*
X178896689Y-92371286D01*
X178915782Y-92399861D01*
X178936659Y-92466535D01*
X178936679Y-92468749D01*
X178936679Y-97396248D01*
X178916994Y-97463287D01*
X178915782Y-97465138D01*
X178896685Y-97493718D01*
X178863347Y-97574207D01*
X178857823Y-97587543D01*
X178849537Y-97607545D01*
X178849535Y-97607553D01*
X178825500Y-97728389D01*
X178825500Y-119261747D01*
X178805815Y-119328786D01*
X178753011Y-119374541D01*
X178701500Y-119385747D01*
X171062679Y-119385747D01*
X171167637Y-127887396D01*
X171285553Y-137438632D01*
X171281337Y-137472254D01*
X171257939Y-137559580D01*
X171257936Y-137559596D01*
X171237341Y-137794999D01*
X171237341Y-137795000D01*
X171257937Y-138030408D01*
X171290521Y-138152021D01*
X171294737Y-138182582D01*
X171316679Y-139959747D01*
X243715566Y-139706603D01*
X243782674Y-139726053D01*
X243828614Y-139778696D01*
X243840000Y-139830602D01*
X243840000Y-142116000D01*
X243820315Y-142183039D01*
X243767511Y-142228794D01*
X243716000Y-142240000D01*
X169338800Y-142240000D01*
X169271761Y-142220315D01*
X169226006Y-142167511D01*
X169214800Y-142116000D01*
X169214800Y-116332000D01*
X171167479Y-116332000D01*
X171187582Y-116581039D01*
X171187583Y-116581044D01*
X171247376Y-116823631D01*
X171345309Y-117053492D01*
X171345312Y-117053498D01*
X171478847Y-117264665D01*
X171644528Y-117451680D01*
X171838065Y-117609698D01*
X171838068Y-117609701D01*
X171953808Y-117676523D01*
X172054446Y-117734626D01*
X172288061Y-117823225D01*
X172532864Y-117873202D01*
X172600950Y-117875945D01*
X172782506Y-117883262D01*
X172782508Y-117883262D01*
X172782509Y-117883261D01*
X172782514Y-117883262D01*
X172995111Y-117857448D01*
X173030545Y-117853146D01*
X173098191Y-117833551D01*
X173270532Y-117783633D01*
X173496261Y-117676523D01*
X173701885Y-117534591D01*
X173882079Y-117361512D01*
X174032176Y-117161770D01*
X174148288Y-116940537D01*
X174227408Y-116703543D01*
X174247316Y-116581044D01*
X174267486Y-116456935D01*
X174267486Y-116456932D01*
X174267487Y-116456926D01*
X174270000Y-116332000D01*
X174267487Y-116207074D01*
X174267486Y-116207067D01*
X174267486Y-116207064D01*
X174227409Y-115960462D01*
X174227408Y-115960460D01*
X174227408Y-115960457D01*
X174148288Y-115723463D01*
X174032176Y-115502230D01*
X174032173Y-115502226D01*
X174032172Y-115502224D01*
X173882077Y-115302485D01*
X173701886Y-115129410D01*
X173701885Y-115129409D01*
X173496262Y-114987477D01*
X173373812Y-114929374D01*
X173270532Y-114880367D01*
X173270529Y-114880366D01*
X173270526Y-114880365D01*
X173030545Y-114810853D01*
X172782507Y-114780737D01*
X172532867Y-114790797D01*
X172532859Y-114790798D01*
X172288056Y-114840776D01*
X172054444Y-114929374D01*
X171838068Y-115054298D01*
X171838065Y-115054301D01*
X171644528Y-115212319D01*
X171478847Y-115399334D01*
X171345312Y-115610501D01*
X171345309Y-115610507D01*
X171247376Y-115840368D01*
X171187583Y-116082955D01*
X171187582Y-116082960D01*
X171167479Y-116332000D01*
X169214800Y-116332000D01*
X169214800Y-105162156D01*
X171021995Y-105162156D01*
X173211398Y-105162156D01*
X173211398Y-78620252D01*
X171021995Y-78620252D01*
X171021995Y-105162156D01*
X169214800Y-105162156D01*
X169214800Y-69469000D01*
X171167479Y-69469000D01*
X171187582Y-69718039D01*
X171187583Y-69718044D01*
X171247376Y-69960631D01*
X171345309Y-70190492D01*
X171345312Y-70190498D01*
X171478847Y-70401665D01*
X171644528Y-70588680D01*
X171838065Y-70746698D01*
X171838068Y-70746701D01*
X171953808Y-70813523D01*
X172054446Y-70871626D01*
X172288061Y-70960225D01*
X172532864Y-71010202D01*
X172600950Y-71012945D01*
X172782506Y-71020262D01*
X172782508Y-71020262D01*
X172782509Y-71020261D01*
X172782514Y-71020262D01*
X172995111Y-70994448D01*
X173030545Y-70990146D01*
X173098191Y-70970551D01*
X173270532Y-70920633D01*
X173496261Y-70813523D01*
X173701885Y-70671591D01*
X173882079Y-70498512D01*
X174032176Y-70298770D01*
X174148288Y-70077537D01*
X174227408Y-69840543D01*
X174247316Y-69718044D01*
X174267486Y-69593935D01*
X174267486Y-69593932D01*
X174267487Y-69593926D01*
X174270000Y-69469000D01*
X174267487Y-69344074D01*
X174267486Y-69344067D01*
X174267486Y-69344064D01*
X174227409Y-69097462D01*
X174227408Y-69097460D01*
X174227408Y-69097457D01*
X174148288Y-68860463D01*
X174032176Y-68639230D01*
X174032173Y-68639226D01*
X174032172Y-68639224D01*
X173882077Y-68439485D01*
X173701886Y-68266410D01*
X173701885Y-68266409D01*
X173496262Y-68124477D01*
X173373812Y-68066374D01*
X173270532Y-68017367D01*
X173270529Y-68017366D01*
X173270526Y-68017365D01*
X173030545Y-67947853D01*
X172782507Y-67917737D01*
X172532867Y-67927797D01*
X172532859Y-67927798D01*
X172288056Y-67977776D01*
X172054444Y-68066374D01*
X171838068Y-68191298D01*
X171838065Y-68191301D01*
X171644528Y-68349319D01*
X171478847Y-68536334D01*
X171345312Y-68747501D01*
X171345309Y-68747507D01*
X171247376Y-68977368D01*
X171187583Y-69219955D01*
X171187582Y-69219960D01*
X171167479Y-69469000D01*
X169214800Y-69469000D01*
X169214800Y-50037992D01*
X172940671Y-50037992D01*
X172940671Y-50038007D01*
X172959964Y-50332363D01*
X172959965Y-50332373D01*
X172959966Y-50332380D01*
X173010811Y-50588000D01*
X173017518Y-50621716D01*
X173017521Y-50621730D01*
X173112349Y-50901080D01*
X173242825Y-51165660D01*
X173242829Y-51165667D01*
X173406725Y-51410955D01*
X173601241Y-51632758D01*
X173823043Y-51827273D01*
X174068335Y-51991172D01*
X174332923Y-52121652D01*
X174612278Y-52216481D01*
X174901620Y-52274034D01*
X174929888Y-52275886D01*
X175195993Y-52293329D01*
X175196000Y-52293329D01*
X175196007Y-52293329D01*
X175431675Y-52277881D01*
X175490380Y-52274034D01*
X175779722Y-52216481D01*
X176059077Y-52121652D01*
X176323665Y-51991172D01*
X176568957Y-51827273D01*
X176790758Y-51632758D01*
X176985273Y-51410957D01*
X177149172Y-51165665D01*
X177279652Y-50901077D01*
X177374481Y-50621722D01*
X177432034Y-50332380D01*
X177451329Y-50038000D01*
X177451329Y-50037992D01*
X177432035Y-49743636D01*
X177432034Y-49743620D01*
X177374481Y-49454278D01*
X177279652Y-49174923D01*
X177149172Y-48910336D01*
X176985273Y-48665043D01*
X176917335Y-48587575D01*
X176790758Y-48443241D01*
X176568955Y-48248725D01*
X176323667Y-48084829D01*
X176323660Y-48084825D01*
X176059080Y-47954349D01*
X175779730Y-47859521D01*
X175779724Y-47859519D01*
X175779722Y-47859519D01*
X175490380Y-47801966D01*
X175490373Y-47801965D01*
X175490363Y-47801964D01*
X175196007Y-47782671D01*
X175195993Y-47782671D01*
X174901636Y-47801964D01*
X174901624Y-47801965D01*
X174901620Y-47801966D01*
X174901612Y-47801967D01*
X174901609Y-47801968D01*
X174612283Y-47859518D01*
X174612269Y-47859521D01*
X174332919Y-47954349D01*
X174068334Y-48084828D01*
X173823041Y-48248728D01*
X173601241Y-48443241D01*
X173406728Y-48665041D01*
X173242828Y-48910334D01*
X173112349Y-49174919D01*
X173017521Y-49454269D01*
X173017518Y-49454283D01*
X172959968Y-49743609D01*
X172959964Y-49743636D01*
X172940671Y-50037992D01*
X169214800Y-50037992D01*
X169214800Y-43354725D01*
X169234485Y-43287686D01*
X169287289Y-43241931D01*
X169338723Y-43230725D01*
X243715927Y-43185893D01*
X243782977Y-43205537D01*
G37*
%TD.AperFunction*%
%TD*%
D28*
X211836000Y-77470000D03*
X209296000Y-80010000D03*
X205979888Y-82550000D03*
X202946000Y-85090000D03*
X201676000Y-97790000D03*
X202946000Y-100330000D03*
X196596000Y-101600000D03*
X194691000Y-120650000D03*
X220726000Y-120650000D03*
X223266000Y-123190000D03*
X225806000Y-125730000D03*
X225806000Y-125730000D03*
X228346000Y-127000000D03*
X229616000Y-132080000D03*
X218821000Y-71755000D03*
X221996000Y-78740000D03*
X196596000Y-120650000D03*
X196596000Y-104140000D03*
X218376500Y-60960000D03*
X218186000Y-78740000D03*
X211836000Y-86995000D03*
X196596000Y-90805000D03*
X216916000Y-132080000D03*
X234696000Y-133350000D03*
X233426000Y-81280000D03*
X196596000Y-86995000D03*
X199136000Y-112395000D03*
X199136000Y-86995000D03*
X233306000Y-48768000D03*
X228306000Y-48768000D03*
X172593000Y-123825000D03*
X172593000Y-137795000D03*
X178943000Y-123825000D03*
X178943000Y-137795000D03*
X177038000Y-127000000D03*
X177038000Y-129540000D03*
X177038000Y-132080000D03*
X177038000Y-134620000D03*
X174498000Y-127000000D03*
X174498000Y-129540000D03*
X174498000Y-132080000D03*
X174498000Y-134620000D03*
X180594000Y-86995000D03*
X180594000Y-94615000D03*
X197866000Y-109220000D03*
X200406000Y-109220000D03*
X202946000Y-109220000D03*
X205486000Y-109220000D03*
X208026000Y-109220000D03*
X210566000Y-109220000D03*
X213106000Y-109220000D03*
X215646000Y-109220000D03*
X218186000Y-109220000D03*
X220726000Y-109220000D03*
X223266000Y-109220000D03*
X225806000Y-109220000D03*
X228346000Y-109220000D03*
X230886000Y-109220000D03*
X230886000Y-93980000D03*
X228346000Y-93980000D03*
X225806000Y-93980000D03*
X223266000Y-93980000D03*
X220726000Y-93980000D03*
X218186000Y-93980000D03*
X215646000Y-93980000D03*
X213106000Y-93980000D03*
X210566000Y-93980000D03*
X208026000Y-93980000D03*
X205486000Y-93980000D03*
X202946000Y-93980000D03*
X200406000Y-93980000D03*
X197866000Y-93980000D03*
X197866000Y-68580000D03*
X200406000Y-68580000D03*
X202946000Y-68580000D03*
X205486000Y-68580000D03*
X208026000Y-68580000D03*
X210566000Y-68580000D03*
X213106000Y-68580000D03*
X215646000Y-68580000D03*
X218186000Y-68580000D03*
X220726000Y-68580000D03*
X223266000Y-68580000D03*
X225806000Y-68580000D03*
X228346000Y-68580000D03*
X230886000Y-68580000D03*
X230886000Y-53340000D03*
X228346000Y-53340000D03*
X225806000Y-53340000D03*
X223266000Y-53340000D03*
X220726000Y-53340000D03*
X218186000Y-53340000D03*
X215646000Y-53340000D03*
X213106000Y-53340000D03*
X210566000Y-53340000D03*
X208026000Y-53340000D03*
X205486000Y-53340000D03*
X202946000Y-53340000D03*
X200406000Y-53340000D03*
X197866000Y-53340000D03*
X181102000Y-119380000D03*
X181102000Y-111760000D03*
X197876000Y-88880000D03*
X200416000Y-88880000D03*
X202956000Y-88880000D03*
X205496000Y-88880000D03*
X208036000Y-88880000D03*
X210576000Y-88880000D03*
X213116000Y-88880000D03*
X215656000Y-88880000D03*
X218196000Y-88880000D03*
X220736000Y-88880000D03*
X223276000Y-88880000D03*
X225816000Y-88880000D03*
X228356000Y-88880000D03*
X230896000Y-88880000D03*
X230896000Y-73640000D03*
X228356000Y-73640000D03*
X225816000Y-73640000D03*
X223276000Y-73640000D03*
X220736000Y-73640000D03*
X218196000Y-73640000D03*
X215656000Y-73640000D03*
X213116000Y-73640000D03*
X210576000Y-73640000D03*
X208036000Y-73640000D03*
X205496000Y-73640000D03*
X202956000Y-73640000D03*
X200416000Y-73640000D03*
X197876000Y-73640000D03*
X183896000Y-102235000D03*
X183896000Y-104775000D03*
X183896000Y-107315000D03*
X183896000Y-109855000D03*
X183896000Y-112395000D03*
X183896000Y-114935000D03*
X183896000Y-117475000D03*
X191516000Y-117475000D03*
X191516000Y-114935000D03*
X191516000Y-112395000D03*
X191516000Y-109855000D03*
X191516000Y-107315000D03*
X191516000Y-104775000D03*
X191516000Y-102235000D03*
X241046000Y-48260000D03*
X241046000Y-137160000D03*
X238506000Y-132080000D03*
X238506000Y-129540000D03*
X238506000Y-127000000D03*
X238506000Y-124460000D03*
X238506000Y-121920000D03*
X238506000Y-119380000D03*
X238506000Y-116840000D03*
X238506000Y-114300000D03*
X238506000Y-111760000D03*
X238506000Y-109220000D03*
X238506000Y-106680000D03*
X238506000Y-104140000D03*
X238506000Y-101600000D03*
X238506000Y-99060000D03*
X238506000Y-96520000D03*
X238506000Y-93980000D03*
X238506000Y-91440000D03*
X238506000Y-88900000D03*
X238506000Y-86360000D03*
X238506000Y-83820000D03*
X238506000Y-81280000D03*
X238506000Y-78740000D03*
X238506000Y-76200000D03*
X238506000Y-73660000D03*
X238506000Y-71120000D03*
X238506000Y-68580000D03*
X238506000Y-66040000D03*
X238506000Y-63500000D03*
X238506000Y-60960000D03*
X238506000Y-58420000D03*
X238506000Y-55880000D03*
X238506000Y-53340000D03*
X235966000Y-132080000D03*
X235966000Y-129540000D03*
X235966000Y-127000000D03*
X235966000Y-124460000D03*
X235966000Y-121920000D03*
X235966000Y-119380000D03*
X235966000Y-116840000D03*
X235966000Y-114300000D03*
X235966000Y-111760000D03*
X235966000Y-109220000D03*
X235966000Y-106680000D03*
X235966000Y-104140000D03*
X235966000Y-101600000D03*
X235966000Y-99060000D03*
X235966000Y-96520000D03*
X235966000Y-93980000D03*
X235966000Y-91440000D03*
X235966000Y-88900000D03*
X235966000Y-86360000D03*
X235966000Y-83820000D03*
X235966000Y-81280000D03*
X235966000Y-78740000D03*
X235966000Y-76200000D03*
X235966000Y-73660000D03*
X235966000Y-71120000D03*
X235966000Y-68580000D03*
X235966000Y-66040000D03*
X235966000Y-63500000D03*
X235966000Y-60960000D03*
X235966000Y-58420000D03*
X235966000Y-55880000D03*
X235966000Y-53340000D03*
X175196000Y-50038000D03*
X191856000Y-52578000D03*
X191856000Y-50038000D03*
X191856000Y-47498000D03*
X183896000Y-81915000D03*
X183896000Y-84455000D03*
X183896000Y-86995000D03*
X183896000Y-89535000D03*
X183896000Y-92075000D03*
X183896000Y-94615000D03*
X183896000Y-97155000D03*
X191516000Y-97155000D03*
X191516000Y-94615000D03*
X191516000Y-92075000D03*
X191516000Y-89535000D03*
X191516000Y-86995000D03*
X191516000Y-84455000D03*
X191516000Y-81915000D03*
X197866000Y-129540000D03*
X200406000Y-129540000D03*
X202946000Y-129540000D03*
X205486000Y-129540000D03*
X208026000Y-129540000D03*
X210566000Y-129540000D03*
X213106000Y-129540000D03*
X215646000Y-129540000D03*
X218186000Y-129540000D03*
X220726000Y-129540000D03*
X223266000Y-129540000D03*
X225806000Y-129540000D03*
X228346000Y-129540000D03*
X230886000Y-129540000D03*
X230886000Y-114300000D03*
X228346000Y-114300000D03*
X225806000Y-114300000D03*
X223266000Y-114300000D03*
X220726000Y-114300000D03*
X218186000Y-114300000D03*
X215646000Y-114300000D03*
X213106000Y-114300000D03*
X210566000Y-114300000D03*
X208026000Y-114300000D03*
X205486000Y-114300000D03*
X202946000Y-114300000D03*
X200406000Y-114300000D03*
X197866000Y-114300000D03*
X206502000Y-49530000D03*
X205232000Y-49530000D03*
X203962000Y-49530000D03*
X195286000Y-99568000D03*
X190286000Y-99568000D03*
X183896000Y-121920000D03*
X183896000Y-124460000D03*
X183896000Y-127000000D03*
X183896000Y-129540000D03*
X183896000Y-132080000D03*
X183896000Y-134620000D03*
X183896000Y-137160000D03*
X191516000Y-137160000D03*
X191516000Y-134620000D03*
X191516000Y-132080000D03*
X191516000Y-129540000D03*
X191516000Y-127000000D03*
X191516000Y-124460000D03*
X191516000Y-121920000D03*
X196850000Y-133176000D03*
X196850000Y-138176000D03*
X183642000Y-59055000D03*
X183642000Y-61595000D03*
X183642000Y-64135000D03*
X183642000Y-66675000D03*
X183642000Y-69215000D03*
X183642000Y-71755000D03*
X183642000Y-74295000D03*
X183642000Y-76835000D03*
X191262000Y-76835000D03*
X191262000Y-74295000D03*
X191262000Y-71755000D03*
X191262000Y-69215000D03*
X191262000Y-66675000D03*
X191262000Y-64135000D03*
X191262000Y-61595000D03*
X191262000Y-59055000D03*
X190166000Y-56388000D03*
X185166000Y-56388000D03*
M02*
