M48
; DRILL file {KiCad 8.0.3+1} date 2024-07-14T18:41:45+0200
; FORMAT={-:-/ absolute / metric / decimal}
; #@! TF.CreationDate,2024-07-14T18:41:45+02:00
; #@! TF.GenerationSoftware,Kicad,Pcbnew,8.0.3+1
; #@! TF.FileFunction,Plated,1,2,PTH
FMAT,2
METRIC
; #@! TA.AperFunction,Plated,PTH,ViaDrill
T1C0.400
; #@! TA.AperFunction,Plated,PTH,ComponentDrill
T2C0.750
; #@! TA.AperFunction,Plated,PTH,ComponentDrill
T3C0.800
; #@! TA.AperFunction,Plated,PTH,ComponentDrill
T4C1.000
; #@! TA.AperFunction,Plated,PTH,ComponentDrill
T5C1.100
%
G90
G05
T1
X194.691Y-120.65
X196.596Y-86.995
X196.596Y-90.805
X196.596Y-101.6
X196.596Y-104.14
X196.596Y-120.65
X199.136Y-86.995
X199.136Y-112.395
X201.676Y-97.79
X202.946Y-85.09
X202.946Y-100.33
X205.98Y-82.55
X209.296Y-80.01
X211.836Y-77.47
X211.836Y-86.995
X216.916Y-132.08
X218.186Y-78.74
X218.376Y-60.96
X218.821Y-71.755
X220.726Y-120.65
X221.996Y-78.74
X223.266Y-123.19
X225.806Y-125.73
X225.806Y-125.73
X228.346Y-127.0
X229.616Y-132.08
X233.426Y-81.28
X234.696Y-133.35
T2
X203.962Y-49.53
X205.232Y-49.53
X206.502Y-49.53
T3
X180.594Y-86.995
X180.594Y-94.615
X181.102Y-111.76
X181.102Y-119.38
X183.642Y-59.055
X183.642Y-61.595
X183.642Y-64.135
X183.642Y-66.675
X183.642Y-69.215
X183.642Y-71.755
X183.642Y-74.295
X183.642Y-76.835
X183.896Y-81.915
X183.896Y-84.455
X183.896Y-86.995
X183.896Y-89.535
X183.896Y-92.075
X183.896Y-94.615
X183.896Y-97.155
X183.896Y-102.235
X183.896Y-104.775
X183.896Y-107.315
X183.896Y-109.855
X183.896Y-112.395
X183.896Y-114.935
X183.896Y-117.475
X183.896Y-121.92
X183.896Y-124.46
X183.896Y-127.0
X183.896Y-129.54
X183.896Y-132.08
X183.896Y-134.62
X183.896Y-137.16
X185.166Y-56.388
X190.166Y-56.388
X190.286Y-99.568
X191.262Y-59.055
X191.262Y-61.595
X191.262Y-64.135
X191.262Y-66.675
X191.262Y-69.215
X191.262Y-71.755
X191.262Y-74.295
X191.262Y-76.835
X191.516Y-81.915
X191.516Y-84.455
X191.516Y-86.995
X191.516Y-89.535
X191.516Y-92.075
X191.516Y-94.615
X191.516Y-97.155
X191.516Y-102.235
X191.516Y-104.775
X191.516Y-107.315
X191.516Y-109.855
X191.516Y-112.395
X191.516Y-114.935
X191.516Y-117.475
X191.516Y-121.92
X191.516Y-124.46
X191.516Y-127.0
X191.516Y-129.54
X191.516Y-132.08
X191.516Y-134.62
X191.516Y-137.16
X195.286Y-99.568
X196.85Y-133.176
X196.85Y-138.176
X197.866Y-53.34
X197.866Y-68.58
X197.866Y-93.98
X197.866Y-109.22
X197.866Y-114.3
X197.866Y-129.54
X197.876Y-73.64
X197.876Y-88.88
X200.406Y-53.34
X200.406Y-68.58
X200.406Y-93.98
X200.406Y-109.22
X200.406Y-114.3
X200.406Y-129.54
X200.416Y-73.64
X200.416Y-88.88
X202.946Y-53.34
X202.946Y-68.58
X202.946Y-93.98
X202.946Y-109.22
X202.946Y-114.3
X202.946Y-129.54
X202.956Y-73.64
X202.956Y-88.88
X205.486Y-53.34
X205.486Y-68.58
X205.486Y-93.98
X205.486Y-109.22
X205.486Y-114.3
X205.486Y-129.54
X205.496Y-73.64
X205.496Y-88.88
X208.026Y-53.34
X208.026Y-68.58
X208.026Y-93.98
X208.026Y-109.22
X208.026Y-114.3
X208.026Y-129.54
X208.036Y-73.64
X208.036Y-88.88
X210.566Y-53.34
X210.566Y-68.58
X210.566Y-93.98
X210.566Y-109.22
X210.566Y-114.3
X210.566Y-129.54
X210.576Y-73.64
X210.576Y-88.88
X213.106Y-53.34
X213.106Y-68.58
X213.106Y-93.98
X213.106Y-109.22
X213.106Y-114.3
X213.106Y-129.54
X213.116Y-73.64
X213.116Y-88.88
X215.646Y-53.34
X215.646Y-68.58
X215.646Y-93.98
X215.646Y-109.22
X215.646Y-114.3
X215.646Y-129.54
X215.656Y-73.64
X215.656Y-88.88
X218.186Y-53.34
X218.186Y-68.58
X218.186Y-93.98
X218.186Y-109.22
X218.186Y-114.3
X218.186Y-129.54
X218.196Y-73.64
X218.196Y-88.88
X220.726Y-53.34
X220.726Y-68.58
X220.726Y-93.98
X220.726Y-109.22
X220.726Y-114.3
X220.726Y-129.54
X220.736Y-73.64
X220.736Y-88.88
X223.266Y-53.34
X223.266Y-68.58
X223.266Y-93.98
X223.266Y-109.22
X223.266Y-114.3
X223.266Y-129.54
X223.276Y-73.64
X223.276Y-88.88
X225.806Y-53.34
X225.806Y-68.58
X225.806Y-93.98
X225.806Y-109.22
X225.806Y-114.3
X225.806Y-129.54
X225.816Y-73.64
X225.816Y-88.88
X228.306Y-48.768
X228.346Y-53.34
X228.346Y-68.58
X228.346Y-93.98
X228.346Y-109.22
X228.346Y-114.3
X228.346Y-129.54
X228.356Y-73.64
X228.356Y-88.88
X230.886Y-53.34
X230.886Y-68.58
X230.886Y-93.98
X230.886Y-109.22
X230.886Y-114.3
X230.886Y-129.54
X230.896Y-73.64
X230.896Y-88.88
X233.306Y-48.768
T4
X172.593Y-123.825
X172.593Y-137.795
X174.498Y-127.0
X174.498Y-129.54
X174.498Y-132.08
X174.498Y-134.62
X177.038Y-127.0
X177.038Y-129.54
X177.038Y-132.08
X177.038Y-134.62
X178.943Y-123.825
X178.943Y-137.795
X235.966Y-53.34
X235.966Y-55.88
X235.966Y-58.42
X235.966Y-60.96
X235.966Y-63.5
X235.966Y-66.04
X235.966Y-68.58
X235.966Y-71.12
X235.966Y-73.66
X235.966Y-76.2
X235.966Y-78.74
X235.966Y-81.28
X235.966Y-83.82
X235.966Y-86.36
X235.966Y-88.9
X235.966Y-91.44
X235.966Y-93.98
X235.966Y-96.52
X235.966Y-99.06
X235.966Y-101.6
X235.966Y-104.14
X235.966Y-106.68
X235.966Y-109.22
X235.966Y-111.76
X235.966Y-114.3
X235.966Y-116.84
X235.966Y-119.38
X235.966Y-121.92
X235.966Y-124.46
X235.966Y-127.0
X235.966Y-129.54
X235.966Y-132.08
X238.506Y-53.34
X238.506Y-55.88
X238.506Y-58.42
X238.506Y-60.96
X238.506Y-63.5
X238.506Y-66.04
X238.506Y-68.58
X238.506Y-71.12
X238.506Y-73.66
X238.506Y-76.2
X238.506Y-78.74
X238.506Y-81.28
X238.506Y-83.82
X238.506Y-86.36
X238.506Y-88.9
X238.506Y-91.44
X238.506Y-93.98
X238.506Y-96.52
X238.506Y-99.06
X238.506Y-101.6
X238.506Y-104.14
X238.506Y-106.68
X238.506Y-109.22
X238.506Y-111.76
X238.506Y-114.3
X238.506Y-116.84
X238.506Y-119.38
X238.506Y-121.92
X238.506Y-124.46
X238.506Y-127.0
X238.506Y-129.54
X238.506Y-132.08
T5
X191.856Y-47.498
X191.856Y-50.038
X191.856Y-52.578
M30
